%TF.GenerationSoftware,KiCad,Pcbnew,8.0.5-dirty*%
%TF.CreationDate,2024-10-04T17:55:26+02:00*%
%TF.ProjectId,bottom,626f7474-6f6d-42e6-9b69-6361645f7063,rev?*%
%TF.SameCoordinates,Original*%
%TF.FileFunction,Copper,L2,Bot*%
%TF.FilePolarity,Positive*%
%FSLAX46Y46*%
G04 Gerber Fmt 4.6, Leading zero omitted, Abs format (unit mm)*
G04 Created by KiCad (PCBNEW 8.0.5-dirty) date 2024-10-04 17:55:26*
%MOMM*%
%LPD*%
G01*
G04 APERTURE LIST*
G04 Aperture macros list*
%AMRoundRect*
0 Rectangle with rounded corners*
0 $1 Rounding radius*
0 $2 $3 $4 $5 $6 $7 $8 $9 X,Y pos of 4 corners*
0 Add a 4 corners polygon primitive as box body*
4,1,4,$2,$3,$4,$5,$6,$7,$8,$9,$2,$3,0*
0 Add four circle primitives for the rounded corners*
1,1,$1+$1,$2,$3*
1,1,$1+$1,$4,$5*
1,1,$1+$1,$6,$7*
1,1,$1+$1,$8,$9*
0 Add four rect primitives between the rounded corners*
20,1,$1+$1,$2,$3,$4,$5,0*
20,1,$1+$1,$4,$5,$6,$7,0*
20,1,$1+$1,$6,$7,$8,$9,0*
20,1,$1+$1,$8,$9,$2,$3,0*%
%AMOutline5P*
0 Free polygon, 5 corners , with rotation*
0 The origin of the aperture is its center*
0 number of corners: always 5*
0 $1 to $10 corner X, Y*
0 $11 Rotation angle, in degrees counterclockwise*
0 create outline with 5 corners*
4,1,5,$1,$2,$3,$4,$5,$6,$7,$8,$9,$10,$1,$2,$11*%
%AMOutline6P*
0 Free polygon, 6 corners , with rotation*
0 The origin of the aperture is its center*
0 number of corners: always 6*
0 $1 to $12 corner X, Y*
0 $13 Rotation angle, in degrees counterclockwise*
0 create outline with 6 corners*
4,1,6,$1,$2,$3,$4,$5,$6,$7,$8,$9,$10,$11,$12,$1,$2,$13*%
%AMOutline7P*
0 Free polygon, 7 corners , with rotation*
0 The origin of the aperture is its center*
0 number of corners: always 7*
0 $1 to $14 corner X, Y*
0 $15 Rotation angle, in degrees counterclockwise*
0 create outline with 7 corners*
4,1,7,$1,$2,$3,$4,$5,$6,$7,$8,$9,$10,$11,$12,$13,$14,$1,$2,$15*%
%AMOutline8P*
0 Free polygon, 8 corners , with rotation*
0 The origin of the aperture is its center*
0 number of corners: always 8*
0 $1 to $16 corner X, Y*
0 $17 Rotation angle, in degrees counterclockwise*
0 create outline with 8 corners*
4,1,8,$1,$2,$3,$4,$5,$6,$7,$8,$9,$10,$11,$12,$13,$14,$15,$16,$1,$2,$17*%
G04 Aperture macros list end*
%TA.AperFunction,ComponentPad*%
%ADD10C,1.600000*%
%TD*%
%TA.AperFunction,ComponentPad*%
%ADD11O,1.600000X1.600000*%
%TD*%
%TA.AperFunction,ComponentPad*%
%ADD12C,1.800000*%
%TD*%
%TA.AperFunction,ComponentPad*%
%ADD13R,1.800000X1.800000*%
%TD*%
%TA.AperFunction,ComponentPad*%
%ADD14R,2.600000X2.600000*%
%TD*%
%TA.AperFunction,ComponentPad*%
%ADD15C,2.600000*%
%TD*%
%TA.AperFunction,ComponentPad*%
%ADD16R,6.000000X6.000000*%
%TD*%
%TA.AperFunction,ComponentPad*%
%ADD17Outline5P,-3.000000X1.800000X-1.800000X3.000000X3.000000X3.000000X3.000000X-3.000000X-3.000000X-3.000000X270.000000*%
%TD*%
%TA.AperFunction,ComponentPad*%
%ADD18RoundRect,0.250001X0.499999X-0.499999X0.499999X0.499999X-0.499999X0.499999X-0.499999X-0.499999X0*%
%TD*%
%TA.AperFunction,ComponentPad*%
%ADD19C,1.500000*%
%TD*%
%TA.AperFunction,ComponentPad*%
%ADD20C,0.700000*%
%TD*%
%TA.AperFunction,ComponentPad*%
%ADD21C,4.400000*%
%TD*%
G04 APERTURE END LIST*
D10*
%TO.P,R1,1*%
%TO.N,Net-(D1-A)*%
X208620000Y-32750000D03*
D11*
%TO.P,R1,2*%
%TO.N,+5V*%
X193380000Y-32750000D03*
%TD*%
D12*
%TO.P,D1,2,A*%
%TO.N,Net-(D1-A)*%
X216475000Y-31460000D03*
D13*
%TO.P,D1,1,K*%
%TO.N,GND*%
X216475000Y-34000000D03*
%TD*%
D14*
%TO.P,J13,1,Pin_1*%
%TO.N,+5V*%
X149205000Y-56305000D03*
D15*
%TO.P,J13,2,Pin_2*%
%TO.N,GND*%
X154285000Y-56305000D03*
%TD*%
D14*
%TO.P,J10,1,Pin_1*%
%TO.N,+5V*%
X193580000Y-53500000D03*
D15*
%TO.P,J10,2,Pin_2*%
%TO.N,GND*%
X188500000Y-53500000D03*
%TD*%
D16*
%TO.P,UHP_OUT_1,1,V-*%
%TO.N,GND*%
X66500000Y-136750000D03*
D17*
%TO.P,UHP_OUT_1,2,V-*%
X66500000Y-145000000D03*
%TO.P,UHP_OUT_1,3,V+*%
%TO.N,+5V*%
X66500000Y-153500000D03*
%TO.P,UHP_OUT_1,4,V+*%
X66500000Y-161750000D03*
%TD*%
D18*
%TO.P,J1,1,5V*%
%TO.N,+5V*%
X236380000Y-35000000D03*
D19*
%TO.P,J1,2,GND*%
%TO.N,GND*%
X236380000Y-32000000D03*
%TO.P,J1,3,GND*%
X233380000Y-35000000D03*
%TO.P,J1,4,Pin_4*%
%TO.N,+5V*%
X233380000Y-32000000D03*
%TD*%
D20*
%TO.P,H3,1,1*%
%TO.N,unconnected-(H3-Pad1)_7*%
X157350000Y-115000000D03*
%TO.N,unconnected-(H3-Pad1)_4*%
X157833274Y-113833274D03*
%TO.N,unconnected-(H3-Pad1)*%
X157833274Y-116166726D03*
%TO.N,unconnected-(H3-Pad1)_2*%
X159000000Y-113350000D03*
D21*
%TO.N,unconnected-(H3-Pad1)_1*%
X159000000Y-115000000D03*
D20*
%TO.N,unconnected-(H3-Pad1)_3*%
X159000000Y-116650000D03*
%TO.N,unconnected-(H3-Pad1)_8*%
X160166726Y-113833274D03*
%TO.N,unconnected-(H3-Pad1)_6*%
X160166726Y-116166726D03*
%TO.N,unconnected-(H3-Pad1)_5*%
X160650000Y-115000000D03*
%TD*%
%TO.P,H4,1,1*%
%TO.N,unconnected-(H4-Pad1)_4*%
X238850000Y-17000000D03*
%TO.N,unconnected-(H4-Pad1)*%
X239333274Y-15833274D03*
%TO.N,unconnected-(H4-Pad1)_6*%
X239333274Y-18166726D03*
%TO.N,unconnected-(H4-Pad1)_5*%
X240500000Y-15350000D03*
D21*
%TO.N,unconnected-(H4-Pad1)_2*%
X240500000Y-17000000D03*
D20*
%TO.N,unconnected-(H4-Pad1)_7*%
X240500000Y-18650000D03*
%TO.N,unconnected-(H4-Pad1)_8*%
X241666726Y-15833274D03*
%TO.N,unconnected-(H4-Pad1)_3*%
X241666726Y-18166726D03*
%TO.N,unconnected-(H4-Pad1)_1*%
X242150000Y-17000000D03*
%TD*%
D14*
%TO.P,J_FAN_2,1,Pin_1*%
%TO.N,+5V*%
X112000000Y-96980000D03*
D15*
%TO.P,J_FAN_2,2,Pin_2*%
%TO.N,GND*%
X112000000Y-102060000D03*
%TD*%
D14*
%TO.P,J5,1,Pin_1*%
%TO.N,+5V*%
X138740000Y-39610000D03*
D15*
%TO.P,J5,2,Pin_2*%
%TO.N,GND*%
X133660000Y-39610000D03*
%TD*%
D14*
%TO.P,J_FAN_1,1,Pin_1*%
%TO.N,+5V*%
X112000000Y-82620000D03*
D15*
%TO.P,J_FAN_1,2,Pin_2*%
%TO.N,GND*%
X112000000Y-87700000D03*
%TD*%
D14*
%TO.P,J12,1,Pin_1*%
%TO.N,+5V*%
X133205000Y-56305000D03*
D15*
%TO.P,J12,2,Pin_2*%
%TO.N,GND*%
X138285000Y-56305000D03*
%TD*%
D20*
%TO.P,H2,1,1*%
%TO.N,unconnected-(H2-Pad1)_4*%
X99350000Y-115000000D03*
%TO.N,unconnected-(H2-Pad1)_6*%
X99833274Y-113833274D03*
%TO.N,unconnected-(H2-Pad1)_3*%
X99833274Y-116166726D03*
%TO.N,unconnected-(H2-Pad1)_5*%
X101000000Y-113350000D03*
D21*
%TO.N,unconnected-(H2-Pad1)*%
X101000000Y-115000000D03*
D20*
%TO.N,unconnected-(H2-Pad1)_1*%
X101000000Y-116650000D03*
%TO.N,unconnected-(H2-Pad1)_2*%
X102166726Y-113833274D03*
%TO.N,unconnected-(H2-Pad1)_8*%
X102166726Y-116166726D03*
%TO.N,unconnected-(H2-Pad1)_7*%
X102650000Y-115000000D03*
%TD*%
%TO.P,H1,1,1*%
%TO.N,unconnected-(H1-Pad1)*%
X48350000Y-18000000D03*
%TO.N,unconnected-(H1-Pad1)_2*%
X48833274Y-16833274D03*
%TO.N,unconnected-(H1-Pad1)_5*%
X48833274Y-19166726D03*
%TO.N,unconnected-(H1-Pad1)_4*%
X50000000Y-16350000D03*
D21*
%TO.N,unconnected-(H1-Pad1)_1*%
X50000000Y-18000000D03*
D20*
%TO.N,unconnected-(H1-Pad1)_3*%
X50000000Y-19650000D03*
%TO.N,unconnected-(H1-Pad1)_6*%
X51166726Y-16833274D03*
%TO.N,unconnected-(H1-Pad1)_7*%
X51166726Y-19166726D03*
%TO.N,unconnected-(H1-Pad1)_8*%
X51650000Y-18000000D03*
%TD*%
D14*
%TO.P,J11,1,Pin_1*%
%TO.N,+5V*%
X154285000Y-39805000D03*
D15*
%TO.P,J11,2,Pin_2*%
%TO.N,GND*%
X149205000Y-39805000D03*
%TD*%
%TA.AperFunction,Conductor*%
%TO.N,GND*%
G36*
X60349482Y-133005085D02*
G01*
X60349527Y-133005132D01*
X60349536Y-133005117D01*
X60383872Y-133024964D01*
X60384009Y-133025020D01*
X60384011Y-133025021D01*
X60384012Y-133025021D01*
X60384014Y-133025022D01*
X60422291Y-133035278D01*
X60422348Y-133035312D01*
X60422353Y-133035295D01*
X60430382Y-133037450D01*
X60460288Y-133045480D01*
X60460295Y-133045480D01*
X60460434Y-133045499D01*
X60460438Y-133045500D01*
X60460441Y-133045500D01*
X60500285Y-133045500D01*
X69934915Y-133050217D01*
X69982331Y-133059668D01*
X69983922Y-133060327D01*
X69984949Y-133060753D01*
X70012952Y-133076925D01*
X70090602Y-133136509D01*
X70113491Y-133159398D01*
X70173074Y-133237048D01*
X70189240Y-133265035D01*
X70190042Y-133266969D01*
X70199500Y-133314468D01*
X70199500Y-147935532D01*
X70190054Y-147983001D01*
X70189253Y-147984934D01*
X70173074Y-148012952D01*
X70113490Y-148090602D01*
X70090601Y-148113491D01*
X70012951Y-148173074D01*
X69984918Y-148189259D01*
X69894491Y-148226715D01*
X69863224Y-148235093D01*
X69769398Y-148247446D01*
X69758058Y-148248939D01*
X69741874Y-148250000D01*
X59000000Y-148250000D01*
X59000000Y-144882022D01*
X64700000Y-144882022D01*
X64700000Y-145117978D01*
X64730799Y-145351916D01*
X64791869Y-145579832D01*
X64882165Y-145797828D01*
X65000144Y-146002172D01*
X65143785Y-146189369D01*
X65310631Y-146356215D01*
X65497828Y-146499856D01*
X65702172Y-146617835D01*
X65920168Y-146708131D01*
X66148084Y-146769201D01*
X66382022Y-146800000D01*
X66617978Y-146800000D01*
X66851916Y-146769201D01*
X67079832Y-146708131D01*
X67297828Y-146617835D01*
X67502172Y-146499856D01*
X67689369Y-146356215D01*
X67856215Y-146189369D01*
X67999856Y-146002172D01*
X68117835Y-145797828D01*
X68208131Y-145579832D01*
X68269201Y-145351916D01*
X68300000Y-145117978D01*
X68300000Y-144882022D01*
X68269201Y-144648084D01*
X68208131Y-144420168D01*
X68117835Y-144202172D01*
X67999856Y-143997828D01*
X67856215Y-143810631D01*
X67689369Y-143643785D01*
X67502172Y-143500144D01*
X67297828Y-143382165D01*
X67079832Y-143291869D01*
X66851916Y-143230799D01*
X66617978Y-143200000D01*
X66382022Y-143200000D01*
X66148084Y-143230799D01*
X65920168Y-143291869D01*
X65702172Y-143382165D01*
X65497828Y-143500144D01*
X65310631Y-143643785D01*
X65143785Y-143810631D01*
X65000144Y-143997828D01*
X64882165Y-144202172D01*
X64791869Y-144420168D01*
X64730799Y-144648084D01*
X64700000Y-144882022D01*
X59000000Y-144882022D01*
X59000000Y-136632022D01*
X64700000Y-136632022D01*
X64700000Y-136867978D01*
X64730799Y-137101916D01*
X64791869Y-137329832D01*
X64882165Y-137547828D01*
X65000144Y-137752172D01*
X65143785Y-137939369D01*
X65310631Y-138106215D01*
X65497828Y-138249856D01*
X65702172Y-138367835D01*
X65920168Y-138458131D01*
X66148084Y-138519201D01*
X66382022Y-138550000D01*
X66617978Y-138550000D01*
X66851916Y-138519201D01*
X67079832Y-138458131D01*
X67297828Y-138367835D01*
X67502172Y-138249856D01*
X67689369Y-138106215D01*
X67856215Y-137939369D01*
X67999856Y-137752172D01*
X68117835Y-137547828D01*
X68208131Y-137329832D01*
X68269201Y-137101916D01*
X68300000Y-136867978D01*
X68300000Y-136632022D01*
X68269201Y-136398084D01*
X68208131Y-136170168D01*
X68117835Y-135952172D01*
X67999856Y-135747828D01*
X67856215Y-135560631D01*
X67689369Y-135393785D01*
X67502172Y-135250144D01*
X67297828Y-135132165D01*
X67079832Y-135041869D01*
X66851916Y-134980799D01*
X66617978Y-134950000D01*
X66382022Y-134950000D01*
X66148084Y-134980799D01*
X65920168Y-135041869D01*
X65702172Y-135132165D01*
X65497828Y-135250144D01*
X65310631Y-135393785D01*
X65143785Y-135560631D01*
X65000144Y-135747828D01*
X64882165Y-135952172D01*
X64791869Y-136170168D01*
X64730799Y-136398084D01*
X64700000Y-136632022D01*
X59000000Y-136632022D01*
X59000000Y-133000000D01*
X60340674Y-133000000D01*
X60349482Y-133005085D01*
G37*
%TD.AperFunction*%
%TD*%
%TA.AperFunction,Conductor*%
%TO.N,GND*%
G36*
X243943039Y-23019685D02*
G01*
X243988794Y-23072489D01*
X244000000Y-23124000D01*
X244000000Y-119876000D01*
X243980315Y-119943039D01*
X243927511Y-119988794D01*
X243876000Y-120000000D01*
X60250000Y-120000000D01*
X60250000Y-120293768D01*
X60233348Y-120355836D01*
X60220050Y-120378833D01*
X60220021Y-120378905D01*
X60219981Y-120379000D01*
X60209942Y-120416465D01*
X60209922Y-120416540D01*
X60199517Y-120455270D01*
X60199500Y-120455402D01*
X60199500Y-120494881D01*
X60199469Y-120542197D01*
X60199500Y-120542666D01*
X60199500Y-132744912D01*
X60199480Y-132784413D01*
X60199499Y-132784559D01*
X60199500Y-132784562D01*
X60209611Y-132822300D01*
X60209618Y-132822356D01*
X60209626Y-132822355D01*
X60219921Y-132860849D01*
X60219979Y-132860989D01*
X60233387Y-132884213D01*
X60250000Y-132946213D01*
X60250000Y-133000000D01*
X59000000Y-133000000D01*
X59000000Y-148250000D01*
X44424500Y-148250000D01*
X44357461Y-148230315D01*
X44311706Y-148177511D01*
X44300500Y-148126000D01*
X44300500Y-115000000D01*
X98294564Y-115000000D01*
X98314289Y-115326099D01*
X98373178Y-115647452D01*
X98470366Y-115959342D01*
X98470370Y-115959354D01*
X98470373Y-115959361D01*
X98604455Y-116257279D01*
X98768901Y-116529306D01*
X98773473Y-116536868D01*
X98974954Y-116794039D01*
X99205960Y-117025045D01*
X99463131Y-117226526D01*
X99463134Y-117226528D01*
X99463137Y-117226530D01*
X99742721Y-117395545D01*
X100040639Y-117529627D01*
X100040652Y-117529631D01*
X100040657Y-117529633D01*
X100352547Y-117626821D01*
X100673896Y-117685710D01*
X101000000Y-117705436D01*
X101326104Y-117685710D01*
X101647453Y-117626821D01*
X101959361Y-117529627D01*
X102257279Y-117395545D01*
X102536863Y-117226530D01*
X102794036Y-117025048D01*
X103025048Y-116794036D01*
X103226530Y-116536863D01*
X103395545Y-116257279D01*
X103529627Y-115959361D01*
X103626821Y-115647453D01*
X103685710Y-115326104D01*
X103705436Y-115000000D01*
X156294564Y-115000000D01*
X156314289Y-115326099D01*
X156373178Y-115647452D01*
X156470366Y-115959342D01*
X156470370Y-115959354D01*
X156470373Y-115959361D01*
X156604455Y-116257279D01*
X156768901Y-116529306D01*
X156773473Y-116536868D01*
X156974954Y-116794039D01*
X157205960Y-117025045D01*
X157463131Y-117226526D01*
X157463134Y-117226528D01*
X157463137Y-117226530D01*
X157742721Y-117395545D01*
X158040639Y-117529627D01*
X158040652Y-117529631D01*
X158040657Y-117529633D01*
X158352547Y-117626821D01*
X158673896Y-117685710D01*
X159000000Y-117705436D01*
X159326104Y-117685710D01*
X159647453Y-117626821D01*
X159959361Y-117529627D01*
X160257279Y-117395545D01*
X160536863Y-117226530D01*
X160794036Y-117025048D01*
X161025048Y-116794036D01*
X161226530Y-116536863D01*
X161395545Y-116257279D01*
X161529627Y-115959361D01*
X161626821Y-115647453D01*
X161685710Y-115326104D01*
X161705436Y-115000000D01*
X161685710Y-114673896D01*
X161626821Y-114352547D01*
X161529627Y-114040639D01*
X161395545Y-113742721D01*
X161226530Y-113463137D01*
X161226528Y-113463134D01*
X161226526Y-113463131D01*
X161025045Y-113205960D01*
X160794039Y-112974954D01*
X160536868Y-112773473D01*
X160529306Y-112768901D01*
X160257279Y-112604455D01*
X159959361Y-112470373D01*
X159959354Y-112470370D01*
X159959342Y-112470366D01*
X159647452Y-112373178D01*
X159326099Y-112314289D01*
X159000000Y-112294564D01*
X158673900Y-112314289D01*
X158352547Y-112373178D01*
X158040657Y-112470366D01*
X158040641Y-112470372D01*
X158040639Y-112470373D01*
X157850933Y-112555752D01*
X157742725Y-112604453D01*
X157742723Y-112604454D01*
X157463131Y-112773473D01*
X157205960Y-112974954D01*
X156974954Y-113205960D01*
X156773473Y-113463131D01*
X156604454Y-113742723D01*
X156604453Y-113742725D01*
X156470372Y-114040642D01*
X156470366Y-114040657D01*
X156373178Y-114352547D01*
X156314289Y-114673900D01*
X156294564Y-115000000D01*
X103705436Y-115000000D01*
X103685710Y-114673896D01*
X103626821Y-114352547D01*
X103529627Y-114040639D01*
X103395545Y-113742721D01*
X103226530Y-113463137D01*
X103226528Y-113463134D01*
X103226526Y-113463131D01*
X103025045Y-113205960D01*
X102794039Y-112974954D01*
X102536868Y-112773473D01*
X102529306Y-112768901D01*
X102257279Y-112604455D01*
X101959361Y-112470373D01*
X101959354Y-112470370D01*
X101959342Y-112470366D01*
X101647452Y-112373178D01*
X101326099Y-112314289D01*
X101000000Y-112294564D01*
X100673900Y-112314289D01*
X100352547Y-112373178D01*
X100040657Y-112470366D01*
X100040641Y-112470372D01*
X100040639Y-112470373D01*
X99850933Y-112555752D01*
X99742725Y-112604453D01*
X99742723Y-112604454D01*
X99463131Y-112773473D01*
X99205960Y-112974954D01*
X98974954Y-113205960D01*
X98773473Y-113463131D01*
X98604454Y-113742723D01*
X98604453Y-113742725D01*
X98470372Y-114040642D01*
X98470366Y-114040657D01*
X98373178Y-114352547D01*
X98314289Y-114673900D01*
X98294564Y-115000000D01*
X44300500Y-115000000D01*
X44300500Y-103638303D01*
X111128802Y-103638303D01*
X111340539Y-103740269D01*
X111340537Y-103740269D01*
X111598337Y-103819790D01*
X111598343Y-103819792D01*
X111865101Y-103859999D01*
X111865110Y-103860000D01*
X112134890Y-103860000D01*
X112134898Y-103859999D01*
X112401656Y-103819792D01*
X112401662Y-103819790D01*
X112659458Y-103740270D01*
X112871195Y-103638302D01*
X112000000Y-102767107D01*
X111128802Y-103638303D01*
X44300500Y-103638303D01*
X44300500Y-102059995D01*
X110194953Y-102059995D01*
X110194953Y-102060004D01*
X110215113Y-102329026D01*
X110215113Y-102329028D01*
X110275142Y-102592033D01*
X110275148Y-102592052D01*
X110373709Y-102843181D01*
X110423489Y-102929402D01*
X110423490Y-102929403D01*
X111292893Y-102060000D01*
X111228874Y-101995981D01*
X111350000Y-101995981D01*
X111350000Y-102124019D01*
X111374979Y-102249598D01*
X111423978Y-102367890D01*
X111495112Y-102474351D01*
X111585649Y-102564888D01*
X111692110Y-102636022D01*
X111810402Y-102685021D01*
X111935981Y-102710000D01*
X112064019Y-102710000D01*
X112189598Y-102685021D01*
X112307890Y-102636022D01*
X112414351Y-102564888D01*
X112504888Y-102474351D01*
X112576022Y-102367890D01*
X112625021Y-102249598D01*
X112650000Y-102124019D01*
X112650000Y-102059999D01*
X112707107Y-102059999D01*
X112707107Y-102060001D01*
X113576509Y-102929403D01*
X113576510Y-102929403D01*
X113626290Y-102843182D01*
X113626293Y-102843175D01*
X113724851Y-102592052D01*
X113724857Y-102592033D01*
X113784886Y-102329028D01*
X113784886Y-102329026D01*
X113805047Y-102060004D01*
X113805047Y-102059995D01*
X113784886Y-101790973D01*
X113784886Y-101790971D01*
X113724857Y-101527966D01*
X113724851Y-101527947D01*
X113626290Y-101276818D01*
X113576509Y-101190595D01*
X112707107Y-102059999D01*
X112650000Y-102059999D01*
X112650000Y-101995981D01*
X112625021Y-101870402D01*
X112576022Y-101752110D01*
X112504888Y-101645649D01*
X112414351Y-101555112D01*
X112307890Y-101483978D01*
X112189598Y-101434979D01*
X112064019Y-101410000D01*
X111935981Y-101410000D01*
X111810402Y-101434979D01*
X111692110Y-101483978D01*
X111585649Y-101555112D01*
X111495112Y-101645649D01*
X111423978Y-101752110D01*
X111374979Y-101870402D01*
X111350000Y-101995981D01*
X111228874Y-101995981D01*
X110423489Y-101190596D01*
X110373708Y-101276821D01*
X110373706Y-101276825D01*
X110275148Y-101527947D01*
X110275142Y-101527966D01*
X110215113Y-101790971D01*
X110215113Y-101790973D01*
X110194953Y-102059995D01*
X44300500Y-102059995D01*
X44300500Y-100481695D01*
X111128803Y-100481695D01*
X111128803Y-100481696D01*
X112000000Y-101352893D01*
X112000001Y-101352893D01*
X112871196Y-100481697D01*
X112871195Y-100481695D01*
X112659460Y-100379730D01*
X112659462Y-100379730D01*
X112401662Y-100300209D01*
X112401656Y-100300207D01*
X112134898Y-100260000D01*
X111865101Y-100260000D01*
X111598343Y-100300207D01*
X111598337Y-100300209D01*
X111340538Y-100379730D01*
X111128803Y-100481695D01*
X44300500Y-100481695D01*
X44300500Y-95632135D01*
X110199500Y-95632135D01*
X110199500Y-98327870D01*
X110199501Y-98327876D01*
X110205908Y-98387483D01*
X110256202Y-98522328D01*
X110256206Y-98522335D01*
X110342452Y-98637544D01*
X110342455Y-98637547D01*
X110457664Y-98723793D01*
X110457671Y-98723797D01*
X110592517Y-98774091D01*
X110592516Y-98774091D01*
X110599444Y-98774835D01*
X110652127Y-98780500D01*
X113347872Y-98780499D01*
X113407483Y-98774091D01*
X113542331Y-98723796D01*
X113657546Y-98637546D01*
X113743796Y-98522331D01*
X113794091Y-98387483D01*
X113800500Y-98327873D01*
X113800499Y-95632128D01*
X113794091Y-95572517D01*
X113743796Y-95437669D01*
X113743795Y-95437668D01*
X113743793Y-95437664D01*
X113657547Y-95322455D01*
X113657544Y-95322452D01*
X113542335Y-95236206D01*
X113542328Y-95236202D01*
X113407482Y-95185908D01*
X113407483Y-95185908D01*
X113347883Y-95179501D01*
X113347881Y-95179500D01*
X113347873Y-95179500D01*
X113347864Y-95179500D01*
X110652129Y-95179500D01*
X110652123Y-95179501D01*
X110592516Y-95185908D01*
X110457671Y-95236202D01*
X110457664Y-95236206D01*
X110342455Y-95322452D01*
X110342452Y-95322455D01*
X110256206Y-95437664D01*
X110256202Y-95437671D01*
X110205908Y-95572517D01*
X110199501Y-95632116D01*
X110199501Y-95632123D01*
X110199500Y-95632135D01*
X44300500Y-95632135D01*
X44300500Y-89278303D01*
X111128802Y-89278303D01*
X111340539Y-89380269D01*
X111340537Y-89380269D01*
X111598337Y-89459790D01*
X111598343Y-89459792D01*
X111865101Y-89499999D01*
X111865110Y-89500000D01*
X112134890Y-89500000D01*
X112134898Y-89499999D01*
X112401656Y-89459792D01*
X112401662Y-89459790D01*
X112659458Y-89380270D01*
X112871195Y-89278302D01*
X112000000Y-88407107D01*
X111128802Y-89278303D01*
X44300500Y-89278303D01*
X44300500Y-87699995D01*
X110194953Y-87699995D01*
X110194953Y-87700004D01*
X110215113Y-87969026D01*
X110215113Y-87969028D01*
X110275142Y-88232033D01*
X110275148Y-88232052D01*
X110373709Y-88483181D01*
X110423489Y-88569402D01*
X110423490Y-88569403D01*
X111292893Y-87700000D01*
X111228874Y-87635981D01*
X111350000Y-87635981D01*
X111350000Y-87764019D01*
X111374979Y-87889598D01*
X111423978Y-88007890D01*
X111495112Y-88114351D01*
X111585649Y-88204888D01*
X111692110Y-88276022D01*
X111810402Y-88325021D01*
X111935981Y-88350000D01*
X112064019Y-88350000D01*
X112189598Y-88325021D01*
X112307890Y-88276022D01*
X112414351Y-88204888D01*
X112504888Y-88114351D01*
X112576022Y-88007890D01*
X112625021Y-87889598D01*
X112650000Y-87764019D01*
X112650000Y-87699999D01*
X112707107Y-87699999D01*
X112707107Y-87700001D01*
X113576509Y-88569403D01*
X113576510Y-88569403D01*
X113626290Y-88483182D01*
X113626293Y-88483175D01*
X113724851Y-88232052D01*
X113724857Y-88232033D01*
X113784886Y-87969028D01*
X113784886Y-87969026D01*
X113792993Y-87860845D01*
X135699500Y-87860845D01*
X135699500Y-87960438D01*
X135699500Y-97952405D01*
X135699500Y-98000000D01*
X135699500Y-98139155D01*
X135733046Y-98415435D01*
X135759393Y-98522328D01*
X135799651Y-98685662D01*
X135898341Y-98945884D01*
X135983284Y-99107728D01*
X136027677Y-99192311D01*
X136185774Y-99421355D01*
X136370327Y-99629673D01*
X136578645Y-99814226D01*
X136807689Y-99972323D01*
X136962221Y-100053428D01*
X137054115Y-100101658D01*
X137314337Y-100200348D01*
X137314339Y-100200348D01*
X137314343Y-100200350D01*
X137584565Y-100266954D01*
X137798222Y-100292896D01*
X137860842Y-100300500D01*
X137860845Y-100300500D01*
X148139158Y-100300500D01*
X148197378Y-100293430D01*
X148415435Y-100266954D01*
X148685657Y-100200350D01*
X148945880Y-100101660D01*
X149192311Y-99972323D01*
X149421355Y-99814226D01*
X149629673Y-99629673D01*
X149814226Y-99421355D01*
X149972323Y-99192311D01*
X150101660Y-98945880D01*
X150200350Y-98685657D01*
X150266954Y-98415435D01*
X150300500Y-98139155D01*
X150300500Y-98000000D01*
X150300500Y-97952405D01*
X150300500Y-87960438D01*
X150300500Y-87860845D01*
X150266954Y-87584565D01*
X150200350Y-87314343D01*
X150155131Y-87195112D01*
X150101658Y-87054115D01*
X150013982Y-86887064D01*
X149972323Y-86807689D01*
X149814226Y-86578645D01*
X149629673Y-86370327D01*
X149421355Y-86185774D01*
X149192311Y-86027677D01*
X149107728Y-85983284D01*
X148945884Y-85898341D01*
X148685662Y-85799651D01*
X148621041Y-85783723D01*
X148415435Y-85733046D01*
X148277295Y-85716273D01*
X148139158Y-85699500D01*
X148139155Y-85699500D01*
X148039562Y-85699500D01*
X138047595Y-85699500D01*
X138000000Y-85699500D01*
X137860845Y-85699500D01*
X137860842Y-85699500D01*
X137695077Y-85719627D01*
X137584565Y-85733046D01*
X137447493Y-85766831D01*
X137314337Y-85799651D01*
X137054115Y-85898341D01*
X136807691Y-86027676D01*
X136807682Y-86027681D01*
X136578650Y-86185770D01*
X136370327Y-86370327D01*
X136185770Y-86578650D01*
X136027681Y-86807682D01*
X136027676Y-86807691D01*
X135898341Y-87054115D01*
X135799651Y-87314337D01*
X135733046Y-87584567D01*
X135711257Y-87764019D01*
X135699500Y-87860845D01*
X113792993Y-87860845D01*
X113805047Y-87700004D01*
X113805047Y-87699995D01*
X113784886Y-87430973D01*
X113784886Y-87430971D01*
X113724857Y-87167966D01*
X113724851Y-87167947D01*
X113626290Y-86916818D01*
X113576509Y-86830595D01*
X112707107Y-87699999D01*
X112650000Y-87699999D01*
X112650000Y-87635981D01*
X112625021Y-87510402D01*
X112576022Y-87392110D01*
X112504888Y-87285649D01*
X112414351Y-87195112D01*
X112307890Y-87123978D01*
X112189598Y-87074979D01*
X112064019Y-87050000D01*
X111935981Y-87050000D01*
X111810402Y-87074979D01*
X111692110Y-87123978D01*
X111585649Y-87195112D01*
X111495112Y-87285649D01*
X111423978Y-87392110D01*
X111374979Y-87510402D01*
X111350000Y-87635981D01*
X111228874Y-87635981D01*
X110423489Y-86830596D01*
X110373708Y-86916821D01*
X110373706Y-86916825D01*
X110275148Y-87167947D01*
X110275142Y-87167966D01*
X110215113Y-87430971D01*
X110215113Y-87430973D01*
X110194953Y-87699995D01*
X44300500Y-87699995D01*
X44300500Y-86121695D01*
X111128803Y-86121695D01*
X111128803Y-86121696D01*
X112000000Y-86992893D01*
X112000001Y-86992893D01*
X112871196Y-86121697D01*
X112871195Y-86121695D01*
X112659460Y-86019730D01*
X112659462Y-86019730D01*
X112401662Y-85940209D01*
X112401656Y-85940207D01*
X112134898Y-85900000D01*
X111865101Y-85900000D01*
X111598343Y-85940207D01*
X111598337Y-85940209D01*
X111340538Y-86019730D01*
X111128803Y-86121695D01*
X44300500Y-86121695D01*
X44300500Y-81272135D01*
X110199500Y-81272135D01*
X110199500Y-83967870D01*
X110199501Y-83967876D01*
X110205908Y-84027483D01*
X110256202Y-84162328D01*
X110256206Y-84162335D01*
X110342452Y-84277544D01*
X110342455Y-84277547D01*
X110457664Y-84363793D01*
X110457671Y-84363797D01*
X110592517Y-84414091D01*
X110592516Y-84414091D01*
X110599444Y-84414835D01*
X110652127Y-84420500D01*
X113347872Y-84420499D01*
X113407483Y-84414091D01*
X113542331Y-84363796D01*
X113657546Y-84277546D01*
X113743796Y-84162331D01*
X113794091Y-84027483D01*
X113800500Y-83967873D01*
X113800499Y-81272128D01*
X113794091Y-81212517D01*
X113743796Y-81077669D01*
X113743795Y-81077668D01*
X113743793Y-81077664D01*
X113657547Y-80962455D01*
X113657544Y-80962452D01*
X113542335Y-80876206D01*
X113542328Y-80876202D01*
X113407482Y-80825908D01*
X113407483Y-80825908D01*
X113347883Y-80819501D01*
X113347881Y-80819500D01*
X113347873Y-80819500D01*
X113347864Y-80819500D01*
X110652129Y-80819500D01*
X110652123Y-80819501D01*
X110592516Y-80825908D01*
X110457671Y-80876202D01*
X110457664Y-80876206D01*
X110342455Y-80962452D01*
X110342452Y-80962455D01*
X110256206Y-81077664D01*
X110256202Y-81077671D01*
X110205908Y-81212517D01*
X110199501Y-81272116D01*
X110199501Y-81272123D01*
X110199500Y-81272135D01*
X44300500Y-81272135D01*
X44300500Y-54957135D01*
X131404500Y-54957135D01*
X131404500Y-57652870D01*
X131404501Y-57652876D01*
X131410908Y-57712483D01*
X131461202Y-57847328D01*
X131461206Y-57847335D01*
X131547452Y-57962544D01*
X131547455Y-57962547D01*
X131662664Y-58048793D01*
X131662671Y-58048797D01*
X131797517Y-58099091D01*
X131797516Y-58099091D01*
X131804444Y-58099835D01*
X131857127Y-58105500D01*
X134552872Y-58105499D01*
X134612483Y-58099091D01*
X134747331Y-58048796D01*
X134862546Y-57962546D01*
X134921867Y-57883303D01*
X137413802Y-57883303D01*
X137625539Y-57985269D01*
X137625537Y-57985269D01*
X137883337Y-58064790D01*
X137883343Y-58064792D01*
X138150101Y-58104999D01*
X138150110Y-58105000D01*
X138419890Y-58105000D01*
X138419898Y-58104999D01*
X138686656Y-58064792D01*
X138686662Y-58064790D01*
X138944458Y-57985270D01*
X139156195Y-57883302D01*
X138285000Y-57012107D01*
X137413802Y-57883303D01*
X134921867Y-57883303D01*
X134948796Y-57847331D01*
X134999091Y-57712483D01*
X135005500Y-57652873D01*
X135005499Y-56304995D01*
X136479953Y-56304995D01*
X136479953Y-56305004D01*
X136500113Y-56574026D01*
X136500113Y-56574028D01*
X136560142Y-56837033D01*
X136560148Y-56837052D01*
X136658709Y-57088181D01*
X136708489Y-57174402D01*
X136708490Y-57174403D01*
X137577893Y-56305000D01*
X137513874Y-56240981D01*
X137635000Y-56240981D01*
X137635000Y-56369019D01*
X137659979Y-56494598D01*
X137708978Y-56612890D01*
X137780112Y-56719351D01*
X137870649Y-56809888D01*
X137977110Y-56881022D01*
X138095402Y-56930021D01*
X138220981Y-56955000D01*
X138349019Y-56955000D01*
X138474598Y-56930021D01*
X138592890Y-56881022D01*
X138699351Y-56809888D01*
X138789888Y-56719351D01*
X138861022Y-56612890D01*
X138910021Y-56494598D01*
X138935000Y-56369019D01*
X138935000Y-56304999D01*
X138992107Y-56304999D01*
X138992107Y-56305001D01*
X139861509Y-57174403D01*
X139861510Y-57174403D01*
X139911290Y-57088182D01*
X139911293Y-57088175D01*
X140009851Y-56837052D01*
X140009857Y-56837033D01*
X140069886Y-56574028D01*
X140069886Y-56574026D01*
X140090047Y-56305004D01*
X140090047Y-56304995D01*
X140069886Y-56035973D01*
X140069886Y-56035971D01*
X140009857Y-55772966D01*
X140009851Y-55772947D01*
X139911290Y-55521818D01*
X139861509Y-55435595D01*
X138992107Y-56304999D01*
X138935000Y-56304999D01*
X138935000Y-56240981D01*
X138910021Y-56115402D01*
X138861022Y-55997110D01*
X138789888Y-55890649D01*
X138699351Y-55800112D01*
X138592890Y-55728978D01*
X138474598Y-55679979D01*
X138349019Y-55655000D01*
X138220981Y-55655000D01*
X138095402Y-55679979D01*
X137977110Y-55728978D01*
X137870649Y-55800112D01*
X137780112Y-55890649D01*
X137708978Y-55997110D01*
X137659979Y-56115402D01*
X137635000Y-56240981D01*
X137513874Y-56240981D01*
X136708489Y-55435596D01*
X136658708Y-55521821D01*
X136658706Y-55521825D01*
X136560148Y-55772947D01*
X136560142Y-55772966D01*
X136500113Y-56035971D01*
X136500113Y-56035973D01*
X136479953Y-56304995D01*
X135005499Y-56304995D01*
X135005499Y-54957128D01*
X134999091Y-54897517D01*
X134948796Y-54762669D01*
X134948795Y-54762668D01*
X134948793Y-54762664D01*
X134921866Y-54726695D01*
X137413803Y-54726695D01*
X137413803Y-54726696D01*
X138285000Y-55597893D01*
X138285001Y-55597893D01*
X138925758Y-54957135D01*
X147404500Y-54957135D01*
X147404500Y-57652870D01*
X147404501Y-57652876D01*
X147410908Y-57712483D01*
X147461202Y-57847328D01*
X147461206Y-57847335D01*
X147547452Y-57962544D01*
X147547455Y-57962547D01*
X147662664Y-58048793D01*
X147662671Y-58048797D01*
X147797517Y-58099091D01*
X147797516Y-58099091D01*
X147804444Y-58099835D01*
X147857127Y-58105500D01*
X150552872Y-58105499D01*
X150612483Y-58099091D01*
X150747331Y-58048796D01*
X150862546Y-57962546D01*
X150921867Y-57883303D01*
X153413802Y-57883303D01*
X153625539Y-57985269D01*
X153625537Y-57985269D01*
X153883337Y-58064790D01*
X153883343Y-58064792D01*
X154150101Y-58104999D01*
X154150110Y-58105000D01*
X154419890Y-58105000D01*
X154419898Y-58104999D01*
X154686656Y-58064792D01*
X154686662Y-58064790D01*
X154944458Y-57985270D01*
X155156195Y-57883302D01*
X154285000Y-57012107D01*
X153413802Y-57883303D01*
X150921867Y-57883303D01*
X150948796Y-57847331D01*
X150999091Y-57712483D01*
X151005500Y-57652873D01*
X151005499Y-56304995D01*
X152479953Y-56304995D01*
X152479953Y-56305004D01*
X152500113Y-56574026D01*
X152500113Y-56574028D01*
X152560142Y-56837033D01*
X152560148Y-56837052D01*
X152658709Y-57088181D01*
X152708489Y-57174402D01*
X152708490Y-57174403D01*
X153577893Y-56305000D01*
X153513874Y-56240981D01*
X153635000Y-56240981D01*
X153635000Y-56369019D01*
X153659979Y-56494598D01*
X153708978Y-56612890D01*
X153780112Y-56719351D01*
X153870649Y-56809888D01*
X153977110Y-56881022D01*
X154095402Y-56930021D01*
X154220981Y-56955000D01*
X154349019Y-56955000D01*
X154474598Y-56930021D01*
X154592890Y-56881022D01*
X154699351Y-56809888D01*
X154789888Y-56719351D01*
X154861022Y-56612890D01*
X154910021Y-56494598D01*
X154935000Y-56369019D01*
X154935000Y-56304999D01*
X154992107Y-56304999D01*
X154992107Y-56305001D01*
X155861509Y-57174403D01*
X155861510Y-57174403D01*
X155911290Y-57088182D01*
X155911293Y-57088175D01*
X156009851Y-56837052D01*
X156009857Y-56837033D01*
X156069886Y-56574028D01*
X156069886Y-56574026D01*
X156090047Y-56305004D01*
X156090047Y-56304995D01*
X156069886Y-56035973D01*
X156069886Y-56035971D01*
X156009857Y-55772966D01*
X156009851Y-55772947D01*
X155911290Y-55521818D01*
X155861509Y-55435595D01*
X154992107Y-56304999D01*
X154935000Y-56304999D01*
X154935000Y-56240981D01*
X154910021Y-56115402D01*
X154861022Y-55997110D01*
X154789888Y-55890649D01*
X154699351Y-55800112D01*
X154592890Y-55728978D01*
X154474598Y-55679979D01*
X154349019Y-55655000D01*
X154220981Y-55655000D01*
X154095402Y-55679979D01*
X153977110Y-55728978D01*
X153870649Y-55800112D01*
X153780112Y-55890649D01*
X153708978Y-55997110D01*
X153659979Y-56115402D01*
X153635000Y-56240981D01*
X153513874Y-56240981D01*
X152708489Y-55435596D01*
X152658708Y-55521821D01*
X152658706Y-55521825D01*
X152560148Y-55772947D01*
X152560142Y-55772966D01*
X152500113Y-56035971D01*
X152500113Y-56035973D01*
X152479953Y-56304995D01*
X151005499Y-56304995D01*
X151005499Y-54957128D01*
X150999091Y-54897517D01*
X150948796Y-54762669D01*
X150948795Y-54762668D01*
X150948793Y-54762664D01*
X150921866Y-54726695D01*
X153413803Y-54726695D01*
X153413803Y-54726696D01*
X154285000Y-55597893D01*
X154285001Y-55597893D01*
X154804590Y-55078303D01*
X187628802Y-55078303D01*
X187840539Y-55180269D01*
X187840537Y-55180269D01*
X188098337Y-55259790D01*
X188098343Y-55259792D01*
X188365101Y-55299999D01*
X188365110Y-55300000D01*
X188634890Y-55300000D01*
X188634898Y-55299999D01*
X188901656Y-55259792D01*
X188901662Y-55259790D01*
X189159458Y-55180270D01*
X189371195Y-55078302D01*
X188500000Y-54207107D01*
X187628802Y-55078303D01*
X154804590Y-55078303D01*
X155156196Y-54726697D01*
X155156195Y-54726695D01*
X154944460Y-54624730D01*
X154944462Y-54624730D01*
X154686662Y-54545209D01*
X154686656Y-54545207D01*
X154419898Y-54505000D01*
X154150101Y-54505000D01*
X153883343Y-54545207D01*
X153883337Y-54545209D01*
X153625538Y-54624730D01*
X153413803Y-54726695D01*
X150921866Y-54726695D01*
X150862547Y-54647455D01*
X150862544Y-54647452D01*
X150747335Y-54561206D01*
X150747328Y-54561202D01*
X150612482Y-54510908D01*
X150612483Y-54510908D01*
X150552883Y-54504501D01*
X150552881Y-54504500D01*
X150552873Y-54504500D01*
X150552864Y-54504500D01*
X147857129Y-54504500D01*
X147857123Y-54504501D01*
X147797516Y-54510908D01*
X147662671Y-54561202D01*
X147662664Y-54561206D01*
X147547455Y-54647452D01*
X147547452Y-54647455D01*
X147461206Y-54762664D01*
X147461202Y-54762671D01*
X147410908Y-54897517D01*
X147404501Y-54957116D01*
X147404501Y-54957123D01*
X147404500Y-54957135D01*
X138925758Y-54957135D01*
X139156196Y-54726697D01*
X139156195Y-54726695D01*
X138944460Y-54624730D01*
X138944462Y-54624730D01*
X138686662Y-54545209D01*
X138686656Y-54545207D01*
X138419898Y-54505000D01*
X138150101Y-54505000D01*
X137883343Y-54545207D01*
X137883337Y-54545209D01*
X137625538Y-54624730D01*
X137413803Y-54726695D01*
X134921866Y-54726695D01*
X134862547Y-54647455D01*
X134862544Y-54647452D01*
X134747335Y-54561206D01*
X134747328Y-54561202D01*
X134612482Y-54510908D01*
X134612483Y-54510908D01*
X134552883Y-54504501D01*
X134552881Y-54504500D01*
X134552873Y-54504500D01*
X134552864Y-54504500D01*
X131857129Y-54504500D01*
X131857123Y-54504501D01*
X131797516Y-54510908D01*
X131662671Y-54561202D01*
X131662664Y-54561206D01*
X131547455Y-54647452D01*
X131547452Y-54647455D01*
X131461206Y-54762664D01*
X131461202Y-54762671D01*
X131410908Y-54897517D01*
X131404501Y-54957116D01*
X131404501Y-54957123D01*
X131404500Y-54957135D01*
X44300500Y-54957135D01*
X44300500Y-53499995D01*
X186694953Y-53499995D01*
X186694953Y-53500004D01*
X186715113Y-53769026D01*
X186715113Y-53769028D01*
X186775142Y-54032033D01*
X186775148Y-54032052D01*
X186873709Y-54283181D01*
X186923489Y-54369402D01*
X186923490Y-54369403D01*
X187792893Y-53500000D01*
X187728874Y-53435981D01*
X187850000Y-53435981D01*
X187850000Y-53564019D01*
X187874979Y-53689598D01*
X187923978Y-53807890D01*
X187995112Y-53914351D01*
X188085649Y-54004888D01*
X188192110Y-54076022D01*
X188310402Y-54125021D01*
X188435981Y-54150000D01*
X188564019Y-54150000D01*
X188689598Y-54125021D01*
X188807890Y-54076022D01*
X188914351Y-54004888D01*
X189004888Y-53914351D01*
X189076022Y-53807890D01*
X189125021Y-53689598D01*
X189150000Y-53564019D01*
X189150000Y-53499999D01*
X189207107Y-53499999D01*
X189207107Y-53500001D01*
X190076509Y-54369403D01*
X190076510Y-54369403D01*
X190126290Y-54283182D01*
X190126293Y-54283175D01*
X190224851Y-54032052D01*
X190224857Y-54032033D01*
X190284886Y-53769028D01*
X190284886Y-53769026D01*
X190305047Y-53500004D01*
X190305047Y-53499995D01*
X190284886Y-53230973D01*
X190284886Y-53230971D01*
X190224857Y-52967966D01*
X190224851Y-52967947D01*
X190126290Y-52716818D01*
X190076509Y-52630595D01*
X189207107Y-53499999D01*
X189150000Y-53499999D01*
X189150000Y-53435981D01*
X189125021Y-53310402D01*
X189076022Y-53192110D01*
X189004888Y-53085649D01*
X188914351Y-52995112D01*
X188807890Y-52923978D01*
X188689598Y-52874979D01*
X188564019Y-52850000D01*
X188435981Y-52850000D01*
X188310402Y-52874979D01*
X188192110Y-52923978D01*
X188085649Y-52995112D01*
X187995112Y-53085649D01*
X187923978Y-53192110D01*
X187874979Y-53310402D01*
X187850000Y-53435981D01*
X187728874Y-53435981D01*
X186923489Y-52630596D01*
X186873708Y-52716821D01*
X186873706Y-52716825D01*
X186775148Y-52967947D01*
X186775142Y-52967966D01*
X186715113Y-53230971D01*
X186715113Y-53230973D01*
X186694953Y-53499995D01*
X44300500Y-53499995D01*
X44300500Y-51921695D01*
X187628803Y-51921695D01*
X187628803Y-51921696D01*
X188500000Y-52792893D01*
X188500001Y-52792893D01*
X189140758Y-52152135D01*
X191779500Y-52152135D01*
X191779500Y-54847870D01*
X191779501Y-54847876D01*
X191785908Y-54907483D01*
X191836202Y-55042328D01*
X191836206Y-55042335D01*
X191922452Y-55157544D01*
X191922455Y-55157547D01*
X192037664Y-55243793D01*
X192037671Y-55243797D01*
X192172517Y-55294091D01*
X192172516Y-55294091D01*
X192179444Y-55294835D01*
X192232127Y-55300500D01*
X194927872Y-55300499D01*
X194987483Y-55294091D01*
X195122331Y-55243796D01*
X195237546Y-55157546D01*
X195323796Y-55042331D01*
X195374091Y-54907483D01*
X195380500Y-54847873D01*
X195380499Y-52152128D01*
X195374091Y-52092517D01*
X195323796Y-51957669D01*
X195323795Y-51957668D01*
X195323793Y-51957664D01*
X195237547Y-51842455D01*
X195237544Y-51842452D01*
X195122335Y-51756206D01*
X195122328Y-51756202D01*
X194987482Y-51705908D01*
X194987483Y-51705908D01*
X194927883Y-51699501D01*
X194927881Y-51699500D01*
X194927873Y-51699500D01*
X194927864Y-51699500D01*
X192232129Y-51699500D01*
X192232123Y-51699501D01*
X192172516Y-51705908D01*
X192037671Y-51756202D01*
X192037664Y-51756206D01*
X191922455Y-51842452D01*
X191922452Y-51842455D01*
X191836206Y-51957664D01*
X191836202Y-51957671D01*
X191785908Y-52092517D01*
X191779501Y-52152116D01*
X191779501Y-52152123D01*
X191779500Y-52152135D01*
X189140758Y-52152135D01*
X189371196Y-51921697D01*
X189371195Y-51921695D01*
X189159460Y-51819730D01*
X189159462Y-51819730D01*
X188901662Y-51740209D01*
X188901656Y-51740207D01*
X188634898Y-51700000D01*
X188365101Y-51700000D01*
X188098343Y-51740207D01*
X188098337Y-51740209D01*
X187840538Y-51819730D01*
X187628803Y-51921695D01*
X44300500Y-51921695D01*
X44300500Y-41188303D01*
X132788802Y-41188303D01*
X133000539Y-41290269D01*
X133000537Y-41290269D01*
X133258337Y-41369790D01*
X133258343Y-41369792D01*
X133525101Y-41409999D01*
X133525110Y-41410000D01*
X133794890Y-41410000D01*
X133794898Y-41409999D01*
X134061656Y-41369792D01*
X134061662Y-41369790D01*
X134319458Y-41290270D01*
X134531195Y-41188302D01*
X133660000Y-40317107D01*
X132788802Y-41188303D01*
X44300500Y-41188303D01*
X44300500Y-39609995D01*
X131854953Y-39609995D01*
X131854953Y-39610004D01*
X131875113Y-39879026D01*
X131875113Y-39879028D01*
X131935142Y-40142033D01*
X131935148Y-40142052D01*
X132033709Y-40393181D01*
X132083489Y-40479402D01*
X132083490Y-40479403D01*
X132952893Y-39610000D01*
X132888874Y-39545981D01*
X133010000Y-39545981D01*
X133010000Y-39674019D01*
X133034979Y-39799598D01*
X133083978Y-39917890D01*
X133155112Y-40024351D01*
X133245649Y-40114888D01*
X133352110Y-40186022D01*
X133470402Y-40235021D01*
X133595981Y-40260000D01*
X133724019Y-40260000D01*
X133849598Y-40235021D01*
X133967890Y-40186022D01*
X134074351Y-40114888D01*
X134164888Y-40024351D01*
X134236022Y-39917890D01*
X134285021Y-39799598D01*
X134310000Y-39674019D01*
X134310000Y-39609999D01*
X134367107Y-39609999D01*
X134367107Y-39610001D01*
X135236509Y-40479403D01*
X135236510Y-40479403D01*
X135286290Y-40393182D01*
X135286293Y-40393175D01*
X135384851Y-40142052D01*
X135384857Y-40142033D01*
X135444886Y-39879028D01*
X135444886Y-39879026D01*
X135465047Y-39610004D01*
X135465047Y-39609995D01*
X135444886Y-39340973D01*
X135444886Y-39340971D01*
X135384857Y-39077966D01*
X135384851Y-39077947D01*
X135286290Y-38826818D01*
X135236509Y-38740595D01*
X134367107Y-39609999D01*
X134310000Y-39609999D01*
X134310000Y-39545981D01*
X134285021Y-39420402D01*
X134236022Y-39302110D01*
X134164888Y-39195649D01*
X134074351Y-39105112D01*
X133967890Y-39033978D01*
X133849598Y-38984979D01*
X133724019Y-38960000D01*
X133595981Y-38960000D01*
X133470402Y-38984979D01*
X133352110Y-39033978D01*
X133245649Y-39105112D01*
X133155112Y-39195649D01*
X133083978Y-39302110D01*
X133034979Y-39420402D01*
X133010000Y-39545981D01*
X132888874Y-39545981D01*
X132083489Y-38740596D01*
X132033708Y-38826821D01*
X132033706Y-38826825D01*
X131935148Y-39077947D01*
X131935142Y-39077966D01*
X131875113Y-39340971D01*
X131875113Y-39340973D01*
X131854953Y-39609995D01*
X44300500Y-39609995D01*
X44300500Y-38031695D01*
X132788803Y-38031695D01*
X132788803Y-38031696D01*
X133660000Y-38902893D01*
X133660001Y-38902893D01*
X134300758Y-38262135D01*
X136939500Y-38262135D01*
X136939500Y-40957870D01*
X136939501Y-40957876D01*
X136945908Y-41017483D01*
X136996202Y-41152328D01*
X136996206Y-41152335D01*
X137082452Y-41267544D01*
X137082455Y-41267547D01*
X137197664Y-41353793D01*
X137197671Y-41353797D01*
X137332517Y-41404091D01*
X137332516Y-41404091D01*
X137339444Y-41404835D01*
X137392127Y-41410500D01*
X140087872Y-41410499D01*
X140147483Y-41404091D01*
X140203219Y-41383303D01*
X148333802Y-41383303D01*
X148545539Y-41485269D01*
X148545537Y-41485269D01*
X148803337Y-41564790D01*
X148803343Y-41564792D01*
X149070101Y-41604999D01*
X149070110Y-41605000D01*
X149339890Y-41605000D01*
X149339898Y-41604999D01*
X149606656Y-41564792D01*
X149606662Y-41564790D01*
X149864458Y-41485270D01*
X150076195Y-41383302D01*
X149205000Y-40512107D01*
X148333802Y-41383303D01*
X140203219Y-41383303D01*
X140282331Y-41353796D01*
X140397546Y-41267546D01*
X140483796Y-41152331D01*
X140534091Y-41017483D01*
X140540500Y-40957873D01*
X140540500Y-39804995D01*
X147399953Y-39804995D01*
X147399953Y-39805004D01*
X147420113Y-40074026D01*
X147420113Y-40074028D01*
X147480142Y-40337033D01*
X147480148Y-40337052D01*
X147578709Y-40588181D01*
X147628489Y-40674402D01*
X147628490Y-40674403D01*
X148497893Y-39805000D01*
X148433874Y-39740981D01*
X148555000Y-39740981D01*
X148555000Y-39869019D01*
X148579979Y-39994598D01*
X148628978Y-40112890D01*
X148700112Y-40219351D01*
X148790649Y-40309888D01*
X148897110Y-40381022D01*
X149015402Y-40430021D01*
X149140981Y-40455000D01*
X149269019Y-40455000D01*
X149394598Y-40430021D01*
X149512890Y-40381022D01*
X149619351Y-40309888D01*
X149709888Y-40219351D01*
X149781022Y-40112890D01*
X149830021Y-39994598D01*
X149855000Y-39869019D01*
X149855000Y-39804999D01*
X149912107Y-39804999D01*
X149912107Y-39805001D01*
X150781509Y-40674403D01*
X150781510Y-40674403D01*
X150831290Y-40588182D01*
X150831293Y-40588175D01*
X150929851Y-40337052D01*
X150929857Y-40337033D01*
X150989886Y-40074028D01*
X150989886Y-40074026D01*
X151010047Y-39805004D01*
X151010047Y-39804995D01*
X150989886Y-39535973D01*
X150989886Y-39535971D01*
X150929857Y-39272966D01*
X150929851Y-39272947D01*
X150831290Y-39021818D01*
X150781509Y-38935595D01*
X149912107Y-39804999D01*
X149855000Y-39804999D01*
X149855000Y-39740981D01*
X149830021Y-39615402D01*
X149781022Y-39497110D01*
X149709888Y-39390649D01*
X149619351Y-39300112D01*
X149512890Y-39228978D01*
X149394598Y-39179979D01*
X149269019Y-39155000D01*
X149140981Y-39155000D01*
X149015402Y-39179979D01*
X148897110Y-39228978D01*
X148790649Y-39300112D01*
X148700112Y-39390649D01*
X148628978Y-39497110D01*
X148579979Y-39615402D01*
X148555000Y-39740981D01*
X148433874Y-39740981D01*
X147628489Y-38935596D01*
X147578708Y-39021821D01*
X147578706Y-39021825D01*
X147480148Y-39272947D01*
X147480142Y-39272966D01*
X147420113Y-39535971D01*
X147420113Y-39535973D01*
X147399953Y-39804995D01*
X140540500Y-39804995D01*
X140540499Y-38262128D01*
X140536690Y-38226695D01*
X148333803Y-38226695D01*
X148333803Y-38226696D01*
X149205000Y-39097893D01*
X149205001Y-39097893D01*
X149845758Y-38457135D01*
X152484500Y-38457135D01*
X152484500Y-41152870D01*
X152484501Y-41152876D01*
X152490908Y-41212483D01*
X152541202Y-41347328D01*
X152541206Y-41347335D01*
X152627452Y-41462544D01*
X152627455Y-41462547D01*
X152742664Y-41548793D01*
X152742671Y-41548797D01*
X152877517Y-41599091D01*
X152877516Y-41599091D01*
X152884444Y-41599835D01*
X152937127Y-41605500D01*
X155632872Y-41605499D01*
X155692483Y-41599091D01*
X155827331Y-41548796D01*
X155942546Y-41462546D01*
X156028796Y-41347331D01*
X156079091Y-41212483D01*
X156085500Y-41152873D01*
X156085499Y-38457128D01*
X156079091Y-38397517D01*
X156028796Y-38262669D01*
X156028795Y-38262668D01*
X156028793Y-38262664D01*
X155942547Y-38147455D01*
X155942544Y-38147452D01*
X155827335Y-38061206D01*
X155827328Y-38061202D01*
X155692482Y-38010908D01*
X155692483Y-38010908D01*
X155632883Y-38004501D01*
X155632881Y-38004500D01*
X155632873Y-38004500D01*
X155632864Y-38004500D01*
X152937129Y-38004500D01*
X152937123Y-38004501D01*
X152877516Y-38010908D01*
X152742671Y-38061202D01*
X152742664Y-38061206D01*
X152627455Y-38147452D01*
X152627452Y-38147455D01*
X152541206Y-38262664D01*
X152541202Y-38262671D01*
X152490908Y-38397517D01*
X152484501Y-38457116D01*
X152484501Y-38457123D01*
X152484500Y-38457135D01*
X149845758Y-38457135D01*
X150076196Y-38226697D01*
X150076195Y-38226695D01*
X149864460Y-38124730D01*
X149864462Y-38124730D01*
X149606662Y-38045209D01*
X149606656Y-38045207D01*
X149339898Y-38005000D01*
X149070101Y-38005000D01*
X148803343Y-38045207D01*
X148803337Y-38045209D01*
X148545538Y-38124730D01*
X148333803Y-38226695D01*
X140536690Y-38226695D01*
X140534091Y-38202517D01*
X140513554Y-38147455D01*
X140483797Y-38067671D01*
X140483793Y-38067664D01*
X140397547Y-37952455D01*
X140397544Y-37952452D01*
X140282335Y-37866206D01*
X140282328Y-37866202D01*
X140147482Y-37815908D01*
X140147483Y-37815908D01*
X140087883Y-37809501D01*
X140087881Y-37809500D01*
X140087873Y-37809500D01*
X140087864Y-37809500D01*
X137392129Y-37809500D01*
X137392123Y-37809501D01*
X137332516Y-37815908D01*
X137197671Y-37866202D01*
X137197664Y-37866206D01*
X137082455Y-37952452D01*
X137082452Y-37952455D01*
X136996206Y-38067664D01*
X136996202Y-38067671D01*
X136945908Y-38202517D01*
X136943309Y-38226695D01*
X136939501Y-38262123D01*
X136939500Y-38262135D01*
X134300758Y-38262135D01*
X134531196Y-38031697D01*
X134531195Y-38031695D01*
X134319460Y-37929730D01*
X134319462Y-37929730D01*
X134061662Y-37850209D01*
X134061656Y-37850207D01*
X133794898Y-37810000D01*
X133525101Y-37810000D01*
X133258343Y-37850207D01*
X133258337Y-37850209D01*
X133000538Y-37929730D01*
X132788803Y-38031695D01*
X44300500Y-38031695D01*
X44300500Y-36165478D01*
X232921625Y-36165478D01*
X232950844Y-36179104D01*
X233162105Y-36235710D01*
X233162115Y-36235712D01*
X233379999Y-36254775D01*
X233380001Y-36254775D01*
X233597884Y-36235712D01*
X233597891Y-36235711D01*
X233809159Y-36179101D01*
X233838373Y-36165478D01*
X233376531Y-35703636D01*
X233363350Y-35712443D01*
X233360315Y-35722781D01*
X233343681Y-35743423D01*
X232921625Y-36165478D01*
X44300500Y-36165478D01*
X44300500Y-34947844D01*
X215075000Y-34947844D01*
X215081401Y-35007372D01*
X215081403Y-35007379D01*
X215131645Y-35142086D01*
X215131649Y-35142093D01*
X215217809Y-35257187D01*
X215217812Y-35257190D01*
X215332906Y-35343350D01*
X215332913Y-35343354D01*
X215467620Y-35393596D01*
X215467627Y-35393598D01*
X215527155Y-35399999D01*
X215527172Y-35400000D01*
X215975000Y-35400000D01*
X216975000Y-35400000D01*
X217422828Y-35400000D01*
X217422844Y-35399999D01*
X217482372Y-35393598D01*
X217482379Y-35393596D01*
X217617086Y-35343354D01*
X217617093Y-35343350D01*
X217732187Y-35257190D01*
X217732190Y-35257187D01*
X217818350Y-35142093D01*
X217818354Y-35142086D01*
X217868596Y-35007379D01*
X217868598Y-35007372D01*
X217869391Y-34999999D01*
X232125225Y-34999999D01*
X232125225Y-35000000D01*
X232144287Y-35217884D01*
X232144289Y-35217894D01*
X232200894Y-35429150D01*
X232214520Y-35458372D01*
X232672893Y-34999999D01*
X232672892Y-34999998D01*
X232605751Y-34932857D01*
X232870000Y-34932857D01*
X232870000Y-35067143D01*
X232904755Y-35196853D01*
X232971898Y-35313147D01*
X233066853Y-35408102D01*
X233183147Y-35475245D01*
X233312857Y-35510000D01*
X233447143Y-35510000D01*
X233576853Y-35475245D01*
X233693147Y-35408102D01*
X233788102Y-35313147D01*
X233855245Y-35196853D01*
X233890000Y-35067143D01*
X233890000Y-34996531D01*
X234083636Y-34996531D01*
X234545478Y-35458373D01*
X234559101Y-35429159D01*
X234615711Y-35217891D01*
X234615712Y-35217884D01*
X234634775Y-35000000D01*
X234634775Y-34999999D01*
X234615712Y-34782115D01*
X234615710Y-34782105D01*
X234559104Y-34570844D01*
X234545478Y-34541625D01*
X234123424Y-34963681D01*
X234095339Y-34979016D01*
X234083636Y-34996531D01*
X233890000Y-34996531D01*
X233890000Y-34932857D01*
X233855245Y-34803147D01*
X233788102Y-34686853D01*
X233693147Y-34591898D01*
X233576853Y-34524755D01*
X233447143Y-34490000D01*
X233312857Y-34490000D01*
X233183147Y-34524755D01*
X233066853Y-34591898D01*
X232971898Y-34686853D01*
X232904755Y-34803147D01*
X232870000Y-34932857D01*
X232605751Y-34932857D01*
X232214520Y-34541625D01*
X232214519Y-34541626D01*
X232200897Y-34570839D01*
X232200897Y-34570841D01*
X232144289Y-34782105D01*
X232144287Y-34782115D01*
X232125225Y-34999999D01*
X217869391Y-34999999D01*
X217874999Y-34947844D01*
X217875000Y-34947827D01*
X217875000Y-34500000D01*
X216975000Y-34500000D01*
X216975000Y-35400000D01*
X215975000Y-35400000D01*
X215975000Y-34500000D01*
X215075000Y-34500000D01*
X215075000Y-34947844D01*
X44300500Y-34947844D01*
X44300500Y-32749998D01*
X192074532Y-32749998D01*
X192074532Y-32750001D01*
X192094364Y-32976686D01*
X192094366Y-32976697D01*
X192153258Y-33196488D01*
X192153261Y-33196497D01*
X192249431Y-33402732D01*
X192249432Y-33402734D01*
X192379954Y-33589141D01*
X192540858Y-33750045D01*
X192540861Y-33750047D01*
X192727266Y-33880568D01*
X192933504Y-33976739D01*
X193153308Y-34035635D01*
X193315230Y-34049801D01*
X193379998Y-34055468D01*
X193380000Y-34055468D01*
X193380002Y-34055468D01*
X193436673Y-34050509D01*
X193606692Y-34035635D01*
X193826496Y-33976739D01*
X194032734Y-33880568D01*
X194219139Y-33750047D01*
X194380047Y-33589139D01*
X194510568Y-33402734D01*
X194606739Y-33196496D01*
X194665635Y-32976692D01*
X194685468Y-32750000D01*
X194685468Y-32749998D01*
X207314532Y-32749998D01*
X207314532Y-32750001D01*
X207334364Y-32976686D01*
X207334366Y-32976697D01*
X207393258Y-33196488D01*
X207393261Y-33196497D01*
X207489431Y-33402732D01*
X207489432Y-33402734D01*
X207619954Y-33589141D01*
X207780858Y-33750045D01*
X207780861Y-33750047D01*
X207967266Y-33880568D01*
X208173504Y-33976739D01*
X208393308Y-34035635D01*
X208555230Y-34049801D01*
X208619998Y-34055468D01*
X208620000Y-34055468D01*
X208620002Y-34055468D01*
X208676673Y-34050509D01*
X208846692Y-34035635D01*
X209066496Y-33976739D01*
X209143661Y-33940756D01*
X216025000Y-33940756D01*
X216025000Y-34059244D01*
X216055667Y-34173694D01*
X216114910Y-34276306D01*
X216198694Y-34360090D01*
X216301306Y-34419333D01*
X216415756Y-34450000D01*
X216534244Y-34450000D01*
X216534304Y-34449984D01*
X235129500Y-34449984D01*
X235129500Y-35550015D01*
X235140000Y-35652795D01*
X235140001Y-35652797D01*
X235159766Y-35712443D01*
X235195186Y-35819335D01*
X235195187Y-35819337D01*
X235287286Y-35968651D01*
X235287289Y-35968655D01*
X235411344Y-36092710D01*
X235411348Y-36092713D01*
X235560662Y-36184812D01*
X235560664Y-36184813D01*
X235560666Y-36184814D01*
X235727203Y-36239999D01*
X235829992Y-36250500D01*
X235829997Y-36250500D01*
X236930003Y-36250500D01*
X236930008Y-36250500D01*
X237032797Y-36239999D01*
X237199334Y-36184814D01*
X237348655Y-36092711D01*
X237472711Y-35968655D01*
X237564814Y-35819334D01*
X237619999Y-35652797D01*
X237630500Y-35550008D01*
X237630500Y-34449992D01*
X237619999Y-34347203D01*
X237564814Y-34180666D01*
X237492783Y-34063887D01*
X237472713Y-34031348D01*
X237472710Y-34031344D01*
X237348655Y-33907289D01*
X237348651Y-33907286D01*
X237199337Y-33815187D01*
X237199335Y-33815186D01*
X237116065Y-33787593D01*
X237032797Y-33760001D01*
X237032795Y-33760000D01*
X236930015Y-33749500D01*
X236930008Y-33749500D01*
X235829992Y-33749500D01*
X235829984Y-33749500D01*
X235727204Y-33760000D01*
X235727203Y-33760001D01*
X235560664Y-33815186D01*
X235560662Y-33815187D01*
X235411348Y-33907286D01*
X235411344Y-33907289D01*
X235287289Y-34031344D01*
X235287286Y-34031348D01*
X235195187Y-34180662D01*
X235195186Y-34180664D01*
X235140001Y-34347203D01*
X235140000Y-34347204D01*
X235129500Y-34449984D01*
X216534304Y-34449984D01*
X216648694Y-34419333D01*
X216751306Y-34360090D01*
X216835090Y-34276306D01*
X216894333Y-34173694D01*
X216925000Y-34059244D01*
X216925000Y-33940756D01*
X216896534Y-33834520D01*
X232921625Y-33834520D01*
X233379998Y-34292892D01*
X233379999Y-34292893D01*
X233380000Y-34292893D01*
X233380000Y-34292892D01*
X233838372Y-33834520D01*
X233809150Y-33820894D01*
X233597894Y-33764289D01*
X233597884Y-33764287D01*
X233380001Y-33745225D01*
X233379999Y-33745225D01*
X233162115Y-33764287D01*
X233162105Y-33764289D01*
X232950841Y-33820897D01*
X232950839Y-33820897D01*
X232921626Y-33834519D01*
X232921625Y-33834520D01*
X216896534Y-33834520D01*
X216894333Y-33826306D01*
X216835090Y-33723694D01*
X216751306Y-33639910D01*
X216648694Y-33580667D01*
X216534244Y-33550000D01*
X216415756Y-33550000D01*
X216301306Y-33580667D01*
X216198694Y-33639910D01*
X216114910Y-33723694D01*
X216055667Y-33826306D01*
X216025000Y-33940756D01*
X209143661Y-33940756D01*
X209272734Y-33880568D01*
X209459139Y-33750047D01*
X209620047Y-33589139D01*
X209750568Y-33402734D01*
X209846739Y-33196496D01*
X209905635Y-32976692D01*
X209925468Y-32750000D01*
X209905635Y-32523308D01*
X209846739Y-32303504D01*
X209750568Y-32097266D01*
X209631107Y-31926656D01*
X209620045Y-31910858D01*
X209459141Y-31749954D01*
X209272734Y-31619432D01*
X209272732Y-31619431D01*
X209066497Y-31523261D01*
X209066488Y-31523258D01*
X208846697Y-31464366D01*
X208846693Y-31464365D01*
X208846692Y-31464365D01*
X208846691Y-31464364D01*
X208846686Y-31464364D01*
X208796725Y-31459993D01*
X215069700Y-31459993D01*
X215069700Y-31460006D01*
X215088864Y-31691297D01*
X215088866Y-31691308D01*
X215145842Y-31916300D01*
X215239075Y-32128848D01*
X215366018Y-32323150D01*
X215461167Y-32426510D01*
X215492089Y-32489164D01*
X215484228Y-32558590D01*
X215440081Y-32612746D01*
X215413271Y-32626674D01*
X215332911Y-32656646D01*
X215332906Y-32656649D01*
X215217812Y-32742809D01*
X215217809Y-32742812D01*
X215131649Y-32857906D01*
X215131645Y-32857913D01*
X215081403Y-32992620D01*
X215081401Y-32992627D01*
X215075000Y-33052155D01*
X215075000Y-33500000D01*
X217875000Y-33500000D01*
X217875000Y-33385258D01*
X238949500Y-33385258D01*
X238949500Y-33614741D01*
X238974446Y-33804215D01*
X238979452Y-33842238D01*
X239031272Y-34035635D01*
X239038842Y-34063887D01*
X239126650Y-34275876D01*
X239126657Y-34275890D01*
X239241392Y-34474617D01*
X239381081Y-34656661D01*
X239381089Y-34656670D01*
X239543330Y-34818911D01*
X239543338Y-34818918D01*
X239725382Y-34958607D01*
X239725385Y-34958608D01*
X239725388Y-34958611D01*
X239924112Y-35073344D01*
X239924117Y-35073346D01*
X239924123Y-35073349D01*
X240015480Y-35111190D01*
X240136113Y-35161158D01*
X240357762Y-35220548D01*
X240585266Y-35250500D01*
X240585273Y-35250500D01*
X240814727Y-35250500D01*
X240814734Y-35250500D01*
X241042238Y-35220548D01*
X241263887Y-35161158D01*
X241475888Y-35073344D01*
X241674612Y-34958611D01*
X241856661Y-34818919D01*
X241856665Y-34818914D01*
X241856670Y-34818911D01*
X242018911Y-34656670D01*
X242018914Y-34656665D01*
X242018919Y-34656661D01*
X242158611Y-34474612D01*
X242273344Y-34275888D01*
X242361158Y-34063887D01*
X242420548Y-33842238D01*
X242450500Y-33614734D01*
X242450500Y-33385266D01*
X242420548Y-33157762D01*
X242361158Y-32936113D01*
X242284068Y-32750001D01*
X242273349Y-32724123D01*
X242273346Y-32724117D01*
X242273344Y-32724112D01*
X242158611Y-32525388D01*
X242158608Y-32525385D01*
X242158607Y-32525382D01*
X242018918Y-32343338D01*
X242018911Y-32343330D01*
X241856670Y-32181089D01*
X241856661Y-32181081D01*
X241674617Y-32041392D01*
X241475890Y-31926657D01*
X241475876Y-31926650D01*
X241263887Y-31838842D01*
X241042238Y-31779452D01*
X241004215Y-31774446D01*
X240814741Y-31749500D01*
X240814734Y-31749500D01*
X240585266Y-31749500D01*
X240585258Y-31749500D01*
X240368715Y-31778009D01*
X240357762Y-31779452D01*
X240269330Y-31803147D01*
X240136112Y-31838842D01*
X239924123Y-31926650D01*
X239924109Y-31926657D01*
X239725382Y-32041392D01*
X239543338Y-32181081D01*
X239381081Y-32343338D01*
X239241392Y-32525382D01*
X239126657Y-32724109D01*
X239126650Y-32724123D01*
X239038842Y-32936112D01*
X238979453Y-33157759D01*
X238979451Y-33157770D01*
X238949500Y-33385258D01*
X217875000Y-33385258D01*
X217875000Y-33052172D01*
X217874999Y-33052155D01*
X217868598Y-32992627D01*
X217868596Y-32992620D01*
X217818354Y-32857913D01*
X217818350Y-32857906D01*
X217732190Y-32742812D01*
X217732187Y-32742809D01*
X217617093Y-32656649D01*
X217617086Y-32656645D01*
X217536729Y-32626674D01*
X217480795Y-32584803D01*
X217456378Y-32519338D01*
X217471230Y-32451065D01*
X217488826Y-32426516D01*
X217583979Y-32323153D01*
X217710924Y-32128849D01*
X217767443Y-32000000D01*
X232124723Y-32000000D01*
X232143785Y-32217891D01*
X232143793Y-32217975D01*
X232143793Y-32217979D01*
X232200422Y-32429322D01*
X232200424Y-32429326D01*
X232200425Y-32429330D01*
X232213968Y-32458372D01*
X232292897Y-32627638D01*
X232313208Y-32656645D01*
X232418402Y-32806877D01*
X232573123Y-32961598D01*
X232752361Y-33087102D01*
X232950670Y-33179575D01*
X233162023Y-33236207D01*
X233344926Y-33252208D01*
X233379998Y-33255277D01*
X233380000Y-33255277D01*
X233380002Y-33255277D01*
X233408254Y-33252805D01*
X233597977Y-33236207D01*
X233809330Y-33179575D01*
X233839561Y-33165478D01*
X235921625Y-33165478D01*
X235950844Y-33179104D01*
X236162105Y-33235710D01*
X236162115Y-33235712D01*
X236379999Y-33254775D01*
X236380001Y-33254775D01*
X236597884Y-33235712D01*
X236597891Y-33235711D01*
X236809159Y-33179101D01*
X236838373Y-33165478D01*
X236376531Y-32703636D01*
X236363350Y-32712443D01*
X236360315Y-32722781D01*
X236343681Y-32743423D01*
X235921625Y-33165478D01*
X233839561Y-33165478D01*
X234007639Y-33087102D01*
X234186877Y-32961598D01*
X234341598Y-32806877D01*
X234467102Y-32627639D01*
X234559575Y-32429330D01*
X234616207Y-32217977D01*
X234635277Y-32000000D01*
X234635277Y-31999999D01*
X235125225Y-31999999D01*
X235125225Y-32000000D01*
X235144287Y-32217884D01*
X235144289Y-32217894D01*
X235200894Y-32429150D01*
X235214520Y-32458372D01*
X235672893Y-31999999D01*
X235672892Y-31999998D01*
X235605751Y-31932857D01*
X235870000Y-31932857D01*
X235870000Y-32067143D01*
X235904755Y-32196853D01*
X235971898Y-32313147D01*
X236066853Y-32408102D01*
X236183147Y-32475245D01*
X236312857Y-32510000D01*
X236447143Y-32510000D01*
X236576853Y-32475245D01*
X236693147Y-32408102D01*
X236788102Y-32313147D01*
X236855245Y-32196853D01*
X236890000Y-32067143D01*
X236890000Y-31996531D01*
X237083636Y-31996531D01*
X237545478Y-32458373D01*
X237559101Y-32429159D01*
X237615711Y-32217891D01*
X237615712Y-32217884D01*
X237634775Y-32000000D01*
X237634775Y-31999999D01*
X237615712Y-31782115D01*
X237615710Y-31782105D01*
X237559104Y-31570844D01*
X237545478Y-31541625D01*
X237123424Y-31963681D01*
X237095339Y-31979016D01*
X237083636Y-31996531D01*
X236890000Y-31996531D01*
X236890000Y-31932857D01*
X236855245Y-31803147D01*
X236788102Y-31686853D01*
X236693147Y-31591898D01*
X236576853Y-31524755D01*
X236447143Y-31490000D01*
X236312857Y-31490000D01*
X236183147Y-31524755D01*
X236066853Y-31591898D01*
X235971898Y-31686853D01*
X235904755Y-31803147D01*
X235870000Y-31932857D01*
X235605751Y-31932857D01*
X235214520Y-31541625D01*
X235214519Y-31541626D01*
X235200897Y-31570839D01*
X235200897Y-31570841D01*
X235144289Y-31782105D01*
X235144287Y-31782115D01*
X235125225Y-31999999D01*
X234635277Y-31999999D01*
X234616207Y-31782023D01*
X234559575Y-31570670D01*
X234467102Y-31372362D01*
X234467100Y-31372359D01*
X234467099Y-31372357D01*
X234341599Y-31193124D01*
X234341596Y-31193121D01*
X234186877Y-31038402D01*
X234007639Y-30912898D01*
X234007640Y-30912898D01*
X234007638Y-30912897D01*
X233908484Y-30866661D01*
X233839557Y-30834520D01*
X235921625Y-30834520D01*
X236379998Y-31292892D01*
X236379999Y-31292893D01*
X236380000Y-31292893D01*
X236380000Y-31292892D01*
X236838372Y-30834520D01*
X236809150Y-30820894D01*
X236597894Y-30764289D01*
X236597884Y-30764287D01*
X236380001Y-30745225D01*
X236379999Y-30745225D01*
X236162115Y-30764287D01*
X236162105Y-30764289D01*
X235950841Y-30820897D01*
X235950839Y-30820897D01*
X235921626Y-30834519D01*
X235921625Y-30834520D01*
X233839557Y-30834520D01*
X233809330Y-30820425D01*
X233809326Y-30820424D01*
X233809322Y-30820422D01*
X233597977Y-30763793D01*
X233380002Y-30744723D01*
X233379998Y-30744723D01*
X233234682Y-30757436D01*
X233162023Y-30763793D01*
X233162020Y-30763793D01*
X232950677Y-30820422D01*
X232950668Y-30820426D01*
X232752361Y-30912898D01*
X232752357Y-30912900D01*
X232573121Y-31038402D01*
X232418402Y-31193121D01*
X232292900Y-31372357D01*
X232292898Y-31372361D01*
X232200426Y-31570668D01*
X232200422Y-31570677D01*
X232143793Y-31782020D01*
X232143793Y-31782024D01*
X232131140Y-31926657D01*
X232124723Y-32000000D01*
X217767443Y-32000000D01*
X217804157Y-31916300D01*
X217861134Y-31691305D01*
X217861503Y-31686853D01*
X217880300Y-31460006D01*
X217880300Y-31459993D01*
X217861135Y-31228702D01*
X217861133Y-31228691D01*
X217804157Y-31003699D01*
X217710924Y-30791151D01*
X217583983Y-30596852D01*
X217583980Y-30596849D01*
X217583979Y-30596847D01*
X217426784Y-30426087D01*
X217426779Y-30426083D01*
X217426777Y-30426081D01*
X217243634Y-30283535D01*
X217243628Y-30283531D01*
X217039504Y-30173064D01*
X217039495Y-30173061D01*
X216819984Y-30097702D01*
X216648282Y-30069050D01*
X216591049Y-30059500D01*
X216358951Y-30059500D01*
X216313164Y-30067140D01*
X216130015Y-30097702D01*
X215910504Y-30173061D01*
X215910495Y-30173064D01*
X215706371Y-30283531D01*
X215706365Y-30283535D01*
X215523222Y-30426081D01*
X215523219Y-30426084D01*
X215366016Y-30596852D01*
X215239075Y-30791151D01*
X215145842Y-31003699D01*
X215088866Y-31228691D01*
X215088864Y-31228702D01*
X215069700Y-31459993D01*
X208796725Y-31459993D01*
X208620002Y-31444532D01*
X208619998Y-31444532D01*
X208393313Y-31464364D01*
X208393302Y-31464366D01*
X208173511Y-31523258D01*
X208173502Y-31523261D01*
X207967267Y-31619431D01*
X207967265Y-31619432D01*
X207780858Y-31749954D01*
X207619954Y-31910858D01*
X207489432Y-32097265D01*
X207489431Y-32097267D01*
X207393261Y-32303502D01*
X207393258Y-32303511D01*
X207334366Y-32523302D01*
X207334364Y-32523313D01*
X207314532Y-32749998D01*
X194685468Y-32749998D01*
X194665635Y-32523308D01*
X194606739Y-32303504D01*
X194510568Y-32097266D01*
X194391107Y-31926656D01*
X194380045Y-31910858D01*
X194219141Y-31749954D01*
X194032734Y-31619432D01*
X194032732Y-31619431D01*
X193826497Y-31523261D01*
X193826488Y-31523258D01*
X193606697Y-31464366D01*
X193606693Y-31464365D01*
X193606692Y-31464365D01*
X193606691Y-31464364D01*
X193606686Y-31464364D01*
X193380002Y-31444532D01*
X193379998Y-31444532D01*
X193153313Y-31464364D01*
X193153302Y-31464366D01*
X192933511Y-31523258D01*
X192933502Y-31523261D01*
X192727267Y-31619431D01*
X192727265Y-31619432D01*
X192540858Y-31749954D01*
X192379954Y-31910858D01*
X192249432Y-32097265D01*
X192249431Y-32097267D01*
X192153261Y-32303502D01*
X192153258Y-32303511D01*
X192094366Y-32523302D01*
X192094364Y-32523313D01*
X192074532Y-32749998D01*
X44300500Y-32749998D01*
X44300500Y-23124000D01*
X44320185Y-23056961D01*
X44372989Y-23011206D01*
X44424500Y-23000000D01*
X243876000Y-23000000D01*
X243943039Y-23019685D01*
G37*
%TD.AperFunction*%
%TD*%
M02*
