%TF.GenerationSoftware,KiCad,Pcbnew,8.0.5-dirty*%
%TF.CreationDate,2024-10-04T17:55:26+02:00*%
%TF.ProjectId,bottom,626f7474-6f6d-42e6-9b69-6361645f7063,rev?*%
%TF.SameCoordinates,Original*%
%TF.FileFunction,Profile,NP*%
%FSLAX46Y46*%
G04 Gerber Fmt 4.6, Leading zero omitted, Abs format (unit mm)*
G04 Created by KiCad (PCBNEW 8.0.5-dirty) date 2024-10-04 17:55:26*
%MOMM*%
%LPD*%
G01*
G04 APERTURE LIST*
%TA.AperFunction,Profile*%
%ADD10C,0.100000*%
%TD*%
G04 APERTURE END LIST*
D10*
X73000000Y-22000000D02*
X218000000Y-22000000D01*
X246000000Y-13000000D02*
X233000000Y-13000000D01*
X233000000Y-13000000D02*
X218000000Y-22000000D01*
X58000000Y-13000000D02*
X73000000Y-22000000D01*
X44000000Y-13000000D02*
X58000000Y-13000000D01*
X60500000Y-120495000D02*
X68000000Y-120500000D01*
X246000000Y-120500000D02*
X246000000Y-13000000D01*
X60500000Y-148600000D02*
X60500000Y-149900000D01*
X70500000Y-165750000D02*
X60500000Y-165750000D01*
X68000000Y-120500000D02*
X246000000Y-120500000D01*
X138000000Y-100000000D02*
G75*
G02*
X136000000Y-98000000I0J2000000D01*
G01*
X44000000Y-167250000D02*
X44000000Y-120500000D01*
X148000000Y-86000000D02*
G75*
G02*
X150000000Y-88000000I0J-2000000D01*
G01*
X70500000Y-149900000D02*
X70500000Y-165750000D01*
X70500000Y-148600000D02*
X60500000Y-148600000D01*
X138000000Y-100000000D02*
X148000000Y-100000000D01*
X60500000Y-132745000D02*
X60500000Y-120495000D01*
X150000000Y-98000000D02*
G75*
G02*
X148000000Y-100000000I-2000000J0D01*
G01*
X60500000Y-149900000D02*
X70500000Y-149900000D01*
X44000000Y-120500000D02*
X44000000Y-13000000D01*
X60500000Y-167250000D02*
X44000000Y-167250000D01*
X60500000Y-165750000D02*
X60500000Y-167250000D01*
X136000000Y-98000000D02*
X136000000Y-88000000D01*
X150000000Y-98000000D02*
X150000000Y-88000000D01*
X136000000Y-88000000D02*
G75*
G02*
X138000000Y-86000000I2000000J0D01*
G01*
X70500000Y-132750000D02*
X70500000Y-148600000D01*
X138000000Y-86000000D02*
X148000000Y-86000000D01*
X60500000Y-132745000D02*
X70500000Y-132750000D01*
M02*
