M48
; DRILL file {KiCad 8.0.5-dirty} date 2024-10-04T17:55:28+0200
; FORMAT={-:-/ absolute / inch / decimal}
; #@! TF.CreationDate,2024-10-04T17:55:28+02:00
; #@! TF.GenerationSoftware,Kicad,Pcbnew,8.0.5-dirty
; #@! TF.FileFunction,Plated,1,2,PTH
FMAT,2
INCH
; #@! TA.AperFunction,Plated,PTH,ComponentDrill
T1C0.0157
; #@! TA.AperFunction,Plated,PTH,ComponentDrill
T2C0.0315
; #@! TA.AperFunction,Plated,PTH,ComponentDrill
T3C0.0354
; #@! TA.AperFunction,Plated,PTH,ComponentDrill
T4C0.0402
; #@! TA.AperFunction,Plated,PTH,ComponentDrill
T5C0.0512
; #@! TA.AperFunction,Plated,PTH,ComponentDrill
T6C0.0866
; #@! TA.AperFunction,Plated,PTH,ComponentDrill
T7C0.1417
%
G90
G05
T1
X1.9035Y-0.7087
X1.9226Y-0.6627
X1.9226Y-0.7546
X1.9685Y-0.6437
X1.9685Y-0.7736
X2.0144Y-0.6627
X2.0144Y-0.7546
X2.0335Y-0.7087
X3.9114Y-4.5276
X3.9304Y-4.4816
X3.9304Y-4.5735
X3.9764Y-4.4626
X3.9764Y-4.5925
X4.0223Y-4.4816
X4.0223Y-4.5735
X4.0413Y-4.5276
X6.1949Y-4.5276
X6.2139Y-4.4816
X6.2139Y-4.5735
X6.2598Y-4.4626
X6.2598Y-4.5925
X6.3058Y-4.4816
X6.3058Y-4.5735
X6.3248Y-4.5276
X9.4035Y-0.6693
X9.4226Y-0.6234
X9.4226Y-0.7152
X9.4685Y-0.6043
X9.4685Y-0.7343
X9.5144Y-0.6234
X9.5144Y-0.7152
X9.5335Y-0.6693
T2
X7.6134Y-1.2894
X8.2134Y-1.2894
T3
X8.5226Y-1.2386
X8.5226Y-1.3386
T4
X9.1882Y-1.2598
X9.1882Y-1.378
X9.3063Y-1.2598
X9.3063Y-1.378
T5
X4.4094Y-3.2528
X4.4094Y-3.4528
X4.4094Y-3.8181
X4.4094Y-4.0181
X5.2443Y-2.2167
X5.2622Y-1.5594
X5.4443Y-2.2167
X5.4622Y-1.5594
X5.8742Y-1.5671
X5.8742Y-2.2167
X6.0742Y-1.5671
X6.0742Y-2.2167
X7.4213Y-2.1063
X7.6213Y-2.1063
T6
X1.9685Y-0.7087
X3.9764Y-4.5276
X6.2598Y-4.5276
X9.4685Y-0.6693
T7
X2.6181Y-5.3839
X2.6181Y-5.7087
X2.6181Y-6.0433
X2.6181Y-6.3681
M30
