%TF.GenerationSoftware,KiCad,Pcbnew,8.0.5-dirty*%
%TF.CreationDate,2024-10-04T17:55:29+02:00*%
%TF.ProjectId,bottom,626f7474-6f6d-42e6-9b69-6361645f7063,rev?*%
%TF.SameCoordinates,Original*%
%TF.FileFunction,Drillmap*%
%TF.FilePolarity,Positive*%
%FSLAX45Y45*%
G04 Gerber Fmt 4.5, Leading zero omitted, Abs format (unit mm)*
G04 Created by KiCad (PCBNEW 8.0.5-dirty) date 2024-10-04 17:55:29*
%MOMM*%
%LPD*%
G01*
G04 APERTURE LIST*
%ADD10C,0.100000*%
%ADD11C,0.200000*%
%ADD12C,0.102000*%
%ADD13C,0.130000*%
%ADD14C,0.220000*%
%ADD15C,0.360000*%
G04 APERTURE END LIST*
D10*
X7300000Y-2200000D02*
X21800000Y-2200000D01*
X24600000Y-1300000D02*
X23300000Y-1300000D01*
X23300000Y-1300000D02*
X21800000Y-2200000D01*
X5800000Y-1300000D02*
X7300000Y-2200000D01*
X4400000Y-1300000D02*
X5800000Y-1300000D01*
X6050000Y-12049500D02*
X6800000Y-12050000D01*
X24600000Y-12050000D02*
X24600000Y-1300000D01*
X6050000Y-14860000D02*
X6050000Y-14990000D01*
X7050000Y-16575000D02*
X6050000Y-16575000D01*
X6800000Y-12050000D02*
X24600000Y-12050000D01*
X13800000Y-10000000D02*
G75*
G02*
X13600000Y-9800000I0J200000D01*
G01*
X4400000Y-16725000D02*
X4400000Y-12050000D01*
X14800000Y-8600000D02*
G75*
G02*
X15000000Y-8800000I0J-200000D01*
G01*
X7050000Y-14990000D02*
X7050000Y-16575000D01*
X7050000Y-14860000D02*
X6050000Y-14860000D01*
X13800000Y-10000000D02*
X14800000Y-10000000D01*
X6050000Y-13274500D02*
X6050000Y-12049500D01*
X15000000Y-9800000D02*
G75*
G02*
X14800000Y-10000000I-200000J0D01*
G01*
X6050000Y-14990000D02*
X7050000Y-14990000D01*
X4400000Y-12050000D02*
X4400000Y-1300000D01*
X6050000Y-16725000D02*
X4400000Y-16725000D01*
X6050000Y-16575000D02*
X6050000Y-16725000D01*
X13600000Y-9800000D02*
X13600000Y-8800000D01*
X15000000Y-9800000D02*
X15000000Y-8800000D01*
X13600000Y-8800000D02*
G75*
G02*
X13800000Y-8600000I200000J0D01*
G01*
X7050000Y-13275000D02*
X7050000Y-14860000D01*
X13800000Y-8600000D02*
X14800000Y-8600000D01*
X6050000Y-13274500D02*
X7050000Y-13275000D01*
D11*
D10*
X4815000Y-1780000D02*
X4855000Y-1820000D01*
X4855000Y-1780000D02*
X4815000Y-1820000D01*
X4863327Y-1663327D02*
X4903327Y-1703327D01*
X4903327Y-1663327D02*
X4863327Y-1703327D01*
X4863327Y-1896673D02*
X4903327Y-1936673D01*
X4903327Y-1896673D02*
X4863327Y-1936673D01*
X4980000Y-1615000D02*
X5020000Y-1655000D01*
X5020000Y-1615000D02*
X4980000Y-1655000D01*
X4980000Y-1945000D02*
X5020000Y-1985000D01*
X5020000Y-1945000D02*
X4980000Y-1985000D01*
X5096673Y-1663327D02*
X5136673Y-1703327D01*
X5136673Y-1663327D02*
X5096673Y-1703327D01*
X5096673Y-1896673D02*
X5136673Y-1936673D01*
X5136673Y-1896673D02*
X5096673Y-1936673D01*
X5145000Y-1780000D02*
X5185000Y-1820000D01*
X5185000Y-1780000D02*
X5145000Y-1820000D01*
X9915000Y-11480000D02*
X9955000Y-11520000D01*
X9955000Y-11480000D02*
X9915000Y-11520000D01*
X9963327Y-11363327D02*
X10003327Y-11403327D01*
X10003327Y-11363327D02*
X9963327Y-11403327D01*
X9963327Y-11596673D02*
X10003327Y-11636673D01*
X10003327Y-11596673D02*
X9963327Y-11636673D01*
X10080000Y-11315000D02*
X10120000Y-11355000D01*
X10120000Y-11315000D02*
X10080000Y-11355000D01*
X10080000Y-11645000D02*
X10120000Y-11685000D01*
X10120000Y-11645000D02*
X10080000Y-11685000D01*
X10196673Y-11363327D02*
X10236673Y-11403327D01*
X10236673Y-11363327D02*
X10196673Y-11403327D01*
X10196673Y-11596673D02*
X10236673Y-11636673D01*
X10236673Y-11596673D02*
X10196673Y-11636673D01*
X10245000Y-11480000D02*
X10285000Y-11520000D01*
X10285000Y-11480000D02*
X10245000Y-11520000D01*
X15715000Y-11480000D02*
X15755000Y-11520000D01*
X15755000Y-11480000D02*
X15715000Y-11520000D01*
X15763327Y-11363327D02*
X15803327Y-11403327D01*
X15803327Y-11363327D02*
X15763327Y-11403327D01*
X15763327Y-11596673D02*
X15803327Y-11636673D01*
X15803327Y-11596673D02*
X15763327Y-11636673D01*
X15880000Y-11315000D02*
X15920000Y-11355000D01*
X15920000Y-11315000D02*
X15880000Y-11355000D01*
X15880000Y-11645000D02*
X15920000Y-11685000D01*
X15920000Y-11645000D02*
X15880000Y-11685000D01*
X15996673Y-11363327D02*
X16036673Y-11403327D01*
X16036673Y-11363327D02*
X15996673Y-11403327D01*
X15996673Y-11596673D02*
X16036673Y-11636673D01*
X16036673Y-11596673D02*
X15996673Y-11636673D01*
X16045000Y-11480000D02*
X16085000Y-11520000D01*
X16085000Y-11480000D02*
X16045000Y-11520000D01*
X23865000Y-1680000D02*
X23905000Y-1720000D01*
X23905000Y-1680000D02*
X23865000Y-1720000D01*
X23913327Y-1563327D02*
X23953327Y-1603327D01*
X23953327Y-1563327D02*
X23913327Y-1603327D01*
X23913327Y-1796673D02*
X23953327Y-1836673D01*
X23953327Y-1796673D02*
X23913327Y-1836673D01*
X24030000Y-1515000D02*
X24070000Y-1555000D01*
X24070000Y-1515000D02*
X24030000Y-1555000D01*
X24030000Y-1845000D02*
X24070000Y-1885000D01*
X24070000Y-1845000D02*
X24030000Y-1885000D01*
X24146673Y-1563327D02*
X24186673Y-1603327D01*
X24186673Y-1563327D02*
X24146673Y-1603327D01*
X24146673Y-1796673D02*
X24186673Y-1836673D01*
X24186673Y-1796673D02*
X24146673Y-1836673D01*
X24195000Y-1680000D02*
X24235000Y-1720000D01*
X24235000Y-1680000D02*
X24195000Y-1720000D01*
X19378000Y-3275000D02*
G75*
G02*
X19298000Y-3275000I-40000J0D01*
G01*
X19298000Y-3275000D02*
G75*
G02*
X19378000Y-3275000I40000J0D01*
G01*
X20902000Y-3275000D02*
G75*
G02*
X20822000Y-3275000I-40000J0D01*
G01*
X20822000Y-3275000D02*
G75*
G02*
X20902000Y-3275000I40000J0D01*
G01*
X21647500Y-3101000D02*
X21647500Y-3191000D01*
X21602500Y-3146000D02*
X21692500Y-3146000D01*
X21647500Y-3355000D02*
X21647500Y-3445000D01*
X21602500Y-3400000D02*
X21692500Y-3400000D01*
D12*
X23374063Y-3236063D02*
X23374063Y-3163937D01*
X23301937Y-3163937D01*
X23301937Y-3236063D01*
X23374063Y-3236063D01*
X23374063Y-3536063D02*
X23374063Y-3463937D01*
X23301937Y-3463937D01*
X23301937Y-3536063D01*
X23374063Y-3536063D01*
X23674063Y-3236063D02*
X23674063Y-3163937D01*
X23601937Y-3163937D01*
X23601937Y-3236063D01*
X23674063Y-3236063D01*
X23674063Y-3536063D02*
X23674063Y-3463937D01*
X23601937Y-3463937D01*
X23601937Y-3536063D01*
X23674063Y-3536063D01*
D13*
X11200000Y-8327000D02*
X11265000Y-8262000D01*
X11200000Y-8197000D01*
X11135000Y-8262000D01*
X11200000Y-8327000D01*
X11200000Y-8835000D02*
X11265000Y-8770000D01*
X11200000Y-8705000D01*
X11135000Y-8770000D01*
X11200000Y-8835000D01*
X11200000Y-9763000D02*
X11265000Y-9698000D01*
X11200000Y-9633000D01*
X11135000Y-9698000D01*
X11200000Y-9763000D01*
X11200000Y-10271000D02*
X11265000Y-10206000D01*
X11200000Y-10141000D01*
X11135000Y-10206000D01*
X11200000Y-10271000D01*
X13320500Y-5695500D02*
X13385500Y-5630500D01*
X13320500Y-5565500D01*
X13255500Y-5630500D01*
X13320500Y-5695500D01*
X13366000Y-4026000D02*
X13431000Y-3961000D01*
X13366000Y-3896000D01*
X13301000Y-3961000D01*
X13366000Y-4026000D01*
X13828500Y-5695500D02*
X13893500Y-5630500D01*
X13828500Y-5565500D01*
X13763500Y-5630500D01*
X13828500Y-5695500D01*
X13874000Y-4026000D02*
X13939000Y-3961000D01*
X13874000Y-3896000D01*
X13809000Y-3961000D01*
X13874000Y-4026000D01*
X14920500Y-4045500D02*
X14985500Y-3980500D01*
X14920500Y-3915500D01*
X14855500Y-3980500D01*
X14920500Y-4045500D01*
X14920500Y-5695500D02*
X14985500Y-5630500D01*
X14920500Y-5565500D01*
X14855500Y-5630500D01*
X14920500Y-5695500D01*
X15428500Y-4045500D02*
X15493500Y-3980500D01*
X15428500Y-3915500D01*
X15363500Y-3980500D01*
X15428500Y-4045500D01*
X15428500Y-5695500D02*
X15493500Y-5630500D01*
X15428500Y-5565500D01*
X15363500Y-5630500D01*
X15428500Y-5695500D01*
X18850000Y-5415000D02*
X18915000Y-5350000D01*
X18850000Y-5285000D01*
X18785000Y-5350000D01*
X18850000Y-5415000D01*
X19358000Y-5415000D02*
X19423000Y-5350000D01*
X19358000Y-5285000D01*
X19293000Y-5350000D01*
X19358000Y-5415000D01*
D14*
X4890000Y-1690000D02*
X5110000Y-1910000D01*
X5110000Y-1690000D02*
X4890000Y-1910000D01*
X5110000Y-1800000D02*
G75*
G02*
X4890000Y-1800000I-110000J0D01*
G01*
X4890000Y-1800000D02*
G75*
G02*
X5110000Y-1800000I110000J0D01*
G01*
X9990000Y-11390000D02*
X10210000Y-11610000D01*
X10210000Y-11390000D02*
X9990000Y-11610000D01*
X10210000Y-11500000D02*
G75*
G02*
X9990000Y-11500000I-110000J0D01*
G01*
X9990000Y-11500000D02*
G75*
G02*
X10210000Y-11500000I110000J0D01*
G01*
X15790000Y-11390000D02*
X16010000Y-11610000D01*
X16010000Y-11390000D02*
X15790000Y-11610000D01*
X16010000Y-11500000D02*
G75*
G02*
X15790000Y-11500000I-110000J0D01*
G01*
X15790000Y-11500000D02*
G75*
G02*
X16010000Y-11500000I110000J0D01*
G01*
X23940000Y-1590000D02*
X24160000Y-1810000D01*
X24160000Y-1590000D02*
X23940000Y-1810000D01*
X24160000Y-1700000D02*
G75*
G02*
X23940000Y-1700000I-110000J0D01*
G01*
X23940000Y-1700000D02*
G75*
G02*
X24160000Y-1700000I110000J0D01*
G01*
D15*
X6470000Y-13495000D02*
X6830000Y-13855000D01*
X6830000Y-13495000D02*
X6470000Y-13855000D01*
X6650000Y-13495000D02*
X6650000Y-13855000D01*
X6470000Y-13675000D02*
X6830000Y-13675000D01*
X6470000Y-14320000D02*
X6830000Y-14680000D01*
X6830000Y-14320000D02*
X6470000Y-14680000D01*
X6650000Y-14320000D02*
X6650000Y-14680000D01*
X6470000Y-14500000D02*
X6830000Y-14500000D01*
X6470000Y-15170000D02*
X6830000Y-15530000D01*
X6830000Y-15170000D02*
X6470000Y-15530000D01*
X6650000Y-15170000D02*
X6650000Y-15530000D01*
X6470000Y-15350000D02*
X6830000Y-15350000D01*
X6470000Y-15995000D02*
X6830000Y-16355000D01*
X6830000Y-15995000D02*
X6470000Y-16355000D01*
X6650000Y-15995000D02*
X6650000Y-16355000D01*
X6470000Y-16175000D02*
X6830000Y-16175000D01*
D11*
X4655777Y-17041484D02*
X4655777Y-16841484D01*
X4655777Y-16841484D02*
X4703396Y-16841484D01*
X4703396Y-16841484D02*
X4731967Y-16851008D01*
X4731967Y-16851008D02*
X4751015Y-16870055D01*
X4751015Y-16870055D02*
X4760539Y-16889103D01*
X4760539Y-16889103D02*
X4770063Y-16927198D01*
X4770063Y-16927198D02*
X4770063Y-16955770D01*
X4770063Y-16955770D02*
X4760539Y-16993865D01*
X4760539Y-16993865D02*
X4751015Y-17012912D01*
X4751015Y-17012912D02*
X4731967Y-17031960D01*
X4731967Y-17031960D02*
X4703396Y-17041484D01*
X4703396Y-17041484D02*
X4655777Y-17041484D01*
X4855777Y-17041484D02*
X4855777Y-16908150D01*
X4855777Y-16946246D02*
X4865301Y-16927198D01*
X4865301Y-16927198D02*
X4874824Y-16917674D01*
X4874824Y-16917674D02*
X4893872Y-16908150D01*
X4893872Y-16908150D02*
X4912920Y-16908150D01*
X4979586Y-17041484D02*
X4979586Y-16908150D01*
X4979586Y-16841484D02*
X4970063Y-16851008D01*
X4970063Y-16851008D02*
X4979586Y-16860531D01*
X4979586Y-16860531D02*
X4989110Y-16851008D01*
X4989110Y-16851008D02*
X4979586Y-16841484D01*
X4979586Y-16841484D02*
X4979586Y-16860531D01*
X5103396Y-17041484D02*
X5084348Y-17031960D01*
X5084348Y-17031960D02*
X5074824Y-17012912D01*
X5074824Y-17012912D02*
X5074824Y-16841484D01*
X5208158Y-17041484D02*
X5189110Y-17031960D01*
X5189110Y-17031960D02*
X5179586Y-17012912D01*
X5179586Y-17012912D02*
X5179586Y-16841484D01*
X5436729Y-17041484D02*
X5436729Y-16841484D01*
X5436729Y-16841484D02*
X5503396Y-16984341D01*
X5503396Y-16984341D02*
X5570063Y-16841484D01*
X5570063Y-16841484D02*
X5570063Y-17041484D01*
X5751015Y-17041484D02*
X5751015Y-16936722D01*
X5751015Y-16936722D02*
X5741491Y-16917674D01*
X5741491Y-16917674D02*
X5722443Y-16908150D01*
X5722443Y-16908150D02*
X5684348Y-16908150D01*
X5684348Y-16908150D02*
X5665301Y-16917674D01*
X5751015Y-17031960D02*
X5731967Y-17041484D01*
X5731967Y-17041484D02*
X5684348Y-17041484D01*
X5684348Y-17041484D02*
X5665301Y-17031960D01*
X5665301Y-17031960D02*
X5655777Y-17012912D01*
X5655777Y-17012912D02*
X5655777Y-16993865D01*
X5655777Y-16993865D02*
X5665301Y-16974817D01*
X5665301Y-16974817D02*
X5684348Y-16965293D01*
X5684348Y-16965293D02*
X5731967Y-16965293D01*
X5731967Y-16965293D02*
X5751015Y-16955770D01*
X5846253Y-16908150D02*
X5846253Y-17108150D01*
X5846253Y-16917674D02*
X5865301Y-16908150D01*
X5865301Y-16908150D02*
X5903396Y-16908150D01*
X5903396Y-16908150D02*
X5922443Y-16917674D01*
X5922443Y-16917674D02*
X5931967Y-16927198D01*
X5931967Y-16927198D02*
X5941491Y-16946246D01*
X5941491Y-16946246D02*
X5941491Y-17003389D01*
X5941491Y-17003389D02*
X5931967Y-17022436D01*
X5931967Y-17022436D02*
X5922443Y-17031960D01*
X5922443Y-17031960D02*
X5903396Y-17041484D01*
X5903396Y-17041484D02*
X5865301Y-17041484D01*
X5865301Y-17041484D02*
X5846253Y-17031960D01*
X6027205Y-17022436D02*
X6036729Y-17031960D01*
X6036729Y-17031960D02*
X6027205Y-17041484D01*
X6027205Y-17041484D02*
X6017682Y-17031960D01*
X6017682Y-17031960D02*
X6027205Y-17022436D01*
X6027205Y-17022436D02*
X6027205Y-17041484D01*
X6027205Y-16917674D02*
X6036729Y-16927198D01*
X6036729Y-16927198D02*
X6027205Y-16936722D01*
X6027205Y-16936722D02*
X6017682Y-16927198D01*
X6017682Y-16927198D02*
X6027205Y-16917674D01*
X6027205Y-16917674D02*
X6027205Y-16936722D01*
D10*
X4355000Y-17350000D02*
X4395000Y-17390000D01*
X4395000Y-17350000D02*
X4355000Y-17390000D01*
D11*
X4693872Y-17261484D02*
X4712920Y-17261484D01*
X4712920Y-17261484D02*
X4731967Y-17271008D01*
X4731967Y-17271008D02*
X4741491Y-17280531D01*
X4741491Y-17280531D02*
X4751015Y-17299579D01*
X4751015Y-17299579D02*
X4760539Y-17337674D01*
X4760539Y-17337674D02*
X4760539Y-17385293D01*
X4760539Y-17385293D02*
X4751015Y-17423389D01*
X4751015Y-17423389D02*
X4741491Y-17442436D01*
X4741491Y-17442436D02*
X4731967Y-17451960D01*
X4731967Y-17451960D02*
X4712920Y-17461484D01*
X4712920Y-17461484D02*
X4693872Y-17461484D01*
X4693872Y-17461484D02*
X4674824Y-17451960D01*
X4674824Y-17451960D02*
X4665301Y-17442436D01*
X4665301Y-17442436D02*
X4655777Y-17423389D01*
X4655777Y-17423389D02*
X4646253Y-17385293D01*
X4646253Y-17385293D02*
X4646253Y-17337674D01*
X4646253Y-17337674D02*
X4655777Y-17299579D01*
X4655777Y-17299579D02*
X4665301Y-17280531D01*
X4665301Y-17280531D02*
X4674824Y-17271008D01*
X4674824Y-17271008D02*
X4693872Y-17261484D01*
X4846253Y-17442436D02*
X4855777Y-17451960D01*
X4855777Y-17451960D02*
X4846253Y-17461484D01*
X4846253Y-17461484D02*
X4836729Y-17451960D01*
X4836729Y-17451960D02*
X4846253Y-17442436D01*
X4846253Y-17442436D02*
X4846253Y-17461484D01*
X5027205Y-17328150D02*
X5027205Y-17461484D01*
X4979586Y-17251960D02*
X4931967Y-17394817D01*
X4931967Y-17394817D02*
X5055777Y-17394817D01*
X5170063Y-17261484D02*
X5189110Y-17261484D01*
X5189110Y-17261484D02*
X5208158Y-17271008D01*
X5208158Y-17271008D02*
X5217682Y-17280531D01*
X5217682Y-17280531D02*
X5227205Y-17299579D01*
X5227205Y-17299579D02*
X5236729Y-17337674D01*
X5236729Y-17337674D02*
X5236729Y-17385293D01*
X5236729Y-17385293D02*
X5227205Y-17423389D01*
X5227205Y-17423389D02*
X5217682Y-17442436D01*
X5217682Y-17442436D02*
X5208158Y-17451960D01*
X5208158Y-17451960D02*
X5189110Y-17461484D01*
X5189110Y-17461484D02*
X5170063Y-17461484D01*
X5170063Y-17461484D02*
X5151015Y-17451960D01*
X5151015Y-17451960D02*
X5141491Y-17442436D01*
X5141491Y-17442436D02*
X5131967Y-17423389D01*
X5131967Y-17423389D02*
X5122444Y-17385293D01*
X5122444Y-17385293D02*
X5122444Y-17337674D01*
X5122444Y-17337674D02*
X5131967Y-17299579D01*
X5131967Y-17299579D02*
X5141491Y-17280531D01*
X5141491Y-17280531D02*
X5151015Y-17271008D01*
X5151015Y-17271008D02*
X5170063Y-17261484D01*
X5360539Y-17261484D02*
X5379586Y-17261484D01*
X5379586Y-17261484D02*
X5398634Y-17271008D01*
X5398634Y-17271008D02*
X5408158Y-17280531D01*
X5408158Y-17280531D02*
X5417682Y-17299579D01*
X5417682Y-17299579D02*
X5427205Y-17337674D01*
X5427205Y-17337674D02*
X5427205Y-17385293D01*
X5427205Y-17385293D02*
X5417682Y-17423389D01*
X5417682Y-17423389D02*
X5408158Y-17442436D01*
X5408158Y-17442436D02*
X5398634Y-17451960D01*
X5398634Y-17451960D02*
X5379586Y-17461484D01*
X5379586Y-17461484D02*
X5360539Y-17461484D01*
X5360539Y-17461484D02*
X5341491Y-17451960D01*
X5341491Y-17451960D02*
X5331967Y-17442436D01*
X5331967Y-17442436D02*
X5322444Y-17423389D01*
X5322444Y-17423389D02*
X5312920Y-17385293D01*
X5312920Y-17385293D02*
X5312920Y-17337674D01*
X5312920Y-17337674D02*
X5322444Y-17299579D01*
X5322444Y-17299579D02*
X5331967Y-17280531D01*
X5331967Y-17280531D02*
X5341491Y-17271008D01*
X5341491Y-17271008D02*
X5360539Y-17261484D01*
X5512920Y-17461484D02*
X5512920Y-17328150D01*
X5512920Y-17347198D02*
X5522444Y-17337674D01*
X5522444Y-17337674D02*
X5541491Y-17328150D01*
X5541491Y-17328150D02*
X5570063Y-17328150D01*
X5570063Y-17328150D02*
X5589110Y-17337674D01*
X5589110Y-17337674D02*
X5598634Y-17356722D01*
X5598634Y-17356722D02*
X5598634Y-17461484D01*
X5598634Y-17356722D02*
X5608158Y-17337674D01*
X5608158Y-17337674D02*
X5627205Y-17328150D01*
X5627205Y-17328150D02*
X5655777Y-17328150D01*
X5655777Y-17328150D02*
X5674824Y-17337674D01*
X5674824Y-17337674D02*
X5684348Y-17356722D01*
X5684348Y-17356722D02*
X5684348Y-17461484D01*
X5779586Y-17461484D02*
X5779586Y-17328150D01*
X5779586Y-17347198D02*
X5789110Y-17337674D01*
X5789110Y-17337674D02*
X5808158Y-17328150D01*
X5808158Y-17328150D02*
X5836729Y-17328150D01*
X5836729Y-17328150D02*
X5855777Y-17337674D01*
X5855777Y-17337674D02*
X5865301Y-17356722D01*
X5865301Y-17356722D02*
X5865301Y-17461484D01*
X5865301Y-17356722D02*
X5874824Y-17337674D01*
X5874824Y-17337674D02*
X5893872Y-17328150D01*
X5893872Y-17328150D02*
X5922443Y-17328150D01*
X5922443Y-17328150D02*
X5941491Y-17337674D01*
X5941491Y-17337674D02*
X5951015Y-17356722D01*
X5951015Y-17356722D02*
X5951015Y-17461484D01*
X6341491Y-17251960D02*
X6170063Y-17509103D01*
X6598634Y-17261484D02*
X6617682Y-17261484D01*
X6617682Y-17261484D02*
X6636729Y-17271008D01*
X6636729Y-17271008D02*
X6646253Y-17280531D01*
X6646253Y-17280531D02*
X6655777Y-17299579D01*
X6655777Y-17299579D02*
X6665301Y-17337674D01*
X6665301Y-17337674D02*
X6665301Y-17385293D01*
X6665301Y-17385293D02*
X6655777Y-17423389D01*
X6655777Y-17423389D02*
X6646253Y-17442436D01*
X6646253Y-17442436D02*
X6636729Y-17451960D01*
X6636729Y-17451960D02*
X6617682Y-17461484D01*
X6617682Y-17461484D02*
X6598634Y-17461484D01*
X6598634Y-17461484D02*
X6579586Y-17451960D01*
X6579586Y-17451960D02*
X6570063Y-17442436D01*
X6570063Y-17442436D02*
X6560539Y-17423389D01*
X6560539Y-17423389D02*
X6551015Y-17385293D01*
X6551015Y-17385293D02*
X6551015Y-17337674D01*
X6551015Y-17337674D02*
X6560539Y-17299579D01*
X6560539Y-17299579D02*
X6570063Y-17280531D01*
X6570063Y-17280531D02*
X6579586Y-17271008D01*
X6579586Y-17271008D02*
X6598634Y-17261484D01*
X6751015Y-17442436D02*
X6760539Y-17451960D01*
X6760539Y-17451960D02*
X6751015Y-17461484D01*
X6751015Y-17461484D02*
X6741491Y-17451960D01*
X6741491Y-17451960D02*
X6751015Y-17442436D01*
X6751015Y-17442436D02*
X6751015Y-17461484D01*
X6884348Y-17261484D02*
X6903396Y-17261484D01*
X6903396Y-17261484D02*
X6922444Y-17271008D01*
X6922444Y-17271008D02*
X6931967Y-17280531D01*
X6931967Y-17280531D02*
X6941491Y-17299579D01*
X6941491Y-17299579D02*
X6951015Y-17337674D01*
X6951015Y-17337674D02*
X6951015Y-17385293D01*
X6951015Y-17385293D02*
X6941491Y-17423389D01*
X6941491Y-17423389D02*
X6931967Y-17442436D01*
X6931967Y-17442436D02*
X6922444Y-17451960D01*
X6922444Y-17451960D02*
X6903396Y-17461484D01*
X6903396Y-17461484D02*
X6884348Y-17461484D01*
X6884348Y-17461484D02*
X6865301Y-17451960D01*
X6865301Y-17451960D02*
X6855777Y-17442436D01*
X6855777Y-17442436D02*
X6846253Y-17423389D01*
X6846253Y-17423389D02*
X6836729Y-17385293D01*
X6836729Y-17385293D02*
X6836729Y-17337674D01*
X6836729Y-17337674D02*
X6846253Y-17299579D01*
X6846253Y-17299579D02*
X6855777Y-17280531D01*
X6855777Y-17280531D02*
X6865301Y-17271008D01*
X6865301Y-17271008D02*
X6884348Y-17261484D01*
X7141491Y-17461484D02*
X7027206Y-17461484D01*
X7084348Y-17461484D02*
X7084348Y-17261484D01*
X7084348Y-17261484D02*
X7065301Y-17290055D01*
X7065301Y-17290055D02*
X7046253Y-17309103D01*
X7046253Y-17309103D02*
X7027206Y-17318627D01*
X7322444Y-17261484D02*
X7227206Y-17261484D01*
X7227206Y-17261484D02*
X7217682Y-17356722D01*
X7217682Y-17356722D02*
X7227206Y-17347198D01*
X7227206Y-17347198D02*
X7246253Y-17337674D01*
X7246253Y-17337674D02*
X7293872Y-17337674D01*
X7293872Y-17337674D02*
X7312920Y-17347198D01*
X7312920Y-17347198D02*
X7322444Y-17356722D01*
X7322444Y-17356722D02*
X7331967Y-17375770D01*
X7331967Y-17375770D02*
X7331967Y-17423389D01*
X7331967Y-17423389D02*
X7322444Y-17442436D01*
X7322444Y-17442436D02*
X7312920Y-17451960D01*
X7312920Y-17451960D02*
X7293872Y-17461484D01*
X7293872Y-17461484D02*
X7246253Y-17461484D01*
X7246253Y-17461484D02*
X7227206Y-17451960D01*
X7227206Y-17451960D02*
X7217682Y-17442436D01*
X7398634Y-17261484D02*
X7531967Y-17261484D01*
X7531967Y-17261484D02*
X7446253Y-17461484D01*
X7598634Y-17261484D02*
X7598634Y-17299579D01*
X7674825Y-17261484D02*
X7674825Y-17299579D01*
X7970063Y-17537674D02*
X7960539Y-17528150D01*
X7960539Y-17528150D02*
X7941491Y-17499579D01*
X7941491Y-17499579D02*
X7931968Y-17480531D01*
X7931968Y-17480531D02*
X7922444Y-17451960D01*
X7922444Y-17451960D02*
X7912920Y-17404341D01*
X7912920Y-17404341D02*
X7912920Y-17366246D01*
X7912920Y-17366246D02*
X7922444Y-17318627D01*
X7922444Y-17318627D02*
X7931968Y-17290055D01*
X7931968Y-17290055D02*
X7941491Y-17271008D01*
X7941491Y-17271008D02*
X7960539Y-17242436D01*
X7960539Y-17242436D02*
X7970063Y-17232912D01*
X8027206Y-17261484D02*
X8151015Y-17261484D01*
X8151015Y-17261484D02*
X8084348Y-17337674D01*
X8084348Y-17337674D02*
X8112920Y-17337674D01*
X8112920Y-17337674D02*
X8131968Y-17347198D01*
X8131968Y-17347198D02*
X8141491Y-17356722D01*
X8141491Y-17356722D02*
X8151015Y-17375770D01*
X8151015Y-17375770D02*
X8151015Y-17423389D01*
X8151015Y-17423389D02*
X8141491Y-17442436D01*
X8141491Y-17442436D02*
X8131968Y-17451960D01*
X8131968Y-17451960D02*
X8112920Y-17461484D01*
X8112920Y-17461484D02*
X8055777Y-17461484D01*
X8055777Y-17461484D02*
X8036729Y-17451960D01*
X8036729Y-17451960D02*
X8027206Y-17442436D01*
X8227206Y-17280531D02*
X8236729Y-17271008D01*
X8236729Y-17271008D02*
X8255777Y-17261484D01*
X8255777Y-17261484D02*
X8303396Y-17261484D01*
X8303396Y-17261484D02*
X8322444Y-17271008D01*
X8322444Y-17271008D02*
X8331968Y-17280531D01*
X8331968Y-17280531D02*
X8341491Y-17299579D01*
X8341491Y-17299579D02*
X8341491Y-17318627D01*
X8341491Y-17318627D02*
X8331968Y-17347198D01*
X8331968Y-17347198D02*
X8217682Y-17461484D01*
X8217682Y-17461484D02*
X8341491Y-17461484D01*
X8579587Y-17461484D02*
X8579587Y-17261484D01*
X8665301Y-17461484D02*
X8665301Y-17356722D01*
X8665301Y-17356722D02*
X8655777Y-17337674D01*
X8655777Y-17337674D02*
X8636730Y-17328150D01*
X8636730Y-17328150D02*
X8608158Y-17328150D01*
X8608158Y-17328150D02*
X8589111Y-17337674D01*
X8589111Y-17337674D02*
X8579587Y-17347198D01*
X8789111Y-17461484D02*
X8770063Y-17451960D01*
X8770063Y-17451960D02*
X8760539Y-17442436D01*
X8760539Y-17442436D02*
X8751015Y-17423389D01*
X8751015Y-17423389D02*
X8751015Y-17366246D01*
X8751015Y-17366246D02*
X8760539Y-17347198D01*
X8760539Y-17347198D02*
X8770063Y-17337674D01*
X8770063Y-17337674D02*
X8789111Y-17328150D01*
X8789111Y-17328150D02*
X8817682Y-17328150D01*
X8817682Y-17328150D02*
X8836730Y-17337674D01*
X8836730Y-17337674D02*
X8846253Y-17347198D01*
X8846253Y-17347198D02*
X8855777Y-17366246D01*
X8855777Y-17366246D02*
X8855777Y-17423389D01*
X8855777Y-17423389D02*
X8846253Y-17442436D01*
X8846253Y-17442436D02*
X8836730Y-17451960D01*
X8836730Y-17451960D02*
X8817682Y-17461484D01*
X8817682Y-17461484D02*
X8789111Y-17461484D01*
X8970063Y-17461484D02*
X8951015Y-17451960D01*
X8951015Y-17451960D02*
X8941492Y-17432912D01*
X8941492Y-17432912D02*
X8941492Y-17261484D01*
X9122444Y-17451960D02*
X9103396Y-17461484D01*
X9103396Y-17461484D02*
X9065301Y-17461484D01*
X9065301Y-17461484D02*
X9046253Y-17451960D01*
X9046253Y-17451960D02*
X9036730Y-17432912D01*
X9036730Y-17432912D02*
X9036730Y-17356722D01*
X9036730Y-17356722D02*
X9046253Y-17337674D01*
X9046253Y-17337674D02*
X9065301Y-17328150D01*
X9065301Y-17328150D02*
X9103396Y-17328150D01*
X9103396Y-17328150D02*
X9122444Y-17337674D01*
X9122444Y-17337674D02*
X9131968Y-17356722D01*
X9131968Y-17356722D02*
X9131968Y-17375770D01*
X9131968Y-17375770D02*
X9036730Y-17394817D01*
X9208158Y-17451960D02*
X9227206Y-17461484D01*
X9227206Y-17461484D02*
X9265301Y-17461484D01*
X9265301Y-17461484D02*
X9284349Y-17451960D01*
X9284349Y-17451960D02*
X9293873Y-17432912D01*
X9293873Y-17432912D02*
X9293873Y-17423389D01*
X9293873Y-17423389D02*
X9284349Y-17404341D01*
X9284349Y-17404341D02*
X9265301Y-17394817D01*
X9265301Y-17394817D02*
X9236730Y-17394817D01*
X9236730Y-17394817D02*
X9217682Y-17385293D01*
X9217682Y-17385293D02*
X9208158Y-17366246D01*
X9208158Y-17366246D02*
X9208158Y-17356722D01*
X9208158Y-17356722D02*
X9217682Y-17337674D01*
X9217682Y-17337674D02*
X9236730Y-17328150D01*
X9236730Y-17328150D02*
X9265301Y-17328150D01*
X9265301Y-17328150D02*
X9284349Y-17337674D01*
X9360539Y-17537674D02*
X9370063Y-17528150D01*
X9370063Y-17528150D02*
X9389111Y-17499579D01*
X9389111Y-17499579D02*
X9398634Y-17480531D01*
X9398634Y-17480531D02*
X9408158Y-17451960D01*
X9408158Y-17451960D02*
X9417682Y-17404341D01*
X9417682Y-17404341D02*
X9417682Y-17366246D01*
X9417682Y-17366246D02*
X9408158Y-17318627D01*
X9408158Y-17318627D02*
X9398634Y-17290055D01*
X9398634Y-17290055D02*
X9389111Y-17271008D01*
X9389111Y-17271008D02*
X9370063Y-17242436D01*
X9370063Y-17242436D02*
X9360539Y-17232912D01*
D10*
X4395000Y-17634000D02*
G75*
G02*
X4315000Y-17634000I-40000J0D01*
G01*
X4315000Y-17634000D02*
G75*
G02*
X4395000Y-17634000I40000J0D01*
G01*
D11*
X4693872Y-17525484D02*
X4712920Y-17525484D01*
X4712920Y-17525484D02*
X4731967Y-17535008D01*
X4731967Y-17535008D02*
X4741491Y-17544531D01*
X4741491Y-17544531D02*
X4751015Y-17563579D01*
X4751015Y-17563579D02*
X4760539Y-17601674D01*
X4760539Y-17601674D02*
X4760539Y-17649293D01*
X4760539Y-17649293D02*
X4751015Y-17687389D01*
X4751015Y-17687389D02*
X4741491Y-17706436D01*
X4741491Y-17706436D02*
X4731967Y-17715960D01*
X4731967Y-17715960D02*
X4712920Y-17725484D01*
X4712920Y-17725484D02*
X4693872Y-17725484D01*
X4693872Y-17725484D02*
X4674824Y-17715960D01*
X4674824Y-17715960D02*
X4665301Y-17706436D01*
X4665301Y-17706436D02*
X4655777Y-17687389D01*
X4655777Y-17687389D02*
X4646253Y-17649293D01*
X4646253Y-17649293D02*
X4646253Y-17601674D01*
X4646253Y-17601674D02*
X4655777Y-17563579D01*
X4655777Y-17563579D02*
X4665301Y-17544531D01*
X4665301Y-17544531D02*
X4674824Y-17535008D01*
X4674824Y-17535008D02*
X4693872Y-17525484D01*
X4846253Y-17706436D02*
X4855777Y-17715960D01*
X4855777Y-17715960D02*
X4846253Y-17725484D01*
X4846253Y-17725484D02*
X4836729Y-17715960D01*
X4836729Y-17715960D02*
X4846253Y-17706436D01*
X4846253Y-17706436D02*
X4846253Y-17725484D01*
X4970063Y-17611198D02*
X4951015Y-17601674D01*
X4951015Y-17601674D02*
X4941491Y-17592150D01*
X4941491Y-17592150D02*
X4931967Y-17573103D01*
X4931967Y-17573103D02*
X4931967Y-17563579D01*
X4931967Y-17563579D02*
X4941491Y-17544531D01*
X4941491Y-17544531D02*
X4951015Y-17535008D01*
X4951015Y-17535008D02*
X4970063Y-17525484D01*
X4970063Y-17525484D02*
X5008158Y-17525484D01*
X5008158Y-17525484D02*
X5027205Y-17535008D01*
X5027205Y-17535008D02*
X5036729Y-17544531D01*
X5036729Y-17544531D02*
X5046253Y-17563579D01*
X5046253Y-17563579D02*
X5046253Y-17573103D01*
X5046253Y-17573103D02*
X5036729Y-17592150D01*
X5036729Y-17592150D02*
X5027205Y-17601674D01*
X5027205Y-17601674D02*
X5008158Y-17611198D01*
X5008158Y-17611198D02*
X4970063Y-17611198D01*
X4970063Y-17611198D02*
X4951015Y-17620722D01*
X4951015Y-17620722D02*
X4941491Y-17630246D01*
X4941491Y-17630246D02*
X4931967Y-17649293D01*
X4931967Y-17649293D02*
X4931967Y-17687389D01*
X4931967Y-17687389D02*
X4941491Y-17706436D01*
X4941491Y-17706436D02*
X4951015Y-17715960D01*
X4951015Y-17715960D02*
X4970063Y-17725484D01*
X4970063Y-17725484D02*
X5008158Y-17725484D01*
X5008158Y-17725484D02*
X5027205Y-17715960D01*
X5027205Y-17715960D02*
X5036729Y-17706436D01*
X5036729Y-17706436D02*
X5046253Y-17687389D01*
X5046253Y-17687389D02*
X5046253Y-17649293D01*
X5046253Y-17649293D02*
X5036729Y-17630246D01*
X5036729Y-17630246D02*
X5027205Y-17620722D01*
X5027205Y-17620722D02*
X5008158Y-17611198D01*
X5170063Y-17525484D02*
X5189110Y-17525484D01*
X5189110Y-17525484D02*
X5208158Y-17535008D01*
X5208158Y-17535008D02*
X5217682Y-17544531D01*
X5217682Y-17544531D02*
X5227205Y-17563579D01*
X5227205Y-17563579D02*
X5236729Y-17601674D01*
X5236729Y-17601674D02*
X5236729Y-17649293D01*
X5236729Y-17649293D02*
X5227205Y-17687389D01*
X5227205Y-17687389D02*
X5217682Y-17706436D01*
X5217682Y-17706436D02*
X5208158Y-17715960D01*
X5208158Y-17715960D02*
X5189110Y-17725484D01*
X5189110Y-17725484D02*
X5170063Y-17725484D01*
X5170063Y-17725484D02*
X5151015Y-17715960D01*
X5151015Y-17715960D02*
X5141491Y-17706436D01*
X5141491Y-17706436D02*
X5131967Y-17687389D01*
X5131967Y-17687389D02*
X5122444Y-17649293D01*
X5122444Y-17649293D02*
X5122444Y-17601674D01*
X5122444Y-17601674D02*
X5131967Y-17563579D01*
X5131967Y-17563579D02*
X5141491Y-17544531D01*
X5141491Y-17544531D02*
X5151015Y-17535008D01*
X5151015Y-17535008D02*
X5170063Y-17525484D01*
X5360539Y-17525484D02*
X5379586Y-17525484D01*
X5379586Y-17525484D02*
X5398634Y-17535008D01*
X5398634Y-17535008D02*
X5408158Y-17544531D01*
X5408158Y-17544531D02*
X5417682Y-17563579D01*
X5417682Y-17563579D02*
X5427205Y-17601674D01*
X5427205Y-17601674D02*
X5427205Y-17649293D01*
X5427205Y-17649293D02*
X5417682Y-17687389D01*
X5417682Y-17687389D02*
X5408158Y-17706436D01*
X5408158Y-17706436D02*
X5398634Y-17715960D01*
X5398634Y-17715960D02*
X5379586Y-17725484D01*
X5379586Y-17725484D02*
X5360539Y-17725484D01*
X5360539Y-17725484D02*
X5341491Y-17715960D01*
X5341491Y-17715960D02*
X5331967Y-17706436D01*
X5331967Y-17706436D02*
X5322444Y-17687389D01*
X5322444Y-17687389D02*
X5312920Y-17649293D01*
X5312920Y-17649293D02*
X5312920Y-17601674D01*
X5312920Y-17601674D02*
X5322444Y-17563579D01*
X5322444Y-17563579D02*
X5331967Y-17544531D01*
X5331967Y-17544531D02*
X5341491Y-17535008D01*
X5341491Y-17535008D02*
X5360539Y-17525484D01*
X5512920Y-17725484D02*
X5512920Y-17592150D01*
X5512920Y-17611198D02*
X5522444Y-17601674D01*
X5522444Y-17601674D02*
X5541491Y-17592150D01*
X5541491Y-17592150D02*
X5570063Y-17592150D01*
X5570063Y-17592150D02*
X5589110Y-17601674D01*
X5589110Y-17601674D02*
X5598634Y-17620722D01*
X5598634Y-17620722D02*
X5598634Y-17725484D01*
X5598634Y-17620722D02*
X5608158Y-17601674D01*
X5608158Y-17601674D02*
X5627205Y-17592150D01*
X5627205Y-17592150D02*
X5655777Y-17592150D01*
X5655777Y-17592150D02*
X5674824Y-17601674D01*
X5674824Y-17601674D02*
X5684348Y-17620722D01*
X5684348Y-17620722D02*
X5684348Y-17725484D01*
X5779586Y-17725484D02*
X5779586Y-17592150D01*
X5779586Y-17611198D02*
X5789110Y-17601674D01*
X5789110Y-17601674D02*
X5808158Y-17592150D01*
X5808158Y-17592150D02*
X5836729Y-17592150D01*
X5836729Y-17592150D02*
X5855777Y-17601674D01*
X5855777Y-17601674D02*
X5865301Y-17620722D01*
X5865301Y-17620722D02*
X5865301Y-17725484D01*
X5865301Y-17620722D02*
X5874824Y-17601674D01*
X5874824Y-17601674D02*
X5893872Y-17592150D01*
X5893872Y-17592150D02*
X5922443Y-17592150D01*
X5922443Y-17592150D02*
X5941491Y-17601674D01*
X5941491Y-17601674D02*
X5951015Y-17620722D01*
X5951015Y-17620722D02*
X5951015Y-17725484D01*
X6341491Y-17515960D02*
X6170063Y-17773103D01*
X6598634Y-17525484D02*
X6617682Y-17525484D01*
X6617682Y-17525484D02*
X6636729Y-17535008D01*
X6636729Y-17535008D02*
X6646253Y-17544531D01*
X6646253Y-17544531D02*
X6655777Y-17563579D01*
X6655777Y-17563579D02*
X6665301Y-17601674D01*
X6665301Y-17601674D02*
X6665301Y-17649293D01*
X6665301Y-17649293D02*
X6655777Y-17687389D01*
X6655777Y-17687389D02*
X6646253Y-17706436D01*
X6646253Y-17706436D02*
X6636729Y-17715960D01*
X6636729Y-17715960D02*
X6617682Y-17725484D01*
X6617682Y-17725484D02*
X6598634Y-17725484D01*
X6598634Y-17725484D02*
X6579586Y-17715960D01*
X6579586Y-17715960D02*
X6570063Y-17706436D01*
X6570063Y-17706436D02*
X6560539Y-17687389D01*
X6560539Y-17687389D02*
X6551015Y-17649293D01*
X6551015Y-17649293D02*
X6551015Y-17601674D01*
X6551015Y-17601674D02*
X6560539Y-17563579D01*
X6560539Y-17563579D02*
X6570063Y-17544531D01*
X6570063Y-17544531D02*
X6579586Y-17535008D01*
X6579586Y-17535008D02*
X6598634Y-17525484D01*
X6751015Y-17706436D02*
X6760539Y-17715960D01*
X6760539Y-17715960D02*
X6751015Y-17725484D01*
X6751015Y-17725484D02*
X6741491Y-17715960D01*
X6741491Y-17715960D02*
X6751015Y-17706436D01*
X6751015Y-17706436D02*
X6751015Y-17725484D01*
X6884348Y-17525484D02*
X6903396Y-17525484D01*
X6903396Y-17525484D02*
X6922444Y-17535008D01*
X6922444Y-17535008D02*
X6931967Y-17544531D01*
X6931967Y-17544531D02*
X6941491Y-17563579D01*
X6941491Y-17563579D02*
X6951015Y-17601674D01*
X6951015Y-17601674D02*
X6951015Y-17649293D01*
X6951015Y-17649293D02*
X6941491Y-17687389D01*
X6941491Y-17687389D02*
X6931967Y-17706436D01*
X6931967Y-17706436D02*
X6922444Y-17715960D01*
X6922444Y-17715960D02*
X6903396Y-17725484D01*
X6903396Y-17725484D02*
X6884348Y-17725484D01*
X6884348Y-17725484D02*
X6865301Y-17715960D01*
X6865301Y-17715960D02*
X6855777Y-17706436D01*
X6855777Y-17706436D02*
X6846253Y-17687389D01*
X6846253Y-17687389D02*
X6836729Y-17649293D01*
X6836729Y-17649293D02*
X6836729Y-17601674D01*
X6836729Y-17601674D02*
X6846253Y-17563579D01*
X6846253Y-17563579D02*
X6855777Y-17544531D01*
X6855777Y-17544531D02*
X6865301Y-17535008D01*
X6865301Y-17535008D02*
X6884348Y-17525484D01*
X7017682Y-17525484D02*
X7141491Y-17525484D01*
X7141491Y-17525484D02*
X7074825Y-17601674D01*
X7074825Y-17601674D02*
X7103396Y-17601674D01*
X7103396Y-17601674D02*
X7122444Y-17611198D01*
X7122444Y-17611198D02*
X7131967Y-17620722D01*
X7131967Y-17620722D02*
X7141491Y-17639770D01*
X7141491Y-17639770D02*
X7141491Y-17687389D01*
X7141491Y-17687389D02*
X7131967Y-17706436D01*
X7131967Y-17706436D02*
X7122444Y-17715960D01*
X7122444Y-17715960D02*
X7103396Y-17725484D01*
X7103396Y-17725484D02*
X7046253Y-17725484D01*
X7046253Y-17725484D02*
X7027206Y-17715960D01*
X7027206Y-17715960D02*
X7017682Y-17706436D01*
X7331967Y-17725484D02*
X7217682Y-17725484D01*
X7274825Y-17725484D02*
X7274825Y-17525484D01*
X7274825Y-17525484D02*
X7255777Y-17554055D01*
X7255777Y-17554055D02*
X7236729Y-17573103D01*
X7236729Y-17573103D02*
X7217682Y-17582627D01*
X7512920Y-17525484D02*
X7417682Y-17525484D01*
X7417682Y-17525484D02*
X7408158Y-17620722D01*
X7408158Y-17620722D02*
X7417682Y-17611198D01*
X7417682Y-17611198D02*
X7436729Y-17601674D01*
X7436729Y-17601674D02*
X7484348Y-17601674D01*
X7484348Y-17601674D02*
X7503396Y-17611198D01*
X7503396Y-17611198D02*
X7512920Y-17620722D01*
X7512920Y-17620722D02*
X7522444Y-17639770D01*
X7522444Y-17639770D02*
X7522444Y-17687389D01*
X7522444Y-17687389D02*
X7512920Y-17706436D01*
X7512920Y-17706436D02*
X7503396Y-17715960D01*
X7503396Y-17715960D02*
X7484348Y-17725484D01*
X7484348Y-17725484D02*
X7436729Y-17725484D01*
X7436729Y-17725484D02*
X7417682Y-17715960D01*
X7417682Y-17715960D02*
X7408158Y-17706436D01*
X7598634Y-17525484D02*
X7598634Y-17563579D01*
X7674825Y-17525484D02*
X7674825Y-17563579D01*
X7970063Y-17801674D02*
X7960539Y-17792150D01*
X7960539Y-17792150D02*
X7941491Y-17763579D01*
X7941491Y-17763579D02*
X7931968Y-17744531D01*
X7931968Y-17744531D02*
X7922444Y-17715960D01*
X7922444Y-17715960D02*
X7912920Y-17668341D01*
X7912920Y-17668341D02*
X7912920Y-17630246D01*
X7912920Y-17630246D02*
X7922444Y-17582627D01*
X7922444Y-17582627D02*
X7931968Y-17554055D01*
X7931968Y-17554055D02*
X7941491Y-17535008D01*
X7941491Y-17535008D02*
X7960539Y-17506436D01*
X7960539Y-17506436D02*
X7970063Y-17496912D01*
X8036729Y-17544531D02*
X8046253Y-17535008D01*
X8046253Y-17535008D02*
X8065301Y-17525484D01*
X8065301Y-17525484D02*
X8112920Y-17525484D01*
X8112920Y-17525484D02*
X8131968Y-17535008D01*
X8131968Y-17535008D02*
X8141491Y-17544531D01*
X8141491Y-17544531D02*
X8151015Y-17563579D01*
X8151015Y-17563579D02*
X8151015Y-17582627D01*
X8151015Y-17582627D02*
X8141491Y-17611198D01*
X8141491Y-17611198D02*
X8027206Y-17725484D01*
X8027206Y-17725484D02*
X8151015Y-17725484D01*
X8389111Y-17725484D02*
X8389111Y-17525484D01*
X8474825Y-17725484D02*
X8474825Y-17620722D01*
X8474825Y-17620722D02*
X8465301Y-17601674D01*
X8465301Y-17601674D02*
X8446253Y-17592150D01*
X8446253Y-17592150D02*
X8417682Y-17592150D01*
X8417682Y-17592150D02*
X8398634Y-17601674D01*
X8398634Y-17601674D02*
X8389111Y-17611198D01*
X8598634Y-17725484D02*
X8579587Y-17715960D01*
X8579587Y-17715960D02*
X8570063Y-17706436D01*
X8570063Y-17706436D02*
X8560539Y-17687389D01*
X8560539Y-17687389D02*
X8560539Y-17630246D01*
X8560539Y-17630246D02*
X8570063Y-17611198D01*
X8570063Y-17611198D02*
X8579587Y-17601674D01*
X8579587Y-17601674D02*
X8598634Y-17592150D01*
X8598634Y-17592150D02*
X8627206Y-17592150D01*
X8627206Y-17592150D02*
X8646253Y-17601674D01*
X8646253Y-17601674D02*
X8655777Y-17611198D01*
X8655777Y-17611198D02*
X8665301Y-17630246D01*
X8665301Y-17630246D02*
X8665301Y-17687389D01*
X8665301Y-17687389D02*
X8655777Y-17706436D01*
X8655777Y-17706436D02*
X8646253Y-17715960D01*
X8646253Y-17715960D02*
X8627206Y-17725484D01*
X8627206Y-17725484D02*
X8598634Y-17725484D01*
X8779587Y-17725484D02*
X8760539Y-17715960D01*
X8760539Y-17715960D02*
X8751015Y-17696912D01*
X8751015Y-17696912D02*
X8751015Y-17525484D01*
X8931968Y-17715960D02*
X8912920Y-17725484D01*
X8912920Y-17725484D02*
X8874825Y-17725484D01*
X8874825Y-17725484D02*
X8855777Y-17715960D01*
X8855777Y-17715960D02*
X8846253Y-17696912D01*
X8846253Y-17696912D02*
X8846253Y-17620722D01*
X8846253Y-17620722D02*
X8855777Y-17601674D01*
X8855777Y-17601674D02*
X8874825Y-17592150D01*
X8874825Y-17592150D02*
X8912920Y-17592150D01*
X8912920Y-17592150D02*
X8931968Y-17601674D01*
X8931968Y-17601674D02*
X8941492Y-17620722D01*
X8941492Y-17620722D02*
X8941492Y-17639770D01*
X8941492Y-17639770D02*
X8846253Y-17658817D01*
X9017682Y-17715960D02*
X9036730Y-17725484D01*
X9036730Y-17725484D02*
X9074825Y-17725484D01*
X9074825Y-17725484D02*
X9093873Y-17715960D01*
X9093873Y-17715960D02*
X9103396Y-17696912D01*
X9103396Y-17696912D02*
X9103396Y-17687389D01*
X9103396Y-17687389D02*
X9093873Y-17668341D01*
X9093873Y-17668341D02*
X9074825Y-17658817D01*
X9074825Y-17658817D02*
X9046253Y-17658817D01*
X9046253Y-17658817D02*
X9027206Y-17649293D01*
X9027206Y-17649293D02*
X9017682Y-17630246D01*
X9017682Y-17630246D02*
X9017682Y-17620722D01*
X9017682Y-17620722D02*
X9027206Y-17601674D01*
X9027206Y-17601674D02*
X9046253Y-17592150D01*
X9046253Y-17592150D02*
X9074825Y-17592150D01*
X9074825Y-17592150D02*
X9093873Y-17601674D01*
X9170063Y-17801674D02*
X9179587Y-17792150D01*
X9179587Y-17792150D02*
X9198634Y-17763579D01*
X9198634Y-17763579D02*
X9208158Y-17744531D01*
X9208158Y-17744531D02*
X9217682Y-17715960D01*
X9217682Y-17715960D02*
X9227206Y-17668341D01*
X9227206Y-17668341D02*
X9227206Y-17630246D01*
X9227206Y-17630246D02*
X9217682Y-17582627D01*
X9217682Y-17582627D02*
X9208158Y-17554055D01*
X9208158Y-17554055D02*
X9198634Y-17535008D01*
X9198634Y-17535008D02*
X9179587Y-17506436D01*
X9179587Y-17506436D02*
X9170063Y-17496912D01*
D10*
X4350000Y-17853000D02*
X4350000Y-17943000D01*
X4305000Y-17898000D02*
X4395000Y-17898000D01*
D11*
X4693872Y-17789484D02*
X4712920Y-17789484D01*
X4712920Y-17789484D02*
X4731967Y-17799008D01*
X4731967Y-17799008D02*
X4741491Y-17808531D01*
X4741491Y-17808531D02*
X4751015Y-17827579D01*
X4751015Y-17827579D02*
X4760539Y-17865674D01*
X4760539Y-17865674D02*
X4760539Y-17913293D01*
X4760539Y-17913293D02*
X4751015Y-17951389D01*
X4751015Y-17951389D02*
X4741491Y-17970436D01*
X4741491Y-17970436D02*
X4731967Y-17979960D01*
X4731967Y-17979960D02*
X4712920Y-17989484D01*
X4712920Y-17989484D02*
X4693872Y-17989484D01*
X4693872Y-17989484D02*
X4674824Y-17979960D01*
X4674824Y-17979960D02*
X4665301Y-17970436D01*
X4665301Y-17970436D02*
X4655777Y-17951389D01*
X4655777Y-17951389D02*
X4646253Y-17913293D01*
X4646253Y-17913293D02*
X4646253Y-17865674D01*
X4646253Y-17865674D02*
X4655777Y-17827579D01*
X4655777Y-17827579D02*
X4665301Y-17808531D01*
X4665301Y-17808531D02*
X4674824Y-17799008D01*
X4674824Y-17799008D02*
X4693872Y-17789484D01*
X4846253Y-17970436D02*
X4855777Y-17979960D01*
X4855777Y-17979960D02*
X4846253Y-17989484D01*
X4846253Y-17989484D02*
X4836729Y-17979960D01*
X4836729Y-17979960D02*
X4846253Y-17970436D01*
X4846253Y-17970436D02*
X4846253Y-17989484D01*
X4951015Y-17989484D02*
X4989110Y-17989484D01*
X4989110Y-17989484D02*
X5008158Y-17979960D01*
X5008158Y-17979960D02*
X5017682Y-17970436D01*
X5017682Y-17970436D02*
X5036729Y-17941865D01*
X5036729Y-17941865D02*
X5046253Y-17903770D01*
X5046253Y-17903770D02*
X5046253Y-17827579D01*
X5046253Y-17827579D02*
X5036729Y-17808531D01*
X5036729Y-17808531D02*
X5027205Y-17799008D01*
X5027205Y-17799008D02*
X5008158Y-17789484D01*
X5008158Y-17789484D02*
X4970063Y-17789484D01*
X4970063Y-17789484D02*
X4951015Y-17799008D01*
X4951015Y-17799008D02*
X4941491Y-17808531D01*
X4941491Y-17808531D02*
X4931967Y-17827579D01*
X4931967Y-17827579D02*
X4931967Y-17875198D01*
X4931967Y-17875198D02*
X4941491Y-17894246D01*
X4941491Y-17894246D02*
X4951015Y-17903770D01*
X4951015Y-17903770D02*
X4970063Y-17913293D01*
X4970063Y-17913293D02*
X5008158Y-17913293D01*
X5008158Y-17913293D02*
X5027205Y-17903770D01*
X5027205Y-17903770D02*
X5036729Y-17894246D01*
X5036729Y-17894246D02*
X5046253Y-17875198D01*
X5170063Y-17789484D02*
X5189110Y-17789484D01*
X5189110Y-17789484D02*
X5208158Y-17799008D01*
X5208158Y-17799008D02*
X5217682Y-17808531D01*
X5217682Y-17808531D02*
X5227205Y-17827579D01*
X5227205Y-17827579D02*
X5236729Y-17865674D01*
X5236729Y-17865674D02*
X5236729Y-17913293D01*
X5236729Y-17913293D02*
X5227205Y-17951389D01*
X5227205Y-17951389D02*
X5217682Y-17970436D01*
X5217682Y-17970436D02*
X5208158Y-17979960D01*
X5208158Y-17979960D02*
X5189110Y-17989484D01*
X5189110Y-17989484D02*
X5170063Y-17989484D01*
X5170063Y-17989484D02*
X5151015Y-17979960D01*
X5151015Y-17979960D02*
X5141491Y-17970436D01*
X5141491Y-17970436D02*
X5131967Y-17951389D01*
X5131967Y-17951389D02*
X5122444Y-17913293D01*
X5122444Y-17913293D02*
X5122444Y-17865674D01*
X5122444Y-17865674D02*
X5131967Y-17827579D01*
X5131967Y-17827579D02*
X5141491Y-17808531D01*
X5141491Y-17808531D02*
X5151015Y-17799008D01*
X5151015Y-17799008D02*
X5170063Y-17789484D01*
X5360539Y-17789484D02*
X5379586Y-17789484D01*
X5379586Y-17789484D02*
X5398634Y-17799008D01*
X5398634Y-17799008D02*
X5408158Y-17808531D01*
X5408158Y-17808531D02*
X5417682Y-17827579D01*
X5417682Y-17827579D02*
X5427205Y-17865674D01*
X5427205Y-17865674D02*
X5427205Y-17913293D01*
X5427205Y-17913293D02*
X5417682Y-17951389D01*
X5417682Y-17951389D02*
X5408158Y-17970436D01*
X5408158Y-17970436D02*
X5398634Y-17979960D01*
X5398634Y-17979960D02*
X5379586Y-17989484D01*
X5379586Y-17989484D02*
X5360539Y-17989484D01*
X5360539Y-17989484D02*
X5341491Y-17979960D01*
X5341491Y-17979960D02*
X5331967Y-17970436D01*
X5331967Y-17970436D02*
X5322444Y-17951389D01*
X5322444Y-17951389D02*
X5312920Y-17913293D01*
X5312920Y-17913293D02*
X5312920Y-17865674D01*
X5312920Y-17865674D02*
X5322444Y-17827579D01*
X5322444Y-17827579D02*
X5331967Y-17808531D01*
X5331967Y-17808531D02*
X5341491Y-17799008D01*
X5341491Y-17799008D02*
X5360539Y-17789484D01*
X5512920Y-17989484D02*
X5512920Y-17856150D01*
X5512920Y-17875198D02*
X5522444Y-17865674D01*
X5522444Y-17865674D02*
X5541491Y-17856150D01*
X5541491Y-17856150D02*
X5570063Y-17856150D01*
X5570063Y-17856150D02*
X5589110Y-17865674D01*
X5589110Y-17865674D02*
X5598634Y-17884722D01*
X5598634Y-17884722D02*
X5598634Y-17989484D01*
X5598634Y-17884722D02*
X5608158Y-17865674D01*
X5608158Y-17865674D02*
X5627205Y-17856150D01*
X5627205Y-17856150D02*
X5655777Y-17856150D01*
X5655777Y-17856150D02*
X5674824Y-17865674D01*
X5674824Y-17865674D02*
X5684348Y-17884722D01*
X5684348Y-17884722D02*
X5684348Y-17989484D01*
X5779586Y-17989484D02*
X5779586Y-17856150D01*
X5779586Y-17875198D02*
X5789110Y-17865674D01*
X5789110Y-17865674D02*
X5808158Y-17856150D01*
X5808158Y-17856150D02*
X5836729Y-17856150D01*
X5836729Y-17856150D02*
X5855777Y-17865674D01*
X5855777Y-17865674D02*
X5865301Y-17884722D01*
X5865301Y-17884722D02*
X5865301Y-17989484D01*
X5865301Y-17884722D02*
X5874824Y-17865674D01*
X5874824Y-17865674D02*
X5893872Y-17856150D01*
X5893872Y-17856150D02*
X5922443Y-17856150D01*
X5922443Y-17856150D02*
X5941491Y-17865674D01*
X5941491Y-17865674D02*
X5951015Y-17884722D01*
X5951015Y-17884722D02*
X5951015Y-17989484D01*
X6341491Y-17779960D02*
X6170063Y-18037103D01*
X6598634Y-17789484D02*
X6617682Y-17789484D01*
X6617682Y-17789484D02*
X6636729Y-17799008D01*
X6636729Y-17799008D02*
X6646253Y-17808531D01*
X6646253Y-17808531D02*
X6655777Y-17827579D01*
X6655777Y-17827579D02*
X6665301Y-17865674D01*
X6665301Y-17865674D02*
X6665301Y-17913293D01*
X6665301Y-17913293D02*
X6655777Y-17951389D01*
X6655777Y-17951389D02*
X6646253Y-17970436D01*
X6646253Y-17970436D02*
X6636729Y-17979960D01*
X6636729Y-17979960D02*
X6617682Y-17989484D01*
X6617682Y-17989484D02*
X6598634Y-17989484D01*
X6598634Y-17989484D02*
X6579586Y-17979960D01*
X6579586Y-17979960D02*
X6570063Y-17970436D01*
X6570063Y-17970436D02*
X6560539Y-17951389D01*
X6560539Y-17951389D02*
X6551015Y-17913293D01*
X6551015Y-17913293D02*
X6551015Y-17865674D01*
X6551015Y-17865674D02*
X6560539Y-17827579D01*
X6560539Y-17827579D02*
X6570063Y-17808531D01*
X6570063Y-17808531D02*
X6579586Y-17799008D01*
X6579586Y-17799008D02*
X6598634Y-17789484D01*
X6751015Y-17970436D02*
X6760539Y-17979960D01*
X6760539Y-17979960D02*
X6751015Y-17989484D01*
X6751015Y-17989484D02*
X6741491Y-17979960D01*
X6741491Y-17979960D02*
X6751015Y-17970436D01*
X6751015Y-17970436D02*
X6751015Y-17989484D01*
X6884348Y-17789484D02*
X6903396Y-17789484D01*
X6903396Y-17789484D02*
X6922444Y-17799008D01*
X6922444Y-17799008D02*
X6931967Y-17808531D01*
X6931967Y-17808531D02*
X6941491Y-17827579D01*
X6941491Y-17827579D02*
X6951015Y-17865674D01*
X6951015Y-17865674D02*
X6951015Y-17913293D01*
X6951015Y-17913293D02*
X6941491Y-17951389D01*
X6941491Y-17951389D02*
X6931967Y-17970436D01*
X6931967Y-17970436D02*
X6922444Y-17979960D01*
X6922444Y-17979960D02*
X6903396Y-17989484D01*
X6903396Y-17989484D02*
X6884348Y-17989484D01*
X6884348Y-17989484D02*
X6865301Y-17979960D01*
X6865301Y-17979960D02*
X6855777Y-17970436D01*
X6855777Y-17970436D02*
X6846253Y-17951389D01*
X6846253Y-17951389D02*
X6836729Y-17913293D01*
X6836729Y-17913293D02*
X6836729Y-17865674D01*
X6836729Y-17865674D02*
X6846253Y-17827579D01*
X6846253Y-17827579D02*
X6855777Y-17808531D01*
X6855777Y-17808531D02*
X6865301Y-17799008D01*
X6865301Y-17799008D02*
X6884348Y-17789484D01*
X7017682Y-17789484D02*
X7141491Y-17789484D01*
X7141491Y-17789484D02*
X7074825Y-17865674D01*
X7074825Y-17865674D02*
X7103396Y-17865674D01*
X7103396Y-17865674D02*
X7122444Y-17875198D01*
X7122444Y-17875198D02*
X7131967Y-17884722D01*
X7131967Y-17884722D02*
X7141491Y-17903770D01*
X7141491Y-17903770D02*
X7141491Y-17951389D01*
X7141491Y-17951389D02*
X7131967Y-17970436D01*
X7131967Y-17970436D02*
X7122444Y-17979960D01*
X7122444Y-17979960D02*
X7103396Y-17989484D01*
X7103396Y-17989484D02*
X7046253Y-17989484D01*
X7046253Y-17989484D02*
X7027206Y-17979960D01*
X7027206Y-17979960D02*
X7017682Y-17970436D01*
X7322444Y-17789484D02*
X7227206Y-17789484D01*
X7227206Y-17789484D02*
X7217682Y-17884722D01*
X7217682Y-17884722D02*
X7227206Y-17875198D01*
X7227206Y-17875198D02*
X7246253Y-17865674D01*
X7246253Y-17865674D02*
X7293872Y-17865674D01*
X7293872Y-17865674D02*
X7312920Y-17875198D01*
X7312920Y-17875198D02*
X7322444Y-17884722D01*
X7322444Y-17884722D02*
X7331967Y-17903770D01*
X7331967Y-17903770D02*
X7331967Y-17951389D01*
X7331967Y-17951389D02*
X7322444Y-17970436D01*
X7322444Y-17970436D02*
X7312920Y-17979960D01*
X7312920Y-17979960D02*
X7293872Y-17989484D01*
X7293872Y-17989484D02*
X7246253Y-17989484D01*
X7246253Y-17989484D02*
X7227206Y-17979960D01*
X7227206Y-17979960D02*
X7217682Y-17970436D01*
X7503396Y-17856150D02*
X7503396Y-17989484D01*
X7455777Y-17779960D02*
X7408158Y-17922817D01*
X7408158Y-17922817D02*
X7531967Y-17922817D01*
X7598634Y-17789484D02*
X7598634Y-17827579D01*
X7674825Y-17789484D02*
X7674825Y-17827579D01*
X7970063Y-18065674D02*
X7960539Y-18056150D01*
X7960539Y-18056150D02*
X7941491Y-18027579D01*
X7941491Y-18027579D02*
X7931968Y-18008531D01*
X7931968Y-18008531D02*
X7922444Y-17979960D01*
X7922444Y-17979960D02*
X7912920Y-17932341D01*
X7912920Y-17932341D02*
X7912920Y-17894246D01*
X7912920Y-17894246D02*
X7922444Y-17846627D01*
X7922444Y-17846627D02*
X7931968Y-17818055D01*
X7931968Y-17818055D02*
X7941491Y-17799008D01*
X7941491Y-17799008D02*
X7960539Y-17770436D01*
X7960539Y-17770436D02*
X7970063Y-17760912D01*
X8036729Y-17808531D02*
X8046253Y-17799008D01*
X8046253Y-17799008D02*
X8065301Y-17789484D01*
X8065301Y-17789484D02*
X8112920Y-17789484D01*
X8112920Y-17789484D02*
X8131968Y-17799008D01*
X8131968Y-17799008D02*
X8141491Y-17808531D01*
X8141491Y-17808531D02*
X8151015Y-17827579D01*
X8151015Y-17827579D02*
X8151015Y-17846627D01*
X8151015Y-17846627D02*
X8141491Y-17875198D01*
X8141491Y-17875198D02*
X8027206Y-17989484D01*
X8027206Y-17989484D02*
X8151015Y-17989484D01*
X8389111Y-17989484D02*
X8389111Y-17789484D01*
X8474825Y-17989484D02*
X8474825Y-17884722D01*
X8474825Y-17884722D02*
X8465301Y-17865674D01*
X8465301Y-17865674D02*
X8446253Y-17856150D01*
X8446253Y-17856150D02*
X8417682Y-17856150D01*
X8417682Y-17856150D02*
X8398634Y-17865674D01*
X8398634Y-17865674D02*
X8389111Y-17875198D01*
X8598634Y-17989484D02*
X8579587Y-17979960D01*
X8579587Y-17979960D02*
X8570063Y-17970436D01*
X8570063Y-17970436D02*
X8560539Y-17951389D01*
X8560539Y-17951389D02*
X8560539Y-17894246D01*
X8560539Y-17894246D02*
X8570063Y-17875198D01*
X8570063Y-17875198D02*
X8579587Y-17865674D01*
X8579587Y-17865674D02*
X8598634Y-17856150D01*
X8598634Y-17856150D02*
X8627206Y-17856150D01*
X8627206Y-17856150D02*
X8646253Y-17865674D01*
X8646253Y-17865674D02*
X8655777Y-17875198D01*
X8655777Y-17875198D02*
X8665301Y-17894246D01*
X8665301Y-17894246D02*
X8665301Y-17951389D01*
X8665301Y-17951389D02*
X8655777Y-17970436D01*
X8655777Y-17970436D02*
X8646253Y-17979960D01*
X8646253Y-17979960D02*
X8627206Y-17989484D01*
X8627206Y-17989484D02*
X8598634Y-17989484D01*
X8779587Y-17989484D02*
X8760539Y-17979960D01*
X8760539Y-17979960D02*
X8751015Y-17960912D01*
X8751015Y-17960912D02*
X8751015Y-17789484D01*
X8931968Y-17979960D02*
X8912920Y-17989484D01*
X8912920Y-17989484D02*
X8874825Y-17989484D01*
X8874825Y-17989484D02*
X8855777Y-17979960D01*
X8855777Y-17979960D02*
X8846253Y-17960912D01*
X8846253Y-17960912D02*
X8846253Y-17884722D01*
X8846253Y-17884722D02*
X8855777Y-17865674D01*
X8855777Y-17865674D02*
X8874825Y-17856150D01*
X8874825Y-17856150D02*
X8912920Y-17856150D01*
X8912920Y-17856150D02*
X8931968Y-17865674D01*
X8931968Y-17865674D02*
X8941492Y-17884722D01*
X8941492Y-17884722D02*
X8941492Y-17903770D01*
X8941492Y-17903770D02*
X8846253Y-17922817D01*
X9017682Y-17979960D02*
X9036730Y-17989484D01*
X9036730Y-17989484D02*
X9074825Y-17989484D01*
X9074825Y-17989484D02*
X9093873Y-17979960D01*
X9093873Y-17979960D02*
X9103396Y-17960912D01*
X9103396Y-17960912D02*
X9103396Y-17951389D01*
X9103396Y-17951389D02*
X9093873Y-17932341D01*
X9093873Y-17932341D02*
X9074825Y-17922817D01*
X9074825Y-17922817D02*
X9046253Y-17922817D01*
X9046253Y-17922817D02*
X9027206Y-17913293D01*
X9027206Y-17913293D02*
X9017682Y-17894246D01*
X9017682Y-17894246D02*
X9017682Y-17884722D01*
X9017682Y-17884722D02*
X9027206Y-17865674D01*
X9027206Y-17865674D02*
X9046253Y-17856150D01*
X9046253Y-17856150D02*
X9074825Y-17856150D01*
X9074825Y-17856150D02*
X9093873Y-17865674D01*
X9170063Y-18065674D02*
X9179587Y-18056150D01*
X9179587Y-18056150D02*
X9198634Y-18027579D01*
X9198634Y-18027579D02*
X9208158Y-18008531D01*
X9208158Y-18008531D02*
X9217682Y-17979960D01*
X9217682Y-17979960D02*
X9227206Y-17932341D01*
X9227206Y-17932341D02*
X9227206Y-17894246D01*
X9227206Y-17894246D02*
X9217682Y-17846627D01*
X9217682Y-17846627D02*
X9208158Y-17818055D01*
X9208158Y-17818055D02*
X9198634Y-17799008D01*
X9198634Y-17799008D02*
X9179587Y-17770436D01*
X9179587Y-17770436D02*
X9170063Y-17760912D01*
D12*
X4380063Y-18198063D02*
X4380063Y-18125937D01*
X4307937Y-18125937D01*
X4307937Y-18198063D01*
X4380063Y-18198063D01*
D11*
X4760539Y-18253484D02*
X4646253Y-18253484D01*
X4703396Y-18253484D02*
X4703396Y-18053484D01*
X4703396Y-18053484D02*
X4684348Y-18082055D01*
X4684348Y-18082055D02*
X4665301Y-18101103D01*
X4665301Y-18101103D02*
X4646253Y-18110627D01*
X4846253Y-18234436D02*
X4855777Y-18243960D01*
X4855777Y-18243960D02*
X4846253Y-18253484D01*
X4846253Y-18253484D02*
X4836729Y-18243960D01*
X4836729Y-18243960D02*
X4846253Y-18234436D01*
X4846253Y-18234436D02*
X4846253Y-18253484D01*
X4979586Y-18053484D02*
X4998634Y-18053484D01*
X4998634Y-18053484D02*
X5017682Y-18063008D01*
X5017682Y-18063008D02*
X5027205Y-18072531D01*
X5027205Y-18072531D02*
X5036729Y-18091579D01*
X5036729Y-18091579D02*
X5046253Y-18129674D01*
X5046253Y-18129674D02*
X5046253Y-18177293D01*
X5046253Y-18177293D02*
X5036729Y-18215389D01*
X5036729Y-18215389D02*
X5027205Y-18234436D01*
X5027205Y-18234436D02*
X5017682Y-18243960D01*
X5017682Y-18243960D02*
X4998634Y-18253484D01*
X4998634Y-18253484D02*
X4979586Y-18253484D01*
X4979586Y-18253484D02*
X4960539Y-18243960D01*
X4960539Y-18243960D02*
X4951015Y-18234436D01*
X4951015Y-18234436D02*
X4941491Y-18215389D01*
X4941491Y-18215389D02*
X4931967Y-18177293D01*
X4931967Y-18177293D02*
X4931967Y-18129674D01*
X4931967Y-18129674D02*
X4941491Y-18091579D01*
X4941491Y-18091579D02*
X4951015Y-18072531D01*
X4951015Y-18072531D02*
X4960539Y-18063008D01*
X4960539Y-18063008D02*
X4979586Y-18053484D01*
X5122444Y-18072531D02*
X5131967Y-18063008D01*
X5131967Y-18063008D02*
X5151015Y-18053484D01*
X5151015Y-18053484D02*
X5198634Y-18053484D01*
X5198634Y-18053484D02*
X5217682Y-18063008D01*
X5217682Y-18063008D02*
X5227205Y-18072531D01*
X5227205Y-18072531D02*
X5236729Y-18091579D01*
X5236729Y-18091579D02*
X5236729Y-18110627D01*
X5236729Y-18110627D02*
X5227205Y-18139198D01*
X5227205Y-18139198D02*
X5112920Y-18253484D01*
X5112920Y-18253484D02*
X5236729Y-18253484D01*
X5360539Y-18053484D02*
X5379586Y-18053484D01*
X5379586Y-18053484D02*
X5398634Y-18063008D01*
X5398634Y-18063008D02*
X5408158Y-18072531D01*
X5408158Y-18072531D02*
X5417682Y-18091579D01*
X5417682Y-18091579D02*
X5427205Y-18129674D01*
X5427205Y-18129674D02*
X5427205Y-18177293D01*
X5427205Y-18177293D02*
X5417682Y-18215389D01*
X5417682Y-18215389D02*
X5408158Y-18234436D01*
X5408158Y-18234436D02*
X5398634Y-18243960D01*
X5398634Y-18243960D02*
X5379586Y-18253484D01*
X5379586Y-18253484D02*
X5360539Y-18253484D01*
X5360539Y-18253484D02*
X5341491Y-18243960D01*
X5341491Y-18243960D02*
X5331967Y-18234436D01*
X5331967Y-18234436D02*
X5322444Y-18215389D01*
X5322444Y-18215389D02*
X5312920Y-18177293D01*
X5312920Y-18177293D02*
X5312920Y-18129674D01*
X5312920Y-18129674D02*
X5322444Y-18091579D01*
X5322444Y-18091579D02*
X5331967Y-18072531D01*
X5331967Y-18072531D02*
X5341491Y-18063008D01*
X5341491Y-18063008D02*
X5360539Y-18053484D01*
X5512920Y-18253484D02*
X5512920Y-18120150D01*
X5512920Y-18139198D02*
X5522444Y-18129674D01*
X5522444Y-18129674D02*
X5541491Y-18120150D01*
X5541491Y-18120150D02*
X5570063Y-18120150D01*
X5570063Y-18120150D02*
X5589110Y-18129674D01*
X5589110Y-18129674D02*
X5598634Y-18148722D01*
X5598634Y-18148722D02*
X5598634Y-18253484D01*
X5598634Y-18148722D02*
X5608158Y-18129674D01*
X5608158Y-18129674D02*
X5627205Y-18120150D01*
X5627205Y-18120150D02*
X5655777Y-18120150D01*
X5655777Y-18120150D02*
X5674824Y-18129674D01*
X5674824Y-18129674D02*
X5684348Y-18148722D01*
X5684348Y-18148722D02*
X5684348Y-18253484D01*
X5779586Y-18253484D02*
X5779586Y-18120150D01*
X5779586Y-18139198D02*
X5789110Y-18129674D01*
X5789110Y-18129674D02*
X5808158Y-18120150D01*
X5808158Y-18120150D02*
X5836729Y-18120150D01*
X5836729Y-18120150D02*
X5855777Y-18129674D01*
X5855777Y-18129674D02*
X5865301Y-18148722D01*
X5865301Y-18148722D02*
X5865301Y-18253484D01*
X5865301Y-18148722D02*
X5874824Y-18129674D01*
X5874824Y-18129674D02*
X5893872Y-18120150D01*
X5893872Y-18120150D02*
X5922443Y-18120150D01*
X5922443Y-18120150D02*
X5941491Y-18129674D01*
X5941491Y-18129674D02*
X5951015Y-18148722D01*
X5951015Y-18148722D02*
X5951015Y-18253484D01*
X6341491Y-18043960D02*
X6170063Y-18301103D01*
X6598634Y-18053484D02*
X6617682Y-18053484D01*
X6617682Y-18053484D02*
X6636729Y-18063008D01*
X6636729Y-18063008D02*
X6646253Y-18072531D01*
X6646253Y-18072531D02*
X6655777Y-18091579D01*
X6655777Y-18091579D02*
X6665301Y-18129674D01*
X6665301Y-18129674D02*
X6665301Y-18177293D01*
X6665301Y-18177293D02*
X6655777Y-18215389D01*
X6655777Y-18215389D02*
X6646253Y-18234436D01*
X6646253Y-18234436D02*
X6636729Y-18243960D01*
X6636729Y-18243960D02*
X6617682Y-18253484D01*
X6617682Y-18253484D02*
X6598634Y-18253484D01*
X6598634Y-18253484D02*
X6579586Y-18243960D01*
X6579586Y-18243960D02*
X6570063Y-18234436D01*
X6570063Y-18234436D02*
X6560539Y-18215389D01*
X6560539Y-18215389D02*
X6551015Y-18177293D01*
X6551015Y-18177293D02*
X6551015Y-18129674D01*
X6551015Y-18129674D02*
X6560539Y-18091579D01*
X6560539Y-18091579D02*
X6570063Y-18072531D01*
X6570063Y-18072531D02*
X6579586Y-18063008D01*
X6579586Y-18063008D02*
X6598634Y-18053484D01*
X6751015Y-18234436D02*
X6760539Y-18243960D01*
X6760539Y-18243960D02*
X6751015Y-18253484D01*
X6751015Y-18253484D02*
X6741491Y-18243960D01*
X6741491Y-18243960D02*
X6751015Y-18234436D01*
X6751015Y-18234436D02*
X6751015Y-18253484D01*
X6884348Y-18053484D02*
X6903396Y-18053484D01*
X6903396Y-18053484D02*
X6922444Y-18063008D01*
X6922444Y-18063008D02*
X6931967Y-18072531D01*
X6931967Y-18072531D02*
X6941491Y-18091579D01*
X6941491Y-18091579D02*
X6951015Y-18129674D01*
X6951015Y-18129674D02*
X6951015Y-18177293D01*
X6951015Y-18177293D02*
X6941491Y-18215389D01*
X6941491Y-18215389D02*
X6931967Y-18234436D01*
X6931967Y-18234436D02*
X6922444Y-18243960D01*
X6922444Y-18243960D02*
X6903396Y-18253484D01*
X6903396Y-18253484D02*
X6884348Y-18253484D01*
X6884348Y-18253484D02*
X6865301Y-18243960D01*
X6865301Y-18243960D02*
X6855777Y-18234436D01*
X6855777Y-18234436D02*
X6846253Y-18215389D01*
X6846253Y-18215389D02*
X6836729Y-18177293D01*
X6836729Y-18177293D02*
X6836729Y-18129674D01*
X6836729Y-18129674D02*
X6846253Y-18091579D01*
X6846253Y-18091579D02*
X6855777Y-18072531D01*
X6855777Y-18072531D02*
X6865301Y-18063008D01*
X6865301Y-18063008D02*
X6884348Y-18053484D01*
X7122444Y-18120150D02*
X7122444Y-18253484D01*
X7074825Y-18043960D02*
X7027206Y-18186817D01*
X7027206Y-18186817D02*
X7151015Y-18186817D01*
X7265301Y-18053484D02*
X7284348Y-18053484D01*
X7284348Y-18053484D02*
X7303396Y-18063008D01*
X7303396Y-18063008D02*
X7312920Y-18072531D01*
X7312920Y-18072531D02*
X7322444Y-18091579D01*
X7322444Y-18091579D02*
X7331967Y-18129674D01*
X7331967Y-18129674D02*
X7331967Y-18177293D01*
X7331967Y-18177293D02*
X7322444Y-18215389D01*
X7322444Y-18215389D02*
X7312920Y-18234436D01*
X7312920Y-18234436D02*
X7303396Y-18243960D01*
X7303396Y-18243960D02*
X7284348Y-18253484D01*
X7284348Y-18253484D02*
X7265301Y-18253484D01*
X7265301Y-18253484D02*
X7246253Y-18243960D01*
X7246253Y-18243960D02*
X7236729Y-18234436D01*
X7236729Y-18234436D02*
X7227206Y-18215389D01*
X7227206Y-18215389D02*
X7217682Y-18177293D01*
X7217682Y-18177293D02*
X7217682Y-18129674D01*
X7217682Y-18129674D02*
X7227206Y-18091579D01*
X7227206Y-18091579D02*
X7236729Y-18072531D01*
X7236729Y-18072531D02*
X7246253Y-18063008D01*
X7246253Y-18063008D02*
X7265301Y-18053484D01*
X7408158Y-18072531D02*
X7417682Y-18063008D01*
X7417682Y-18063008D02*
X7436729Y-18053484D01*
X7436729Y-18053484D02*
X7484348Y-18053484D01*
X7484348Y-18053484D02*
X7503396Y-18063008D01*
X7503396Y-18063008D02*
X7512920Y-18072531D01*
X7512920Y-18072531D02*
X7522444Y-18091579D01*
X7522444Y-18091579D02*
X7522444Y-18110627D01*
X7522444Y-18110627D02*
X7512920Y-18139198D01*
X7512920Y-18139198D02*
X7398634Y-18253484D01*
X7398634Y-18253484D02*
X7522444Y-18253484D01*
X7598634Y-18053484D02*
X7598634Y-18091579D01*
X7674825Y-18053484D02*
X7674825Y-18091579D01*
X7970063Y-18329674D02*
X7960539Y-18320150D01*
X7960539Y-18320150D02*
X7941491Y-18291579D01*
X7941491Y-18291579D02*
X7931968Y-18272531D01*
X7931968Y-18272531D02*
X7922444Y-18243960D01*
X7922444Y-18243960D02*
X7912920Y-18196341D01*
X7912920Y-18196341D02*
X7912920Y-18158246D01*
X7912920Y-18158246D02*
X7922444Y-18110627D01*
X7922444Y-18110627D02*
X7931968Y-18082055D01*
X7931968Y-18082055D02*
X7941491Y-18063008D01*
X7941491Y-18063008D02*
X7960539Y-18034436D01*
X7960539Y-18034436D02*
X7970063Y-18024912D01*
X8131968Y-18120150D02*
X8131968Y-18253484D01*
X8084348Y-18043960D02*
X8036729Y-18186817D01*
X8036729Y-18186817D02*
X8160539Y-18186817D01*
X8389111Y-18253484D02*
X8389111Y-18053484D01*
X8474825Y-18253484D02*
X8474825Y-18148722D01*
X8474825Y-18148722D02*
X8465301Y-18129674D01*
X8465301Y-18129674D02*
X8446253Y-18120150D01*
X8446253Y-18120150D02*
X8417682Y-18120150D01*
X8417682Y-18120150D02*
X8398634Y-18129674D01*
X8398634Y-18129674D02*
X8389111Y-18139198D01*
X8598634Y-18253484D02*
X8579587Y-18243960D01*
X8579587Y-18243960D02*
X8570063Y-18234436D01*
X8570063Y-18234436D02*
X8560539Y-18215389D01*
X8560539Y-18215389D02*
X8560539Y-18158246D01*
X8560539Y-18158246D02*
X8570063Y-18139198D01*
X8570063Y-18139198D02*
X8579587Y-18129674D01*
X8579587Y-18129674D02*
X8598634Y-18120150D01*
X8598634Y-18120150D02*
X8627206Y-18120150D01*
X8627206Y-18120150D02*
X8646253Y-18129674D01*
X8646253Y-18129674D02*
X8655777Y-18139198D01*
X8655777Y-18139198D02*
X8665301Y-18158246D01*
X8665301Y-18158246D02*
X8665301Y-18215389D01*
X8665301Y-18215389D02*
X8655777Y-18234436D01*
X8655777Y-18234436D02*
X8646253Y-18243960D01*
X8646253Y-18243960D02*
X8627206Y-18253484D01*
X8627206Y-18253484D02*
X8598634Y-18253484D01*
X8779587Y-18253484D02*
X8760539Y-18243960D01*
X8760539Y-18243960D02*
X8751015Y-18224912D01*
X8751015Y-18224912D02*
X8751015Y-18053484D01*
X8931968Y-18243960D02*
X8912920Y-18253484D01*
X8912920Y-18253484D02*
X8874825Y-18253484D01*
X8874825Y-18253484D02*
X8855777Y-18243960D01*
X8855777Y-18243960D02*
X8846253Y-18224912D01*
X8846253Y-18224912D02*
X8846253Y-18148722D01*
X8846253Y-18148722D02*
X8855777Y-18129674D01*
X8855777Y-18129674D02*
X8874825Y-18120150D01*
X8874825Y-18120150D02*
X8912920Y-18120150D01*
X8912920Y-18120150D02*
X8931968Y-18129674D01*
X8931968Y-18129674D02*
X8941492Y-18148722D01*
X8941492Y-18148722D02*
X8941492Y-18167770D01*
X8941492Y-18167770D02*
X8846253Y-18186817D01*
X9017682Y-18243960D02*
X9036730Y-18253484D01*
X9036730Y-18253484D02*
X9074825Y-18253484D01*
X9074825Y-18253484D02*
X9093873Y-18243960D01*
X9093873Y-18243960D02*
X9103396Y-18224912D01*
X9103396Y-18224912D02*
X9103396Y-18215389D01*
X9103396Y-18215389D02*
X9093873Y-18196341D01*
X9093873Y-18196341D02*
X9074825Y-18186817D01*
X9074825Y-18186817D02*
X9046253Y-18186817D01*
X9046253Y-18186817D02*
X9027206Y-18177293D01*
X9027206Y-18177293D02*
X9017682Y-18158246D01*
X9017682Y-18158246D02*
X9017682Y-18148722D01*
X9017682Y-18148722D02*
X9027206Y-18129674D01*
X9027206Y-18129674D02*
X9046253Y-18120150D01*
X9046253Y-18120150D02*
X9074825Y-18120150D01*
X9074825Y-18120150D02*
X9093873Y-18129674D01*
X9170063Y-18329674D02*
X9179587Y-18320150D01*
X9179587Y-18320150D02*
X9198634Y-18291579D01*
X9198634Y-18291579D02*
X9208158Y-18272531D01*
X9208158Y-18272531D02*
X9217682Y-18243960D01*
X9217682Y-18243960D02*
X9227206Y-18196341D01*
X9227206Y-18196341D02*
X9227206Y-18158246D01*
X9227206Y-18158246D02*
X9217682Y-18110627D01*
X9217682Y-18110627D02*
X9208158Y-18082055D01*
X9208158Y-18082055D02*
X9198634Y-18063008D01*
X9198634Y-18063008D02*
X9179587Y-18034436D01*
X9179587Y-18034436D02*
X9170063Y-18024912D01*
D13*
X4330000Y-18491000D02*
X4395000Y-18426000D01*
X4330000Y-18361000D01*
X4265000Y-18426000D01*
X4330000Y-18491000D01*
D11*
X4760539Y-18517484D02*
X4646253Y-18517484D01*
X4703396Y-18517484D02*
X4703396Y-18317484D01*
X4703396Y-18317484D02*
X4684348Y-18346055D01*
X4684348Y-18346055D02*
X4665301Y-18365103D01*
X4665301Y-18365103D02*
X4646253Y-18374627D01*
X4846253Y-18498436D02*
X4855777Y-18507960D01*
X4855777Y-18507960D02*
X4846253Y-18517484D01*
X4846253Y-18517484D02*
X4836729Y-18507960D01*
X4836729Y-18507960D02*
X4846253Y-18498436D01*
X4846253Y-18498436D02*
X4846253Y-18517484D01*
X4922444Y-18317484D02*
X5046253Y-18317484D01*
X5046253Y-18317484D02*
X4979586Y-18393674D01*
X4979586Y-18393674D02*
X5008158Y-18393674D01*
X5008158Y-18393674D02*
X5027205Y-18403198D01*
X5027205Y-18403198D02*
X5036729Y-18412722D01*
X5036729Y-18412722D02*
X5046253Y-18431770D01*
X5046253Y-18431770D02*
X5046253Y-18479389D01*
X5046253Y-18479389D02*
X5036729Y-18498436D01*
X5036729Y-18498436D02*
X5027205Y-18507960D01*
X5027205Y-18507960D02*
X5008158Y-18517484D01*
X5008158Y-18517484D02*
X4951015Y-18517484D01*
X4951015Y-18517484D02*
X4931967Y-18507960D01*
X4931967Y-18507960D02*
X4922444Y-18498436D01*
X5170063Y-18317484D02*
X5189110Y-18317484D01*
X5189110Y-18317484D02*
X5208158Y-18327008D01*
X5208158Y-18327008D02*
X5217682Y-18336531D01*
X5217682Y-18336531D02*
X5227205Y-18355579D01*
X5227205Y-18355579D02*
X5236729Y-18393674D01*
X5236729Y-18393674D02*
X5236729Y-18441293D01*
X5236729Y-18441293D02*
X5227205Y-18479389D01*
X5227205Y-18479389D02*
X5217682Y-18498436D01*
X5217682Y-18498436D02*
X5208158Y-18507960D01*
X5208158Y-18507960D02*
X5189110Y-18517484D01*
X5189110Y-18517484D02*
X5170063Y-18517484D01*
X5170063Y-18517484D02*
X5151015Y-18507960D01*
X5151015Y-18507960D02*
X5141491Y-18498436D01*
X5141491Y-18498436D02*
X5131967Y-18479389D01*
X5131967Y-18479389D02*
X5122444Y-18441293D01*
X5122444Y-18441293D02*
X5122444Y-18393674D01*
X5122444Y-18393674D02*
X5131967Y-18355579D01*
X5131967Y-18355579D02*
X5141491Y-18336531D01*
X5141491Y-18336531D02*
X5151015Y-18327008D01*
X5151015Y-18327008D02*
X5170063Y-18317484D01*
X5360539Y-18317484D02*
X5379586Y-18317484D01*
X5379586Y-18317484D02*
X5398634Y-18327008D01*
X5398634Y-18327008D02*
X5408158Y-18336531D01*
X5408158Y-18336531D02*
X5417682Y-18355579D01*
X5417682Y-18355579D02*
X5427205Y-18393674D01*
X5427205Y-18393674D02*
X5427205Y-18441293D01*
X5427205Y-18441293D02*
X5417682Y-18479389D01*
X5417682Y-18479389D02*
X5408158Y-18498436D01*
X5408158Y-18498436D02*
X5398634Y-18507960D01*
X5398634Y-18507960D02*
X5379586Y-18517484D01*
X5379586Y-18517484D02*
X5360539Y-18517484D01*
X5360539Y-18517484D02*
X5341491Y-18507960D01*
X5341491Y-18507960D02*
X5331967Y-18498436D01*
X5331967Y-18498436D02*
X5322444Y-18479389D01*
X5322444Y-18479389D02*
X5312920Y-18441293D01*
X5312920Y-18441293D02*
X5312920Y-18393674D01*
X5312920Y-18393674D02*
X5322444Y-18355579D01*
X5322444Y-18355579D02*
X5331967Y-18336531D01*
X5331967Y-18336531D02*
X5341491Y-18327008D01*
X5341491Y-18327008D02*
X5360539Y-18317484D01*
X5512920Y-18517484D02*
X5512920Y-18384150D01*
X5512920Y-18403198D02*
X5522444Y-18393674D01*
X5522444Y-18393674D02*
X5541491Y-18384150D01*
X5541491Y-18384150D02*
X5570063Y-18384150D01*
X5570063Y-18384150D02*
X5589110Y-18393674D01*
X5589110Y-18393674D02*
X5598634Y-18412722D01*
X5598634Y-18412722D02*
X5598634Y-18517484D01*
X5598634Y-18412722D02*
X5608158Y-18393674D01*
X5608158Y-18393674D02*
X5627205Y-18384150D01*
X5627205Y-18384150D02*
X5655777Y-18384150D01*
X5655777Y-18384150D02*
X5674824Y-18393674D01*
X5674824Y-18393674D02*
X5684348Y-18412722D01*
X5684348Y-18412722D02*
X5684348Y-18517484D01*
X5779586Y-18517484D02*
X5779586Y-18384150D01*
X5779586Y-18403198D02*
X5789110Y-18393674D01*
X5789110Y-18393674D02*
X5808158Y-18384150D01*
X5808158Y-18384150D02*
X5836729Y-18384150D01*
X5836729Y-18384150D02*
X5855777Y-18393674D01*
X5855777Y-18393674D02*
X5865301Y-18412722D01*
X5865301Y-18412722D02*
X5865301Y-18517484D01*
X5865301Y-18412722D02*
X5874824Y-18393674D01*
X5874824Y-18393674D02*
X5893872Y-18384150D01*
X5893872Y-18384150D02*
X5922443Y-18384150D01*
X5922443Y-18384150D02*
X5941491Y-18393674D01*
X5941491Y-18393674D02*
X5951015Y-18412722D01*
X5951015Y-18412722D02*
X5951015Y-18517484D01*
X6341491Y-18307960D02*
X6170063Y-18565103D01*
X6598634Y-18317484D02*
X6617682Y-18317484D01*
X6617682Y-18317484D02*
X6636729Y-18327008D01*
X6636729Y-18327008D02*
X6646253Y-18336531D01*
X6646253Y-18336531D02*
X6655777Y-18355579D01*
X6655777Y-18355579D02*
X6665301Y-18393674D01*
X6665301Y-18393674D02*
X6665301Y-18441293D01*
X6665301Y-18441293D02*
X6655777Y-18479389D01*
X6655777Y-18479389D02*
X6646253Y-18498436D01*
X6646253Y-18498436D02*
X6636729Y-18507960D01*
X6636729Y-18507960D02*
X6617682Y-18517484D01*
X6617682Y-18517484D02*
X6598634Y-18517484D01*
X6598634Y-18517484D02*
X6579586Y-18507960D01*
X6579586Y-18507960D02*
X6570063Y-18498436D01*
X6570063Y-18498436D02*
X6560539Y-18479389D01*
X6560539Y-18479389D02*
X6551015Y-18441293D01*
X6551015Y-18441293D02*
X6551015Y-18393674D01*
X6551015Y-18393674D02*
X6560539Y-18355579D01*
X6560539Y-18355579D02*
X6570063Y-18336531D01*
X6570063Y-18336531D02*
X6579586Y-18327008D01*
X6579586Y-18327008D02*
X6598634Y-18317484D01*
X6751015Y-18498436D02*
X6760539Y-18507960D01*
X6760539Y-18507960D02*
X6751015Y-18517484D01*
X6751015Y-18517484D02*
X6741491Y-18507960D01*
X6741491Y-18507960D02*
X6751015Y-18498436D01*
X6751015Y-18498436D02*
X6751015Y-18517484D01*
X6884348Y-18317484D02*
X6903396Y-18317484D01*
X6903396Y-18317484D02*
X6922444Y-18327008D01*
X6922444Y-18327008D02*
X6931967Y-18336531D01*
X6931967Y-18336531D02*
X6941491Y-18355579D01*
X6941491Y-18355579D02*
X6951015Y-18393674D01*
X6951015Y-18393674D02*
X6951015Y-18441293D01*
X6951015Y-18441293D02*
X6941491Y-18479389D01*
X6941491Y-18479389D02*
X6931967Y-18498436D01*
X6931967Y-18498436D02*
X6922444Y-18507960D01*
X6922444Y-18507960D02*
X6903396Y-18517484D01*
X6903396Y-18517484D02*
X6884348Y-18517484D01*
X6884348Y-18517484D02*
X6865301Y-18507960D01*
X6865301Y-18507960D02*
X6855777Y-18498436D01*
X6855777Y-18498436D02*
X6846253Y-18479389D01*
X6846253Y-18479389D02*
X6836729Y-18441293D01*
X6836729Y-18441293D02*
X6836729Y-18393674D01*
X6836729Y-18393674D02*
X6846253Y-18355579D01*
X6846253Y-18355579D02*
X6855777Y-18336531D01*
X6855777Y-18336531D02*
X6865301Y-18327008D01*
X6865301Y-18327008D02*
X6884348Y-18317484D01*
X7131967Y-18317484D02*
X7036729Y-18317484D01*
X7036729Y-18317484D02*
X7027206Y-18412722D01*
X7027206Y-18412722D02*
X7036729Y-18403198D01*
X7036729Y-18403198D02*
X7055777Y-18393674D01*
X7055777Y-18393674D02*
X7103396Y-18393674D01*
X7103396Y-18393674D02*
X7122444Y-18403198D01*
X7122444Y-18403198D02*
X7131967Y-18412722D01*
X7131967Y-18412722D02*
X7141491Y-18431770D01*
X7141491Y-18431770D02*
X7141491Y-18479389D01*
X7141491Y-18479389D02*
X7131967Y-18498436D01*
X7131967Y-18498436D02*
X7122444Y-18507960D01*
X7122444Y-18507960D02*
X7103396Y-18517484D01*
X7103396Y-18517484D02*
X7055777Y-18517484D01*
X7055777Y-18517484D02*
X7036729Y-18507960D01*
X7036729Y-18507960D02*
X7027206Y-18498436D01*
X7331967Y-18517484D02*
X7217682Y-18517484D01*
X7274825Y-18517484D02*
X7274825Y-18317484D01*
X7274825Y-18317484D02*
X7255777Y-18346055D01*
X7255777Y-18346055D02*
X7236729Y-18365103D01*
X7236729Y-18365103D02*
X7217682Y-18374627D01*
X7408158Y-18336531D02*
X7417682Y-18327008D01*
X7417682Y-18327008D02*
X7436729Y-18317484D01*
X7436729Y-18317484D02*
X7484348Y-18317484D01*
X7484348Y-18317484D02*
X7503396Y-18327008D01*
X7503396Y-18327008D02*
X7512920Y-18336531D01*
X7512920Y-18336531D02*
X7522444Y-18355579D01*
X7522444Y-18355579D02*
X7522444Y-18374627D01*
X7522444Y-18374627D02*
X7512920Y-18403198D01*
X7512920Y-18403198D02*
X7398634Y-18517484D01*
X7398634Y-18517484D02*
X7522444Y-18517484D01*
X7598634Y-18317484D02*
X7598634Y-18355579D01*
X7674825Y-18317484D02*
X7674825Y-18355579D01*
X7970063Y-18593674D02*
X7960539Y-18584150D01*
X7960539Y-18584150D02*
X7941491Y-18555579D01*
X7941491Y-18555579D02*
X7931968Y-18536531D01*
X7931968Y-18536531D02*
X7922444Y-18507960D01*
X7922444Y-18507960D02*
X7912920Y-18460341D01*
X7912920Y-18460341D02*
X7912920Y-18422246D01*
X7912920Y-18422246D02*
X7922444Y-18374627D01*
X7922444Y-18374627D02*
X7931968Y-18346055D01*
X7931968Y-18346055D02*
X7941491Y-18327008D01*
X7941491Y-18327008D02*
X7960539Y-18298436D01*
X7960539Y-18298436D02*
X7970063Y-18288912D01*
X8151015Y-18517484D02*
X8036729Y-18517484D01*
X8093872Y-18517484D02*
X8093872Y-18317484D01*
X8093872Y-18317484D02*
X8074825Y-18346055D01*
X8074825Y-18346055D02*
X8055777Y-18365103D01*
X8055777Y-18365103D02*
X8036729Y-18374627D01*
X8322444Y-18384150D02*
X8322444Y-18517484D01*
X8274825Y-18307960D02*
X8227206Y-18450817D01*
X8227206Y-18450817D02*
X8351015Y-18450817D01*
X8579587Y-18517484D02*
X8579587Y-18317484D01*
X8665301Y-18517484D02*
X8665301Y-18412722D01*
X8665301Y-18412722D02*
X8655777Y-18393674D01*
X8655777Y-18393674D02*
X8636730Y-18384150D01*
X8636730Y-18384150D02*
X8608158Y-18384150D01*
X8608158Y-18384150D02*
X8589111Y-18393674D01*
X8589111Y-18393674D02*
X8579587Y-18403198D01*
X8789111Y-18517484D02*
X8770063Y-18507960D01*
X8770063Y-18507960D02*
X8760539Y-18498436D01*
X8760539Y-18498436D02*
X8751015Y-18479389D01*
X8751015Y-18479389D02*
X8751015Y-18422246D01*
X8751015Y-18422246D02*
X8760539Y-18403198D01*
X8760539Y-18403198D02*
X8770063Y-18393674D01*
X8770063Y-18393674D02*
X8789111Y-18384150D01*
X8789111Y-18384150D02*
X8817682Y-18384150D01*
X8817682Y-18384150D02*
X8836730Y-18393674D01*
X8836730Y-18393674D02*
X8846253Y-18403198D01*
X8846253Y-18403198D02*
X8855777Y-18422246D01*
X8855777Y-18422246D02*
X8855777Y-18479389D01*
X8855777Y-18479389D02*
X8846253Y-18498436D01*
X8846253Y-18498436D02*
X8836730Y-18507960D01*
X8836730Y-18507960D02*
X8817682Y-18517484D01*
X8817682Y-18517484D02*
X8789111Y-18517484D01*
X8970063Y-18517484D02*
X8951015Y-18507960D01*
X8951015Y-18507960D02*
X8941492Y-18488912D01*
X8941492Y-18488912D02*
X8941492Y-18317484D01*
X9122444Y-18507960D02*
X9103396Y-18517484D01*
X9103396Y-18517484D02*
X9065301Y-18517484D01*
X9065301Y-18517484D02*
X9046253Y-18507960D01*
X9046253Y-18507960D02*
X9036730Y-18488912D01*
X9036730Y-18488912D02*
X9036730Y-18412722D01*
X9036730Y-18412722D02*
X9046253Y-18393674D01*
X9046253Y-18393674D02*
X9065301Y-18384150D01*
X9065301Y-18384150D02*
X9103396Y-18384150D01*
X9103396Y-18384150D02*
X9122444Y-18393674D01*
X9122444Y-18393674D02*
X9131968Y-18412722D01*
X9131968Y-18412722D02*
X9131968Y-18431770D01*
X9131968Y-18431770D02*
X9036730Y-18450817D01*
X9208158Y-18507960D02*
X9227206Y-18517484D01*
X9227206Y-18517484D02*
X9265301Y-18517484D01*
X9265301Y-18517484D02*
X9284349Y-18507960D01*
X9284349Y-18507960D02*
X9293873Y-18488912D01*
X9293873Y-18488912D02*
X9293873Y-18479389D01*
X9293873Y-18479389D02*
X9284349Y-18460341D01*
X9284349Y-18460341D02*
X9265301Y-18450817D01*
X9265301Y-18450817D02*
X9236730Y-18450817D01*
X9236730Y-18450817D02*
X9217682Y-18441293D01*
X9217682Y-18441293D02*
X9208158Y-18422246D01*
X9208158Y-18422246D02*
X9208158Y-18412722D01*
X9208158Y-18412722D02*
X9217682Y-18393674D01*
X9217682Y-18393674D02*
X9236730Y-18384150D01*
X9236730Y-18384150D02*
X9265301Y-18384150D01*
X9265301Y-18384150D02*
X9284349Y-18393674D01*
X9360539Y-18593674D02*
X9370063Y-18584150D01*
X9370063Y-18584150D02*
X9389111Y-18555579D01*
X9389111Y-18555579D02*
X9398634Y-18536531D01*
X9398634Y-18536531D02*
X9408158Y-18507960D01*
X9408158Y-18507960D02*
X9417682Y-18460341D01*
X9417682Y-18460341D02*
X9417682Y-18422246D01*
X9417682Y-18422246D02*
X9408158Y-18374627D01*
X9408158Y-18374627D02*
X9398634Y-18346055D01*
X9398634Y-18346055D02*
X9389111Y-18327008D01*
X9389111Y-18327008D02*
X9370063Y-18298436D01*
X9370063Y-18298436D02*
X9360539Y-18288912D01*
X4195000Y-18590000D02*
X4395000Y-18790000D01*
X4395000Y-18590000D02*
X4195000Y-18790000D01*
X4395000Y-18690000D02*
G75*
G02*
X4195000Y-18690000I-100000J0D01*
G01*
X4195000Y-18690000D02*
G75*
G02*
X4395000Y-18690000I100000J0D01*
G01*
X4646253Y-18600531D02*
X4655777Y-18591008D01*
X4655777Y-18591008D02*
X4674824Y-18581484D01*
X4674824Y-18581484D02*
X4722444Y-18581484D01*
X4722444Y-18581484D02*
X4741491Y-18591008D01*
X4741491Y-18591008D02*
X4751015Y-18600531D01*
X4751015Y-18600531D02*
X4760539Y-18619579D01*
X4760539Y-18619579D02*
X4760539Y-18638627D01*
X4760539Y-18638627D02*
X4751015Y-18667198D01*
X4751015Y-18667198D02*
X4636729Y-18781484D01*
X4636729Y-18781484D02*
X4760539Y-18781484D01*
X4846253Y-18762436D02*
X4855777Y-18771960D01*
X4855777Y-18771960D02*
X4846253Y-18781484D01*
X4846253Y-18781484D02*
X4836729Y-18771960D01*
X4836729Y-18771960D02*
X4846253Y-18762436D01*
X4846253Y-18762436D02*
X4846253Y-18781484D01*
X4931967Y-18600531D02*
X4941491Y-18591008D01*
X4941491Y-18591008D02*
X4960539Y-18581484D01*
X4960539Y-18581484D02*
X5008158Y-18581484D01*
X5008158Y-18581484D02*
X5027205Y-18591008D01*
X5027205Y-18591008D02*
X5036729Y-18600531D01*
X5036729Y-18600531D02*
X5046253Y-18619579D01*
X5046253Y-18619579D02*
X5046253Y-18638627D01*
X5046253Y-18638627D02*
X5036729Y-18667198D01*
X5036729Y-18667198D02*
X4922444Y-18781484D01*
X4922444Y-18781484D02*
X5046253Y-18781484D01*
X5170063Y-18581484D02*
X5189110Y-18581484D01*
X5189110Y-18581484D02*
X5208158Y-18591008D01*
X5208158Y-18591008D02*
X5217682Y-18600531D01*
X5217682Y-18600531D02*
X5227205Y-18619579D01*
X5227205Y-18619579D02*
X5236729Y-18657674D01*
X5236729Y-18657674D02*
X5236729Y-18705293D01*
X5236729Y-18705293D02*
X5227205Y-18743389D01*
X5227205Y-18743389D02*
X5217682Y-18762436D01*
X5217682Y-18762436D02*
X5208158Y-18771960D01*
X5208158Y-18771960D02*
X5189110Y-18781484D01*
X5189110Y-18781484D02*
X5170063Y-18781484D01*
X5170063Y-18781484D02*
X5151015Y-18771960D01*
X5151015Y-18771960D02*
X5141491Y-18762436D01*
X5141491Y-18762436D02*
X5131967Y-18743389D01*
X5131967Y-18743389D02*
X5122444Y-18705293D01*
X5122444Y-18705293D02*
X5122444Y-18657674D01*
X5122444Y-18657674D02*
X5131967Y-18619579D01*
X5131967Y-18619579D02*
X5141491Y-18600531D01*
X5141491Y-18600531D02*
X5151015Y-18591008D01*
X5151015Y-18591008D02*
X5170063Y-18581484D01*
X5360539Y-18581484D02*
X5379586Y-18581484D01*
X5379586Y-18581484D02*
X5398634Y-18591008D01*
X5398634Y-18591008D02*
X5408158Y-18600531D01*
X5408158Y-18600531D02*
X5417682Y-18619579D01*
X5417682Y-18619579D02*
X5427205Y-18657674D01*
X5427205Y-18657674D02*
X5427205Y-18705293D01*
X5427205Y-18705293D02*
X5417682Y-18743389D01*
X5417682Y-18743389D02*
X5408158Y-18762436D01*
X5408158Y-18762436D02*
X5398634Y-18771960D01*
X5398634Y-18771960D02*
X5379586Y-18781484D01*
X5379586Y-18781484D02*
X5360539Y-18781484D01*
X5360539Y-18781484D02*
X5341491Y-18771960D01*
X5341491Y-18771960D02*
X5331967Y-18762436D01*
X5331967Y-18762436D02*
X5322444Y-18743389D01*
X5322444Y-18743389D02*
X5312920Y-18705293D01*
X5312920Y-18705293D02*
X5312920Y-18657674D01*
X5312920Y-18657674D02*
X5322444Y-18619579D01*
X5322444Y-18619579D02*
X5331967Y-18600531D01*
X5331967Y-18600531D02*
X5341491Y-18591008D01*
X5341491Y-18591008D02*
X5360539Y-18581484D01*
X5512920Y-18781484D02*
X5512920Y-18648150D01*
X5512920Y-18667198D02*
X5522444Y-18657674D01*
X5522444Y-18657674D02*
X5541491Y-18648150D01*
X5541491Y-18648150D02*
X5570063Y-18648150D01*
X5570063Y-18648150D02*
X5589110Y-18657674D01*
X5589110Y-18657674D02*
X5598634Y-18676722D01*
X5598634Y-18676722D02*
X5598634Y-18781484D01*
X5598634Y-18676722D02*
X5608158Y-18657674D01*
X5608158Y-18657674D02*
X5627205Y-18648150D01*
X5627205Y-18648150D02*
X5655777Y-18648150D01*
X5655777Y-18648150D02*
X5674824Y-18657674D01*
X5674824Y-18657674D02*
X5684348Y-18676722D01*
X5684348Y-18676722D02*
X5684348Y-18781484D01*
X5779586Y-18781484D02*
X5779586Y-18648150D01*
X5779586Y-18667198D02*
X5789110Y-18657674D01*
X5789110Y-18657674D02*
X5808158Y-18648150D01*
X5808158Y-18648150D02*
X5836729Y-18648150D01*
X5836729Y-18648150D02*
X5855777Y-18657674D01*
X5855777Y-18657674D02*
X5865301Y-18676722D01*
X5865301Y-18676722D02*
X5865301Y-18781484D01*
X5865301Y-18676722D02*
X5874824Y-18657674D01*
X5874824Y-18657674D02*
X5893872Y-18648150D01*
X5893872Y-18648150D02*
X5922443Y-18648150D01*
X5922443Y-18648150D02*
X5941491Y-18657674D01*
X5941491Y-18657674D02*
X5951015Y-18676722D01*
X5951015Y-18676722D02*
X5951015Y-18781484D01*
X6341491Y-18571960D02*
X6170063Y-18829103D01*
X6598634Y-18581484D02*
X6617682Y-18581484D01*
X6617682Y-18581484D02*
X6636729Y-18591008D01*
X6636729Y-18591008D02*
X6646253Y-18600531D01*
X6646253Y-18600531D02*
X6655777Y-18619579D01*
X6655777Y-18619579D02*
X6665301Y-18657674D01*
X6665301Y-18657674D02*
X6665301Y-18705293D01*
X6665301Y-18705293D02*
X6655777Y-18743389D01*
X6655777Y-18743389D02*
X6646253Y-18762436D01*
X6646253Y-18762436D02*
X6636729Y-18771960D01*
X6636729Y-18771960D02*
X6617682Y-18781484D01*
X6617682Y-18781484D02*
X6598634Y-18781484D01*
X6598634Y-18781484D02*
X6579586Y-18771960D01*
X6579586Y-18771960D02*
X6570063Y-18762436D01*
X6570063Y-18762436D02*
X6560539Y-18743389D01*
X6560539Y-18743389D02*
X6551015Y-18705293D01*
X6551015Y-18705293D02*
X6551015Y-18657674D01*
X6551015Y-18657674D02*
X6560539Y-18619579D01*
X6560539Y-18619579D02*
X6570063Y-18600531D01*
X6570063Y-18600531D02*
X6579586Y-18591008D01*
X6579586Y-18591008D02*
X6598634Y-18581484D01*
X6751015Y-18762436D02*
X6760539Y-18771960D01*
X6760539Y-18771960D02*
X6751015Y-18781484D01*
X6751015Y-18781484D02*
X6741491Y-18771960D01*
X6741491Y-18771960D02*
X6751015Y-18762436D01*
X6751015Y-18762436D02*
X6751015Y-18781484D01*
X6884348Y-18581484D02*
X6903396Y-18581484D01*
X6903396Y-18581484D02*
X6922444Y-18591008D01*
X6922444Y-18591008D02*
X6931967Y-18600531D01*
X6931967Y-18600531D02*
X6941491Y-18619579D01*
X6941491Y-18619579D02*
X6951015Y-18657674D01*
X6951015Y-18657674D02*
X6951015Y-18705293D01*
X6951015Y-18705293D02*
X6941491Y-18743389D01*
X6941491Y-18743389D02*
X6931967Y-18762436D01*
X6931967Y-18762436D02*
X6922444Y-18771960D01*
X6922444Y-18771960D02*
X6903396Y-18781484D01*
X6903396Y-18781484D02*
X6884348Y-18781484D01*
X6884348Y-18781484D02*
X6865301Y-18771960D01*
X6865301Y-18771960D02*
X6855777Y-18762436D01*
X6855777Y-18762436D02*
X6846253Y-18743389D01*
X6846253Y-18743389D02*
X6836729Y-18705293D01*
X6836729Y-18705293D02*
X6836729Y-18657674D01*
X6836729Y-18657674D02*
X6846253Y-18619579D01*
X6846253Y-18619579D02*
X6855777Y-18600531D01*
X6855777Y-18600531D02*
X6865301Y-18591008D01*
X6865301Y-18591008D02*
X6884348Y-18581484D01*
X7065301Y-18667198D02*
X7046253Y-18657674D01*
X7046253Y-18657674D02*
X7036729Y-18648150D01*
X7036729Y-18648150D02*
X7027206Y-18629103D01*
X7027206Y-18629103D02*
X7027206Y-18619579D01*
X7027206Y-18619579D02*
X7036729Y-18600531D01*
X7036729Y-18600531D02*
X7046253Y-18591008D01*
X7046253Y-18591008D02*
X7065301Y-18581484D01*
X7065301Y-18581484D02*
X7103396Y-18581484D01*
X7103396Y-18581484D02*
X7122444Y-18591008D01*
X7122444Y-18591008D02*
X7131967Y-18600531D01*
X7131967Y-18600531D02*
X7141491Y-18619579D01*
X7141491Y-18619579D02*
X7141491Y-18629103D01*
X7141491Y-18629103D02*
X7131967Y-18648150D01*
X7131967Y-18648150D02*
X7122444Y-18657674D01*
X7122444Y-18657674D02*
X7103396Y-18667198D01*
X7103396Y-18667198D02*
X7065301Y-18667198D01*
X7065301Y-18667198D02*
X7046253Y-18676722D01*
X7046253Y-18676722D02*
X7036729Y-18686246D01*
X7036729Y-18686246D02*
X7027206Y-18705293D01*
X7027206Y-18705293D02*
X7027206Y-18743389D01*
X7027206Y-18743389D02*
X7036729Y-18762436D01*
X7036729Y-18762436D02*
X7046253Y-18771960D01*
X7046253Y-18771960D02*
X7065301Y-18781484D01*
X7065301Y-18781484D02*
X7103396Y-18781484D01*
X7103396Y-18781484D02*
X7122444Y-18771960D01*
X7122444Y-18771960D02*
X7131967Y-18762436D01*
X7131967Y-18762436D02*
X7141491Y-18743389D01*
X7141491Y-18743389D02*
X7141491Y-18705293D01*
X7141491Y-18705293D02*
X7131967Y-18686246D01*
X7131967Y-18686246D02*
X7122444Y-18676722D01*
X7122444Y-18676722D02*
X7103396Y-18667198D01*
X7312920Y-18581484D02*
X7274825Y-18581484D01*
X7274825Y-18581484D02*
X7255777Y-18591008D01*
X7255777Y-18591008D02*
X7246253Y-18600531D01*
X7246253Y-18600531D02*
X7227206Y-18629103D01*
X7227206Y-18629103D02*
X7217682Y-18667198D01*
X7217682Y-18667198D02*
X7217682Y-18743389D01*
X7217682Y-18743389D02*
X7227206Y-18762436D01*
X7227206Y-18762436D02*
X7236729Y-18771960D01*
X7236729Y-18771960D02*
X7255777Y-18781484D01*
X7255777Y-18781484D02*
X7293872Y-18781484D01*
X7293872Y-18781484D02*
X7312920Y-18771960D01*
X7312920Y-18771960D02*
X7322444Y-18762436D01*
X7322444Y-18762436D02*
X7331967Y-18743389D01*
X7331967Y-18743389D02*
X7331967Y-18695770D01*
X7331967Y-18695770D02*
X7322444Y-18676722D01*
X7322444Y-18676722D02*
X7312920Y-18667198D01*
X7312920Y-18667198D02*
X7293872Y-18657674D01*
X7293872Y-18657674D02*
X7255777Y-18657674D01*
X7255777Y-18657674D02*
X7236729Y-18667198D01*
X7236729Y-18667198D02*
X7227206Y-18676722D01*
X7227206Y-18676722D02*
X7217682Y-18695770D01*
X7503396Y-18581484D02*
X7465301Y-18581484D01*
X7465301Y-18581484D02*
X7446253Y-18591008D01*
X7446253Y-18591008D02*
X7436729Y-18600531D01*
X7436729Y-18600531D02*
X7417682Y-18629103D01*
X7417682Y-18629103D02*
X7408158Y-18667198D01*
X7408158Y-18667198D02*
X7408158Y-18743389D01*
X7408158Y-18743389D02*
X7417682Y-18762436D01*
X7417682Y-18762436D02*
X7427206Y-18771960D01*
X7427206Y-18771960D02*
X7446253Y-18781484D01*
X7446253Y-18781484D02*
X7484348Y-18781484D01*
X7484348Y-18781484D02*
X7503396Y-18771960D01*
X7503396Y-18771960D02*
X7512920Y-18762436D01*
X7512920Y-18762436D02*
X7522444Y-18743389D01*
X7522444Y-18743389D02*
X7522444Y-18695770D01*
X7522444Y-18695770D02*
X7512920Y-18676722D01*
X7512920Y-18676722D02*
X7503396Y-18667198D01*
X7503396Y-18667198D02*
X7484348Y-18657674D01*
X7484348Y-18657674D02*
X7446253Y-18657674D01*
X7446253Y-18657674D02*
X7427206Y-18667198D01*
X7427206Y-18667198D02*
X7417682Y-18676722D01*
X7417682Y-18676722D02*
X7408158Y-18695770D01*
X7598634Y-18581484D02*
X7598634Y-18619579D01*
X7674825Y-18581484D02*
X7674825Y-18619579D01*
X7970063Y-18857674D02*
X7960539Y-18848150D01*
X7960539Y-18848150D02*
X7941491Y-18819579D01*
X7941491Y-18819579D02*
X7931968Y-18800531D01*
X7931968Y-18800531D02*
X7922444Y-18771960D01*
X7922444Y-18771960D02*
X7912920Y-18724341D01*
X7912920Y-18724341D02*
X7912920Y-18686246D01*
X7912920Y-18686246D02*
X7922444Y-18638627D01*
X7922444Y-18638627D02*
X7931968Y-18610055D01*
X7931968Y-18610055D02*
X7941491Y-18591008D01*
X7941491Y-18591008D02*
X7960539Y-18562436D01*
X7960539Y-18562436D02*
X7970063Y-18552912D01*
X8131968Y-18648150D02*
X8131968Y-18781484D01*
X8084348Y-18571960D02*
X8036729Y-18714817D01*
X8036729Y-18714817D02*
X8160539Y-18714817D01*
X8389111Y-18781484D02*
X8389111Y-18581484D01*
X8474825Y-18781484D02*
X8474825Y-18676722D01*
X8474825Y-18676722D02*
X8465301Y-18657674D01*
X8465301Y-18657674D02*
X8446253Y-18648150D01*
X8446253Y-18648150D02*
X8417682Y-18648150D01*
X8417682Y-18648150D02*
X8398634Y-18657674D01*
X8398634Y-18657674D02*
X8389111Y-18667198D01*
X8598634Y-18781484D02*
X8579587Y-18771960D01*
X8579587Y-18771960D02*
X8570063Y-18762436D01*
X8570063Y-18762436D02*
X8560539Y-18743389D01*
X8560539Y-18743389D02*
X8560539Y-18686246D01*
X8560539Y-18686246D02*
X8570063Y-18667198D01*
X8570063Y-18667198D02*
X8579587Y-18657674D01*
X8579587Y-18657674D02*
X8598634Y-18648150D01*
X8598634Y-18648150D02*
X8627206Y-18648150D01*
X8627206Y-18648150D02*
X8646253Y-18657674D01*
X8646253Y-18657674D02*
X8655777Y-18667198D01*
X8655777Y-18667198D02*
X8665301Y-18686246D01*
X8665301Y-18686246D02*
X8665301Y-18743389D01*
X8665301Y-18743389D02*
X8655777Y-18762436D01*
X8655777Y-18762436D02*
X8646253Y-18771960D01*
X8646253Y-18771960D02*
X8627206Y-18781484D01*
X8627206Y-18781484D02*
X8598634Y-18781484D01*
X8779587Y-18781484D02*
X8760539Y-18771960D01*
X8760539Y-18771960D02*
X8751015Y-18752912D01*
X8751015Y-18752912D02*
X8751015Y-18581484D01*
X8931968Y-18771960D02*
X8912920Y-18781484D01*
X8912920Y-18781484D02*
X8874825Y-18781484D01*
X8874825Y-18781484D02*
X8855777Y-18771960D01*
X8855777Y-18771960D02*
X8846253Y-18752912D01*
X8846253Y-18752912D02*
X8846253Y-18676722D01*
X8846253Y-18676722D02*
X8855777Y-18657674D01*
X8855777Y-18657674D02*
X8874825Y-18648150D01*
X8874825Y-18648150D02*
X8912920Y-18648150D01*
X8912920Y-18648150D02*
X8931968Y-18657674D01*
X8931968Y-18657674D02*
X8941492Y-18676722D01*
X8941492Y-18676722D02*
X8941492Y-18695770D01*
X8941492Y-18695770D02*
X8846253Y-18714817D01*
X9017682Y-18771960D02*
X9036730Y-18781484D01*
X9036730Y-18781484D02*
X9074825Y-18781484D01*
X9074825Y-18781484D02*
X9093873Y-18771960D01*
X9093873Y-18771960D02*
X9103396Y-18752912D01*
X9103396Y-18752912D02*
X9103396Y-18743389D01*
X9103396Y-18743389D02*
X9093873Y-18724341D01*
X9093873Y-18724341D02*
X9074825Y-18714817D01*
X9074825Y-18714817D02*
X9046253Y-18714817D01*
X9046253Y-18714817D02*
X9027206Y-18705293D01*
X9027206Y-18705293D02*
X9017682Y-18686246D01*
X9017682Y-18686246D02*
X9017682Y-18676722D01*
X9017682Y-18676722D02*
X9027206Y-18657674D01*
X9027206Y-18657674D02*
X9046253Y-18648150D01*
X9046253Y-18648150D02*
X9074825Y-18648150D01*
X9074825Y-18648150D02*
X9093873Y-18657674D01*
X9170063Y-18857674D02*
X9179587Y-18848150D01*
X9179587Y-18848150D02*
X9198634Y-18819579D01*
X9198634Y-18819579D02*
X9208158Y-18800531D01*
X9208158Y-18800531D02*
X9217682Y-18771960D01*
X9217682Y-18771960D02*
X9227206Y-18724341D01*
X9227206Y-18724341D02*
X9227206Y-18686246D01*
X9227206Y-18686246D02*
X9217682Y-18638627D01*
X9217682Y-18638627D02*
X9208158Y-18610055D01*
X9208158Y-18610055D02*
X9198634Y-18591008D01*
X9198634Y-18591008D02*
X9179587Y-18562436D01*
X9179587Y-18562436D02*
X9170063Y-18552912D01*
X4195000Y-18910000D02*
X4395000Y-19110000D01*
X4395000Y-18910000D02*
X4195000Y-19110000D01*
X4295000Y-18910000D02*
X4295000Y-19110000D01*
X4195000Y-19010000D02*
X4395000Y-19010000D01*
X4636729Y-18901484D02*
X4760539Y-18901484D01*
X4760539Y-18901484D02*
X4693872Y-18977674D01*
X4693872Y-18977674D02*
X4722444Y-18977674D01*
X4722444Y-18977674D02*
X4741491Y-18987198D01*
X4741491Y-18987198D02*
X4751015Y-18996722D01*
X4751015Y-18996722D02*
X4760539Y-19015770D01*
X4760539Y-19015770D02*
X4760539Y-19063389D01*
X4760539Y-19063389D02*
X4751015Y-19082436D01*
X4751015Y-19082436D02*
X4741491Y-19091960D01*
X4741491Y-19091960D02*
X4722444Y-19101484D01*
X4722444Y-19101484D02*
X4665301Y-19101484D01*
X4665301Y-19101484D02*
X4646253Y-19091960D01*
X4646253Y-19091960D02*
X4636729Y-19082436D01*
X4846253Y-19082436D02*
X4855777Y-19091960D01*
X4855777Y-19091960D02*
X4846253Y-19101484D01*
X4846253Y-19101484D02*
X4836729Y-19091960D01*
X4836729Y-19091960D02*
X4846253Y-19082436D01*
X4846253Y-19082436D02*
X4846253Y-19101484D01*
X5027205Y-18901484D02*
X4989110Y-18901484D01*
X4989110Y-18901484D02*
X4970063Y-18911008D01*
X4970063Y-18911008D02*
X4960539Y-18920531D01*
X4960539Y-18920531D02*
X4941491Y-18949103D01*
X4941491Y-18949103D02*
X4931967Y-18987198D01*
X4931967Y-18987198D02*
X4931967Y-19063389D01*
X4931967Y-19063389D02*
X4941491Y-19082436D01*
X4941491Y-19082436D02*
X4951015Y-19091960D01*
X4951015Y-19091960D02*
X4970063Y-19101484D01*
X4970063Y-19101484D02*
X5008158Y-19101484D01*
X5008158Y-19101484D02*
X5027205Y-19091960D01*
X5027205Y-19091960D02*
X5036729Y-19082436D01*
X5036729Y-19082436D02*
X5046253Y-19063389D01*
X5046253Y-19063389D02*
X5046253Y-19015770D01*
X5046253Y-19015770D02*
X5036729Y-18996722D01*
X5036729Y-18996722D02*
X5027205Y-18987198D01*
X5027205Y-18987198D02*
X5008158Y-18977674D01*
X5008158Y-18977674D02*
X4970063Y-18977674D01*
X4970063Y-18977674D02*
X4951015Y-18987198D01*
X4951015Y-18987198D02*
X4941491Y-18996722D01*
X4941491Y-18996722D02*
X4931967Y-19015770D01*
X5170063Y-18901484D02*
X5189110Y-18901484D01*
X5189110Y-18901484D02*
X5208158Y-18911008D01*
X5208158Y-18911008D02*
X5217682Y-18920531D01*
X5217682Y-18920531D02*
X5227205Y-18939579D01*
X5227205Y-18939579D02*
X5236729Y-18977674D01*
X5236729Y-18977674D02*
X5236729Y-19025293D01*
X5236729Y-19025293D02*
X5227205Y-19063389D01*
X5227205Y-19063389D02*
X5217682Y-19082436D01*
X5217682Y-19082436D02*
X5208158Y-19091960D01*
X5208158Y-19091960D02*
X5189110Y-19101484D01*
X5189110Y-19101484D02*
X5170063Y-19101484D01*
X5170063Y-19101484D02*
X5151015Y-19091960D01*
X5151015Y-19091960D02*
X5141491Y-19082436D01*
X5141491Y-19082436D02*
X5131967Y-19063389D01*
X5131967Y-19063389D02*
X5122444Y-19025293D01*
X5122444Y-19025293D02*
X5122444Y-18977674D01*
X5122444Y-18977674D02*
X5131967Y-18939579D01*
X5131967Y-18939579D02*
X5141491Y-18920531D01*
X5141491Y-18920531D02*
X5151015Y-18911008D01*
X5151015Y-18911008D02*
X5170063Y-18901484D01*
X5360539Y-18901484D02*
X5379586Y-18901484D01*
X5379586Y-18901484D02*
X5398634Y-18911008D01*
X5398634Y-18911008D02*
X5408158Y-18920531D01*
X5408158Y-18920531D02*
X5417682Y-18939579D01*
X5417682Y-18939579D02*
X5427205Y-18977674D01*
X5427205Y-18977674D02*
X5427205Y-19025293D01*
X5427205Y-19025293D02*
X5417682Y-19063389D01*
X5417682Y-19063389D02*
X5408158Y-19082436D01*
X5408158Y-19082436D02*
X5398634Y-19091960D01*
X5398634Y-19091960D02*
X5379586Y-19101484D01*
X5379586Y-19101484D02*
X5360539Y-19101484D01*
X5360539Y-19101484D02*
X5341491Y-19091960D01*
X5341491Y-19091960D02*
X5331967Y-19082436D01*
X5331967Y-19082436D02*
X5322444Y-19063389D01*
X5322444Y-19063389D02*
X5312920Y-19025293D01*
X5312920Y-19025293D02*
X5312920Y-18977674D01*
X5312920Y-18977674D02*
X5322444Y-18939579D01*
X5322444Y-18939579D02*
X5331967Y-18920531D01*
X5331967Y-18920531D02*
X5341491Y-18911008D01*
X5341491Y-18911008D02*
X5360539Y-18901484D01*
X5512920Y-19101484D02*
X5512920Y-18968150D01*
X5512920Y-18987198D02*
X5522444Y-18977674D01*
X5522444Y-18977674D02*
X5541491Y-18968150D01*
X5541491Y-18968150D02*
X5570063Y-18968150D01*
X5570063Y-18968150D02*
X5589110Y-18977674D01*
X5589110Y-18977674D02*
X5598634Y-18996722D01*
X5598634Y-18996722D02*
X5598634Y-19101484D01*
X5598634Y-18996722D02*
X5608158Y-18977674D01*
X5608158Y-18977674D02*
X5627205Y-18968150D01*
X5627205Y-18968150D02*
X5655777Y-18968150D01*
X5655777Y-18968150D02*
X5674824Y-18977674D01*
X5674824Y-18977674D02*
X5684348Y-18996722D01*
X5684348Y-18996722D02*
X5684348Y-19101484D01*
X5779586Y-19101484D02*
X5779586Y-18968150D01*
X5779586Y-18987198D02*
X5789110Y-18977674D01*
X5789110Y-18977674D02*
X5808158Y-18968150D01*
X5808158Y-18968150D02*
X5836729Y-18968150D01*
X5836729Y-18968150D02*
X5855777Y-18977674D01*
X5855777Y-18977674D02*
X5865301Y-18996722D01*
X5865301Y-18996722D02*
X5865301Y-19101484D01*
X5865301Y-18996722D02*
X5874824Y-18977674D01*
X5874824Y-18977674D02*
X5893872Y-18968150D01*
X5893872Y-18968150D02*
X5922443Y-18968150D01*
X5922443Y-18968150D02*
X5941491Y-18977674D01*
X5941491Y-18977674D02*
X5951015Y-18996722D01*
X5951015Y-18996722D02*
X5951015Y-19101484D01*
X6341491Y-18891960D02*
X6170063Y-19149103D01*
X6598634Y-18901484D02*
X6617682Y-18901484D01*
X6617682Y-18901484D02*
X6636729Y-18911008D01*
X6636729Y-18911008D02*
X6646253Y-18920531D01*
X6646253Y-18920531D02*
X6655777Y-18939579D01*
X6655777Y-18939579D02*
X6665301Y-18977674D01*
X6665301Y-18977674D02*
X6665301Y-19025293D01*
X6665301Y-19025293D02*
X6655777Y-19063389D01*
X6655777Y-19063389D02*
X6646253Y-19082436D01*
X6646253Y-19082436D02*
X6636729Y-19091960D01*
X6636729Y-19091960D02*
X6617682Y-19101484D01*
X6617682Y-19101484D02*
X6598634Y-19101484D01*
X6598634Y-19101484D02*
X6579586Y-19091960D01*
X6579586Y-19091960D02*
X6570063Y-19082436D01*
X6570063Y-19082436D02*
X6560539Y-19063389D01*
X6560539Y-19063389D02*
X6551015Y-19025293D01*
X6551015Y-19025293D02*
X6551015Y-18977674D01*
X6551015Y-18977674D02*
X6560539Y-18939579D01*
X6560539Y-18939579D02*
X6570063Y-18920531D01*
X6570063Y-18920531D02*
X6579586Y-18911008D01*
X6579586Y-18911008D02*
X6598634Y-18901484D01*
X6751015Y-19082436D02*
X6760539Y-19091960D01*
X6760539Y-19091960D02*
X6751015Y-19101484D01*
X6751015Y-19101484D02*
X6741491Y-19091960D01*
X6741491Y-19091960D02*
X6751015Y-19082436D01*
X6751015Y-19082436D02*
X6751015Y-19101484D01*
X6951015Y-19101484D02*
X6836729Y-19101484D01*
X6893872Y-19101484D02*
X6893872Y-18901484D01*
X6893872Y-18901484D02*
X6874825Y-18930055D01*
X6874825Y-18930055D02*
X6855777Y-18949103D01*
X6855777Y-18949103D02*
X6836729Y-18958627D01*
X7122444Y-18968150D02*
X7122444Y-19101484D01*
X7074825Y-18891960D02*
X7027206Y-19034817D01*
X7027206Y-19034817D02*
X7151015Y-19034817D01*
X7331967Y-19101484D02*
X7217682Y-19101484D01*
X7274825Y-19101484D02*
X7274825Y-18901484D01*
X7274825Y-18901484D02*
X7255777Y-18930055D01*
X7255777Y-18930055D02*
X7236729Y-18949103D01*
X7236729Y-18949103D02*
X7217682Y-18958627D01*
X7398634Y-18901484D02*
X7531967Y-18901484D01*
X7531967Y-18901484D02*
X7446253Y-19101484D01*
X7598634Y-18901484D02*
X7598634Y-18939579D01*
X7674825Y-18901484D02*
X7674825Y-18939579D01*
X7970063Y-19177674D02*
X7960539Y-19168150D01*
X7960539Y-19168150D02*
X7941491Y-19139579D01*
X7941491Y-19139579D02*
X7931968Y-19120531D01*
X7931968Y-19120531D02*
X7922444Y-19091960D01*
X7922444Y-19091960D02*
X7912920Y-19044341D01*
X7912920Y-19044341D02*
X7912920Y-19006246D01*
X7912920Y-19006246D02*
X7922444Y-18958627D01*
X7922444Y-18958627D02*
X7931968Y-18930055D01*
X7931968Y-18930055D02*
X7941491Y-18911008D01*
X7941491Y-18911008D02*
X7960539Y-18882436D01*
X7960539Y-18882436D02*
X7970063Y-18872912D01*
X8131968Y-18968150D02*
X8131968Y-19101484D01*
X8084348Y-18891960D02*
X8036729Y-19034817D01*
X8036729Y-19034817D02*
X8160539Y-19034817D01*
X8389111Y-19101484D02*
X8389111Y-18901484D01*
X8474825Y-19101484D02*
X8474825Y-18996722D01*
X8474825Y-18996722D02*
X8465301Y-18977674D01*
X8465301Y-18977674D02*
X8446253Y-18968150D01*
X8446253Y-18968150D02*
X8417682Y-18968150D01*
X8417682Y-18968150D02*
X8398634Y-18977674D01*
X8398634Y-18977674D02*
X8389111Y-18987198D01*
X8598634Y-19101484D02*
X8579587Y-19091960D01*
X8579587Y-19091960D02*
X8570063Y-19082436D01*
X8570063Y-19082436D02*
X8560539Y-19063389D01*
X8560539Y-19063389D02*
X8560539Y-19006246D01*
X8560539Y-19006246D02*
X8570063Y-18987198D01*
X8570063Y-18987198D02*
X8579587Y-18977674D01*
X8579587Y-18977674D02*
X8598634Y-18968150D01*
X8598634Y-18968150D02*
X8627206Y-18968150D01*
X8627206Y-18968150D02*
X8646253Y-18977674D01*
X8646253Y-18977674D02*
X8655777Y-18987198D01*
X8655777Y-18987198D02*
X8665301Y-19006246D01*
X8665301Y-19006246D02*
X8665301Y-19063389D01*
X8665301Y-19063389D02*
X8655777Y-19082436D01*
X8655777Y-19082436D02*
X8646253Y-19091960D01*
X8646253Y-19091960D02*
X8627206Y-19101484D01*
X8627206Y-19101484D02*
X8598634Y-19101484D01*
X8779587Y-19101484D02*
X8760539Y-19091960D01*
X8760539Y-19091960D02*
X8751015Y-19072912D01*
X8751015Y-19072912D02*
X8751015Y-18901484D01*
X8931968Y-19091960D02*
X8912920Y-19101484D01*
X8912920Y-19101484D02*
X8874825Y-19101484D01*
X8874825Y-19101484D02*
X8855777Y-19091960D01*
X8855777Y-19091960D02*
X8846253Y-19072912D01*
X8846253Y-19072912D02*
X8846253Y-18996722D01*
X8846253Y-18996722D02*
X8855777Y-18977674D01*
X8855777Y-18977674D02*
X8874825Y-18968150D01*
X8874825Y-18968150D02*
X8912920Y-18968150D01*
X8912920Y-18968150D02*
X8931968Y-18977674D01*
X8931968Y-18977674D02*
X8941492Y-18996722D01*
X8941492Y-18996722D02*
X8941492Y-19015770D01*
X8941492Y-19015770D02*
X8846253Y-19034817D01*
X9017682Y-19091960D02*
X9036730Y-19101484D01*
X9036730Y-19101484D02*
X9074825Y-19101484D01*
X9074825Y-19101484D02*
X9093873Y-19091960D01*
X9093873Y-19091960D02*
X9103396Y-19072912D01*
X9103396Y-19072912D02*
X9103396Y-19063389D01*
X9103396Y-19063389D02*
X9093873Y-19044341D01*
X9093873Y-19044341D02*
X9074825Y-19034817D01*
X9074825Y-19034817D02*
X9046253Y-19034817D01*
X9046253Y-19034817D02*
X9027206Y-19025293D01*
X9027206Y-19025293D02*
X9017682Y-19006246D01*
X9017682Y-19006246D02*
X9017682Y-18996722D01*
X9017682Y-18996722D02*
X9027206Y-18977674D01*
X9027206Y-18977674D02*
X9046253Y-18968150D01*
X9046253Y-18968150D02*
X9074825Y-18968150D01*
X9074825Y-18968150D02*
X9093873Y-18977674D01*
X9170063Y-19177674D02*
X9179587Y-19168150D01*
X9179587Y-19168150D02*
X9198634Y-19139579D01*
X9198634Y-19139579D02*
X9208158Y-19120531D01*
X9208158Y-19120531D02*
X9217682Y-19091960D01*
X9217682Y-19091960D02*
X9227206Y-19044341D01*
X9227206Y-19044341D02*
X9227206Y-19006246D01*
X9227206Y-19006246D02*
X9217682Y-18958627D01*
X9217682Y-18958627D02*
X9208158Y-18930055D01*
X9208158Y-18930055D02*
X9198634Y-18911008D01*
X9198634Y-18911008D02*
X9179587Y-18882436D01*
X9179587Y-18882436D02*
X9170063Y-18872912D01*
M02*
