%TF.GenerationSoftware,KiCad,Pcbnew,8.0.4*%
%TF.CreationDate,2024-08-07T12:52:17+02:00*%
%TF.ProjectId,bottom,626f7474-6f6d-42e6-9b69-6361645f7063,rev?*%
%TF.SameCoordinates,Original*%
%TF.FileFunction,Copper,L1,Top*%
%TF.FilePolarity,Positive*%
%FSLAX46Y46*%
G04 Gerber Fmt 4.6, Leading zero omitted, Abs format (unit mm)*
G04 Created by KiCad (PCBNEW 8.0.4) date 2024-08-07 12:52:17*
%MOMM*%
%LPD*%
G01*
G04 APERTURE LIST*
G04 Aperture macros list*
%AMOutline5P*
0 Free polygon, 5 corners , with rotation*
0 The origin of the aperture is its center*
0 number of corners: always 5*
0 $1 to $10 corner X, Y*
0 $11 Rotation angle, in degrees counterclockwise*
0 create outline with 5 corners*
4,1,5,$1,$2,$3,$4,$5,$6,$7,$8,$9,$10,$1,$2,$11*%
%AMOutline6P*
0 Free polygon, 6 corners , with rotation*
0 The origin of the aperture is its center*
0 number of corners: always 6*
0 $1 to $12 corner X, Y*
0 $13 Rotation angle, in degrees counterclockwise*
0 create outline with 6 corners*
4,1,6,$1,$2,$3,$4,$5,$6,$7,$8,$9,$10,$11,$12,$1,$2,$13*%
%AMOutline7P*
0 Free polygon, 7 corners , with rotation*
0 The origin of the aperture is its center*
0 number of corners: always 7*
0 $1 to $14 corner X, Y*
0 $15 Rotation angle, in degrees counterclockwise*
0 create outline with 7 corners*
4,1,7,$1,$2,$3,$4,$5,$6,$7,$8,$9,$10,$11,$12,$13,$14,$1,$2,$15*%
%AMOutline8P*
0 Free polygon, 8 corners , with rotation*
0 The origin of the aperture is its center*
0 number of corners: always 8*
0 $1 to $16 corner X, Y*
0 $17 Rotation angle, in degrees counterclockwise*
0 create outline with 8 corners*
4,1,8,$1,$2,$3,$4,$5,$6,$7,$8,$9,$10,$11,$12,$13,$14,$15,$16,$1,$2,$17*%
G04 Aperture macros list end*
%TA.AperFunction,ComponentPad*%
%ADD10R,6.800000X6.800000*%
%TD*%
%TA.AperFunction,ComponentPad*%
%ADD11Outline5P,-3.400000X2.040000X-2.040000X3.400000X3.400000X3.400000X3.400000X-3.400000X-3.400000X-3.400000X0.000000*%
%TD*%
%TA.AperFunction,ComponentPad*%
%ADD12R,3.300000X3.300000*%
%TD*%
%TA.AperFunction,ComponentPad*%
%ADD13C,3.300000*%
%TD*%
G04 APERTURE END LIST*
D10*
%TO.P,U1,1,Earth*%
%TO.N,Net-(J1-EARTH)*%
X180200000Y-107550000D03*
D11*
%TO.P,U1,2,N*%
%TO.N,Net-(J1-AC_N)*%
X189700000Y-107550000D03*
%TO.P,U1,3,L*%
%TO.N,Net-(J1-AC_P)*%
X199200000Y-107550000D03*
%TD*%
D12*
%TO.P,J1,1,AC_N*%
%TO.N,Net-(J1-AC_N)*%
X180700000Y-117750000D03*
D13*
%TO.P,J1,2,EARTH*%
%TO.N,Net-(J1-EARTH)*%
X189844000Y-117750000D03*
%TO.P,J1,3,AC_P*%
%TO.N,Net-(J1-AC_P)*%
X198988000Y-117750000D03*
%TD*%
%TA.AperFunction,Conductor*%
%TO.N,Net-(J1-AC_P)*%
G36*
X199450000Y-110950000D02*
G01*
X202481423Y-110950000D01*
X202548462Y-110969685D01*
X202594217Y-111022489D01*
X202605423Y-111073858D01*
X202624415Y-127616294D01*
X202623371Y-127632491D01*
X202609627Y-127737746D01*
X202601273Y-127769045D01*
X202563868Y-127859569D01*
X202547692Y-127887635D01*
X202488119Y-127965380D01*
X202465226Y-127988300D01*
X202387543Y-128047967D01*
X202359496Y-128064174D01*
X202269022Y-128101680D01*
X202237734Y-128110070D01*
X202132488Y-128123937D01*
X202116290Y-128125000D01*
X196332549Y-128125000D01*
X196316376Y-128123941D01*
X196275700Y-128118590D01*
X196211279Y-128110115D01*
X196180032Y-128101748D01*
X196089665Y-128064346D01*
X196061647Y-128048184D01*
X195984022Y-127988680D01*
X195961136Y-127965820D01*
X195901545Y-127888267D01*
X195885350Y-127860267D01*
X195847842Y-127769937D01*
X195839441Y-127738703D01*
X195825494Y-127633616D01*
X195824417Y-127617464D01*
X195814626Y-119089005D01*
X195813089Y-117750000D01*
X197332898Y-117750000D01*
X197353274Y-118008912D01*
X197413901Y-118261445D01*
X197413906Y-118261462D01*
X197513290Y-118501397D01*
X197513292Y-118501400D01*
X197648992Y-118722842D01*
X197648993Y-118722843D01*
X197654801Y-118729644D01*
X198272152Y-118112293D01*
X198279049Y-118128942D01*
X198366599Y-118259970D01*
X198478030Y-118371401D01*
X198609058Y-118458951D01*
X198625705Y-118465846D01*
X198008354Y-119083197D01*
X198015157Y-119089007D01*
X198236599Y-119224707D01*
X198236602Y-119224709D01*
X198476537Y-119324093D01*
X198476554Y-119324098D01*
X198729088Y-119384725D01*
X198729087Y-119384725D01*
X198988000Y-119405101D01*
X199246912Y-119384725D01*
X199499445Y-119324098D01*
X199499462Y-119324093D01*
X199739397Y-119224709D01*
X199739400Y-119224707D01*
X199960844Y-119089005D01*
X199967644Y-119083197D01*
X199350293Y-118465846D01*
X199366942Y-118458951D01*
X199497970Y-118371401D01*
X199609401Y-118259970D01*
X199696951Y-118128942D01*
X199703846Y-118112293D01*
X200321197Y-118729644D01*
X200327005Y-118722844D01*
X200462707Y-118501400D01*
X200462709Y-118501397D01*
X200562093Y-118261462D01*
X200562098Y-118261445D01*
X200622725Y-118008912D01*
X200643101Y-117750000D01*
X200622725Y-117491087D01*
X200562098Y-117238554D01*
X200562093Y-117238537D01*
X200462709Y-116998602D01*
X200462707Y-116998599D01*
X200327007Y-116777157D01*
X200321197Y-116770354D01*
X199703846Y-117387705D01*
X199696951Y-117371058D01*
X199609401Y-117240030D01*
X199497970Y-117128599D01*
X199366942Y-117041049D01*
X199350294Y-117034153D01*
X199967645Y-116416801D01*
X199960843Y-116410993D01*
X199960842Y-116410992D01*
X199739400Y-116275292D01*
X199739397Y-116275290D01*
X199499462Y-116175906D01*
X199499445Y-116175901D01*
X199246911Y-116115274D01*
X199246912Y-116115274D01*
X198988000Y-116094898D01*
X198729087Y-116115274D01*
X198476554Y-116175901D01*
X198476537Y-116175906D01*
X198236602Y-116275290D01*
X198236599Y-116275292D01*
X198015155Y-116410993D01*
X198008353Y-116416800D01*
X198625706Y-117034153D01*
X198609058Y-117041049D01*
X198478030Y-117128599D01*
X198366599Y-117240030D01*
X198279049Y-117371058D01*
X198272153Y-117387706D01*
X197654800Y-116770353D01*
X197648993Y-116777155D01*
X197513292Y-116998599D01*
X197513290Y-116998602D01*
X197413906Y-117238537D01*
X197413901Y-117238554D01*
X197353274Y-117491087D01*
X197332898Y-117750000D01*
X195813089Y-117750000D01*
X195805425Y-111074142D01*
X195825033Y-111007080D01*
X195877784Y-110961265D01*
X195929425Y-110950000D01*
X198950000Y-110950000D01*
X198950000Y-109332618D01*
X199082022Y-109350000D01*
X199317978Y-109350000D01*
X199450000Y-109332618D01*
X199450000Y-110950000D01*
G37*
%TD.AperFunction*%
%TD*%
%TA.AperFunction,Conductor*%
%TO.N,Net-(J1-EARTH)*%
G36*
X180450000Y-110950000D02*
G01*
X183476000Y-110950000D01*
X183543039Y-110969685D01*
X183588794Y-111022489D01*
X183600000Y-111074000D01*
X183600000Y-115700000D01*
X183689614Y-115700000D01*
X183709535Y-115734504D01*
X183709539Y-115734509D01*
X183709540Y-115734511D01*
X183765489Y-115790460D01*
X183765491Y-115790461D01*
X183765495Y-115790464D01*
X183834004Y-115830017D01*
X183834011Y-115830021D01*
X183910438Y-115850500D01*
X183910440Y-115850500D01*
X185989560Y-115850500D01*
X185989562Y-115850500D01*
X186065989Y-115830021D01*
X186134511Y-115790460D01*
X186190460Y-115734511D01*
X186210385Y-115700000D01*
X186300000Y-115700000D01*
X186300000Y-115800000D01*
X193100000Y-115800000D01*
X193100000Y-115700000D01*
X193189614Y-115700000D01*
X193209535Y-115734504D01*
X193209539Y-115734509D01*
X193209540Y-115734511D01*
X193265489Y-115790460D01*
X193265491Y-115790461D01*
X193265495Y-115790464D01*
X193334004Y-115830017D01*
X193334011Y-115830021D01*
X193410438Y-115850500D01*
X193410440Y-115850500D01*
X194145514Y-115850500D01*
X194212553Y-115870185D01*
X194243890Y-115899014D01*
X194273074Y-115937048D01*
X194289259Y-115965081D01*
X194326715Y-116055508D01*
X194335093Y-116086775D01*
X194348939Y-116191939D01*
X194350000Y-116208125D01*
X194350000Y-127591874D01*
X194348939Y-127608060D01*
X194335093Y-127713224D01*
X194326715Y-127744491D01*
X194289259Y-127834918D01*
X194273074Y-127862951D01*
X194213491Y-127940601D01*
X194190601Y-127963491D01*
X194112951Y-128023074D01*
X194084918Y-128039259D01*
X193994491Y-128076715D01*
X193963224Y-128085093D01*
X193869398Y-128097446D01*
X193858058Y-128098939D01*
X193841874Y-128100000D01*
X177308126Y-128100000D01*
X177291941Y-128098939D01*
X177278917Y-128097224D01*
X177186775Y-128085093D01*
X177155508Y-128076715D01*
X177065081Y-128039259D01*
X177037048Y-128023074D01*
X176959398Y-127963491D01*
X176936508Y-127940601D01*
X176876925Y-127862951D01*
X176860740Y-127834918D01*
X176823284Y-127744491D01*
X176814906Y-127713223D01*
X176801061Y-127608059D01*
X176800000Y-127591874D01*
X176800000Y-116049983D01*
X178299500Y-116049983D01*
X178299500Y-119450001D01*
X178299501Y-119450018D01*
X178310000Y-119552796D01*
X178310001Y-119552799D01*
X178365185Y-119719331D01*
X178365186Y-119719334D01*
X178457288Y-119868656D01*
X178581344Y-119992712D01*
X178730666Y-120084814D01*
X178897203Y-120139999D01*
X178999991Y-120150500D01*
X182400008Y-120150499D01*
X182502797Y-120139999D01*
X182669334Y-120084814D01*
X182818656Y-119992712D01*
X182942712Y-119868656D01*
X183034814Y-119719334D01*
X183089999Y-119552797D01*
X183100500Y-119450009D01*
X183100499Y-116049992D01*
X183089999Y-115947203D01*
X183034814Y-115780666D01*
X182942712Y-115631344D01*
X182818656Y-115507288D01*
X182725888Y-115450069D01*
X182669336Y-115415187D01*
X182669331Y-115415185D01*
X182667862Y-115414698D01*
X182502797Y-115360001D01*
X182502795Y-115360000D01*
X182400010Y-115349500D01*
X178999998Y-115349500D01*
X178999981Y-115349501D01*
X178897203Y-115360000D01*
X178897200Y-115360001D01*
X178730668Y-115415185D01*
X178730663Y-115415187D01*
X178581342Y-115507289D01*
X178457289Y-115631342D01*
X178365187Y-115780663D01*
X178365185Y-115780668D01*
X178361939Y-115790464D01*
X178310001Y-115947203D01*
X178310001Y-115947204D01*
X178310000Y-115947204D01*
X178299500Y-116049983D01*
X176800000Y-116049983D01*
X176800000Y-111074000D01*
X176819685Y-111006961D01*
X176872489Y-110961206D01*
X176924000Y-110950000D01*
X179950000Y-110950000D01*
X179950000Y-109332618D01*
X180082022Y-109350000D01*
X180317978Y-109350000D01*
X180450000Y-109332618D01*
X180450000Y-110950000D01*
G37*
%TD.AperFunction*%
%TD*%
%TA.AperFunction,Conductor*%
%TO.N,Net-(J1-EARTH)*%
G36*
X192608059Y-112751061D02*
G01*
X192713223Y-112764906D01*
X192744491Y-112773284D01*
X192834918Y-112810740D01*
X192862952Y-112826925D01*
X192940602Y-112886509D01*
X192963491Y-112909398D01*
X193023074Y-112987048D01*
X193039259Y-113015081D01*
X193076715Y-113105508D01*
X193085093Y-113136775D01*
X193098939Y-113241939D01*
X193100000Y-113258125D01*
X193100000Y-115800000D01*
X186300000Y-115800000D01*
X186300000Y-113258125D01*
X186301061Y-113241940D01*
X186314906Y-113136776D01*
X186323284Y-113105508D01*
X186360740Y-113015081D01*
X186376923Y-112987050D01*
X186436513Y-112909392D01*
X186459392Y-112886513D01*
X186537050Y-112826923D01*
X186565079Y-112810740D01*
X186655509Y-112773283D01*
X186686775Y-112764906D01*
X186791941Y-112751061D01*
X186808126Y-112750000D01*
X192591874Y-112750000D01*
X192608059Y-112751061D01*
G37*
%TD.AperFunction*%
%TD*%
M02*
