%TF.GenerationSoftware,KiCad,Pcbnew,8.0.4*%
%TF.CreationDate,2024-08-07T12:52:17+02:00*%
%TF.ProjectId,bottom,626f7474-6f6d-42e6-9b69-6361645f7063,rev?*%
%TF.SameCoordinates,Original*%
%TF.FileFunction,Copper,L2,Bot*%
%TF.FilePolarity,Positive*%
%FSLAX46Y46*%
G04 Gerber Fmt 4.6, Leading zero omitted, Abs format (unit mm)*
G04 Created by KiCad (PCBNEW 8.0.4) date 2024-08-07 12:52:17*
%MOMM*%
%LPD*%
G01*
G04 APERTURE LIST*
G04 Aperture macros list*
%AMOutline5P*
0 Free polygon, 5 corners , with rotation*
0 The origin of the aperture is its center*
0 number of corners: always 5*
0 $1 to $10 corner X, Y*
0 $11 Rotation angle, in degrees counterclockwise*
0 create outline with 5 corners*
4,1,5,$1,$2,$3,$4,$5,$6,$7,$8,$9,$10,$1,$2,$11*%
%AMOutline6P*
0 Free polygon, 6 corners , with rotation*
0 The origin of the aperture is its center*
0 number of corners: always 6*
0 $1 to $12 corner X, Y*
0 $13 Rotation angle, in degrees counterclockwise*
0 create outline with 6 corners*
4,1,6,$1,$2,$3,$4,$5,$6,$7,$8,$9,$10,$11,$12,$1,$2,$13*%
%AMOutline7P*
0 Free polygon, 7 corners , with rotation*
0 The origin of the aperture is its center*
0 number of corners: always 7*
0 $1 to $14 corner X, Y*
0 $15 Rotation angle, in degrees counterclockwise*
0 create outline with 7 corners*
4,1,7,$1,$2,$3,$4,$5,$6,$7,$8,$9,$10,$11,$12,$13,$14,$1,$2,$15*%
%AMOutline8P*
0 Free polygon, 8 corners , with rotation*
0 The origin of the aperture is its center*
0 number of corners: always 8*
0 $1 to $16 corner X, Y*
0 $17 Rotation angle, in degrees counterclockwise*
0 create outline with 8 corners*
4,1,8,$1,$2,$3,$4,$5,$6,$7,$8,$9,$10,$11,$12,$13,$14,$15,$16,$1,$2,$17*%
G04 Aperture macros list end*
%TA.AperFunction,ComponentPad*%
%ADD10R,6.800000X6.800000*%
%TD*%
%TA.AperFunction,ComponentPad*%
%ADD11Outline5P,-3.400000X2.040000X-2.040000X3.400000X3.400000X3.400000X3.400000X-3.400000X-3.400000X-3.400000X0.000000*%
%TD*%
%TA.AperFunction,ComponentPad*%
%ADD12R,3.300000X3.300000*%
%TD*%
%TA.AperFunction,ComponentPad*%
%ADD13C,3.300000*%
%TD*%
G04 APERTURE END LIST*
D10*
%TO.P,U1,1,Earth*%
%TO.N,Net-(J1-EARTH)*%
X180200000Y-107550000D03*
D11*
%TO.P,U1,2,N*%
%TO.N,Net-(J1-AC_N)*%
X189700000Y-107550000D03*
%TO.P,U1,3,L*%
%TO.N,Net-(J1-AC_P)*%
X199200000Y-107550000D03*
%TD*%
D12*
%TO.P,J1,1,AC_N*%
%TO.N,Net-(J1-AC_N)*%
X180700000Y-117750000D03*
D13*
%TO.P,J1,2,EARTH*%
%TO.N,Net-(J1-EARTH)*%
X189844000Y-117750000D03*
%TO.P,J1,3,AC_P*%
%TO.N,Net-(J1-AC_P)*%
X198988000Y-117750000D03*
%TD*%
%TA.AperFunction,Conductor*%
%TO.N,Net-(J1-AC_N)*%
G36*
X189950000Y-110950000D02*
G01*
X192976000Y-110950000D01*
X193043039Y-110969685D01*
X193088794Y-111022489D01*
X193100000Y-111074000D01*
X193100000Y-127616874D01*
X193098939Y-127633060D01*
X193085093Y-127738224D01*
X193076715Y-127769491D01*
X193039259Y-127859918D01*
X193023074Y-127887951D01*
X192963491Y-127965601D01*
X192940601Y-127988491D01*
X192862951Y-128048074D01*
X192834918Y-128064259D01*
X192744491Y-128101715D01*
X192713224Y-128110093D01*
X192619398Y-128122446D01*
X192608058Y-128123939D01*
X192591874Y-128125000D01*
X177308126Y-128125000D01*
X177291941Y-128123939D01*
X177278917Y-128122224D01*
X177186775Y-128110093D01*
X177155508Y-128101715D01*
X177065081Y-128064259D01*
X177037048Y-128048074D01*
X176959398Y-127988491D01*
X176936508Y-127965601D01*
X176876925Y-127887951D01*
X176860740Y-127859918D01*
X176823284Y-127769491D01*
X176814906Y-127738223D01*
X176801061Y-127633059D01*
X176800000Y-127616874D01*
X176800000Y-117500000D01*
X179050000Y-117500000D01*
X179937639Y-117500000D01*
X179930743Y-117516649D01*
X179900000Y-117671207D01*
X179900000Y-117828793D01*
X179930743Y-117983351D01*
X179937639Y-118000000D01*
X179050000Y-118000000D01*
X179050000Y-119400000D01*
X180450000Y-119400000D01*
X180450000Y-118512360D01*
X180466649Y-118519257D01*
X180621207Y-118550000D01*
X180778793Y-118550000D01*
X180933351Y-118519257D01*
X180950000Y-118512360D01*
X180950000Y-119400000D01*
X182350000Y-119400000D01*
X182350000Y-118000000D01*
X181462361Y-118000000D01*
X181469257Y-117983351D01*
X181500000Y-117828793D01*
X181500000Y-117749994D01*
X187438754Y-117749994D01*
X187438754Y-117750005D01*
X187457718Y-118051446D01*
X187457719Y-118051453D01*
X187514320Y-118348164D01*
X187607659Y-118635431D01*
X187607661Y-118635436D01*
X187736265Y-118908732D01*
X187736268Y-118908738D01*
X187898111Y-119163763D01*
X188090652Y-119396505D01*
X188310836Y-119603272D01*
X188310846Y-119603280D01*
X188555193Y-119780808D01*
X188555198Y-119780810D01*
X188555205Y-119780816D01*
X188819896Y-119926332D01*
X188819901Y-119926334D01*
X188819903Y-119926335D01*
X188819904Y-119926336D01*
X189100734Y-120037524D01*
X189100737Y-120037525D01*
X189198259Y-120062564D01*
X189393302Y-120112642D01*
X189540039Y-120131179D01*
X189692963Y-120150499D01*
X189692969Y-120150499D01*
X189692973Y-120150500D01*
X189692975Y-120150500D01*
X189995025Y-120150500D01*
X189995027Y-120150500D01*
X189995032Y-120150499D01*
X189995036Y-120150499D01*
X190074591Y-120140448D01*
X190294698Y-120112642D01*
X190587262Y-120037525D01*
X190587265Y-120037524D01*
X190868095Y-119926336D01*
X190868096Y-119926335D01*
X190868094Y-119926335D01*
X190868104Y-119926332D01*
X191132795Y-119780816D01*
X191377162Y-119603274D01*
X191597349Y-119396504D01*
X191789885Y-119163768D01*
X191951733Y-118908736D01*
X192080341Y-118635430D01*
X192173681Y-118348160D01*
X192230280Y-118051457D01*
X192230281Y-118051446D01*
X192249246Y-117750005D01*
X192249246Y-117749994D01*
X192230281Y-117448553D01*
X192230280Y-117448546D01*
X192230280Y-117448543D01*
X192173681Y-117151840D01*
X192080341Y-116864570D01*
X191951733Y-116591264D01*
X191789885Y-116336232D01*
X191597349Y-116103496D01*
X191377162Y-115896726D01*
X191377159Y-115896724D01*
X191377153Y-115896719D01*
X191132806Y-115719191D01*
X191132799Y-115719186D01*
X191132795Y-115719184D01*
X190868104Y-115573668D01*
X190868101Y-115573666D01*
X190868096Y-115573664D01*
X190868095Y-115573663D01*
X190587265Y-115462475D01*
X190587262Y-115462474D01*
X190294695Y-115387357D01*
X189995036Y-115349500D01*
X189995027Y-115349500D01*
X189692973Y-115349500D01*
X189692963Y-115349500D01*
X189393304Y-115387357D01*
X189100737Y-115462474D01*
X189100734Y-115462475D01*
X188819904Y-115573663D01*
X188819903Y-115573664D01*
X188555205Y-115719184D01*
X188555193Y-115719191D01*
X188310846Y-115896719D01*
X188310836Y-115896727D01*
X188090652Y-116103494D01*
X187898111Y-116336236D01*
X187736268Y-116591261D01*
X187736265Y-116591267D01*
X187607661Y-116864563D01*
X187607659Y-116864568D01*
X187514320Y-117151835D01*
X187457719Y-117448546D01*
X187457718Y-117448553D01*
X187438754Y-117749994D01*
X181500000Y-117749994D01*
X181500000Y-117671207D01*
X181469257Y-117516649D01*
X181462361Y-117500000D01*
X182350000Y-117500000D01*
X182350000Y-116100000D01*
X180950000Y-116100000D01*
X180950000Y-116987639D01*
X180933351Y-116980743D01*
X180778793Y-116950000D01*
X180621207Y-116950000D01*
X180466649Y-116980743D01*
X180450000Y-116987639D01*
X180450000Y-116100000D01*
X179050000Y-116100000D01*
X179050000Y-117500000D01*
X176800000Y-117500000D01*
X176800000Y-115750000D01*
X183600000Y-115750000D01*
X183600000Y-115700000D01*
X183689614Y-115700000D01*
X183709535Y-115734504D01*
X183709539Y-115734509D01*
X183709540Y-115734511D01*
X183765489Y-115790460D01*
X183765491Y-115790461D01*
X183765495Y-115790464D01*
X183834004Y-115830017D01*
X183834011Y-115830021D01*
X183910438Y-115850500D01*
X183910440Y-115850500D01*
X185989560Y-115850500D01*
X185989562Y-115850500D01*
X186065989Y-115830021D01*
X186134511Y-115790460D01*
X186190460Y-115734511D01*
X186210385Y-115700000D01*
X186300000Y-115700000D01*
X186300000Y-111074000D01*
X186319685Y-111006961D01*
X186372489Y-110961206D01*
X186424000Y-110950000D01*
X189450000Y-110950000D01*
X189450000Y-109332618D01*
X189582022Y-109350000D01*
X189817978Y-109350000D01*
X189950000Y-109332618D01*
X189950000Y-110950000D01*
G37*
%TD.AperFunction*%
%TD*%
%TA.AperFunction,Conductor*%
%TO.N,Net-(J1-AC_N)*%
G36*
X183108059Y-112701061D02*
G01*
X183213223Y-112714906D01*
X183244491Y-112723284D01*
X183334918Y-112760740D01*
X183362952Y-112776925D01*
X183440602Y-112836509D01*
X183463491Y-112859398D01*
X183523074Y-112937048D01*
X183539259Y-112965081D01*
X183576715Y-113055508D01*
X183585093Y-113086775D01*
X183598939Y-113191939D01*
X183600000Y-113208125D01*
X183600000Y-115750000D01*
X176800000Y-115750000D01*
X176800000Y-113208125D01*
X176801061Y-113191940D01*
X176814906Y-113086776D01*
X176823284Y-113055508D01*
X176860740Y-112965081D01*
X176876923Y-112937050D01*
X176936513Y-112859392D01*
X176959392Y-112836513D01*
X177037050Y-112776923D01*
X177065079Y-112760740D01*
X177155509Y-112723283D01*
X177186775Y-112714906D01*
X177291941Y-112701061D01*
X177308126Y-112700000D01*
X183091874Y-112700000D01*
X183108059Y-112701061D01*
G37*
%TD.AperFunction*%
%TD*%
M02*
