%TF.GenerationSoftware,KiCad,Pcbnew,8.0.4*%
%TF.CreationDate,2024-08-07T12:52:17+02:00*%
%TF.ProjectId,bottom,626f7474-6f6d-42e6-9b69-6361645f7063,rev?*%
%TF.SameCoordinates,Original*%
%TF.FileFunction,Profile,NP*%
%FSLAX46Y46*%
G04 Gerber Fmt 4.6, Leading zero omitted, Abs format (unit mm)*
G04 Created by KiCad (PCBNEW 8.0.4) date 2024-08-07 12:52:17*
%MOMM*%
%LPD*%
G01*
G04 APERTURE LIST*
%TA.AperFunction,Profile*%
%ADD10C,0.100000*%
%TD*%
%TA.AperFunction,Profile*%
%ADD11C,0.050000*%
%TD*%
G04 APERTURE END LIST*
D10*
X193450000Y-101050000D02*
X185950000Y-101050000D01*
X202950000Y-115550000D02*
X216000000Y-115550000D01*
X185950000Y-115550000D02*
X183950000Y-115550000D01*
X164000000Y-137250000D02*
X164000000Y-115550000D01*
X176450000Y-101050000D02*
X176450000Y-115550000D01*
X183950000Y-115550000D02*
X183950000Y-101050000D01*
X195450000Y-101050000D02*
X195450000Y-115550000D01*
X164000000Y-115550000D02*
X176450000Y-115550000D01*
X203750000Y-137250000D02*
X164000000Y-137250000D01*
X216000000Y-115550000D02*
X216000000Y-137250000D01*
X216000000Y-137250000D02*
X203750000Y-137250000D01*
X183950000Y-101050000D02*
X176450000Y-101050000D01*
X202950000Y-115550000D02*
X202950000Y-101050000D01*
X185950000Y-101050000D02*
X185950000Y-115550000D01*
X195450000Y-115550000D02*
X193450000Y-115550000D01*
X202950000Y-101050000D02*
X195450000Y-101050000D01*
X193450000Y-115550000D02*
X193450000Y-101050000D01*
D11*
%TO.C,J1*%
X171544000Y-127400000D02*
G75*
G02*
X168144000Y-127400000I-1700000J0D01*
G01*
X168144000Y-127400000D02*
G75*
G02*
X171544000Y-127400000I1700000J0D01*
G01*
X211544000Y-127400000D02*
G75*
G02*
X208144000Y-127400000I-1700000J0D01*
G01*
X208144000Y-127400000D02*
G75*
G02*
X211544000Y-127400000I1700000J0D01*
G01*
%TD*%
M02*
