%TF.GenerationSoftware,KiCad,Pcbnew,8.0.4*%
%TF.CreationDate,2024-08-07T12:52:22+02:00*%
%TF.ProjectId,bottom,626f7474-6f6d-42e6-9b69-6361645f7063,rev?*%
%TF.SameCoordinates,Original*%
%TF.FileFunction,Drillmap*%
%TF.FilePolarity,Positive*%
%FSLAX45Y45*%
G04 Gerber Fmt 4.5, Leading zero omitted, Abs format (unit mm)*
G04 Created by KiCad (PCBNEW 8.0.4) date 2024-08-07 12:52:22*
%MOMM*%
%LPD*%
G01*
G04 APERTURE LIST*
%ADD10C,0.100000*%
%ADD11C,0.050000*%
%ADD12C,0.200000*%
G04 APERTURE END LIST*
D10*
X19345000Y-10105000D02*
X18595000Y-10105000D01*
X20295000Y-11555000D02*
X21600000Y-11555000D01*
X18595000Y-11555000D02*
X18395000Y-11555000D01*
X16400000Y-13725000D02*
X16400000Y-11555000D01*
X17645000Y-10105000D02*
X17645000Y-11555000D01*
X18395000Y-11555000D02*
X18395000Y-10105000D01*
X19545000Y-10105000D02*
X19545000Y-11555000D01*
X16400000Y-11555000D02*
X17645000Y-11555000D01*
X20375000Y-13725000D02*
X16400000Y-13725000D01*
X21600000Y-11555000D02*
X21600000Y-13725000D01*
X21600000Y-13725000D02*
X20375000Y-13725000D01*
X18395000Y-10105000D02*
X17645000Y-10105000D01*
X20295000Y-11555000D02*
X20295000Y-10105000D01*
X18595000Y-10105000D02*
X18595000Y-11555000D01*
X19545000Y-11555000D02*
X19345000Y-11555000D01*
X20295000Y-10105000D02*
X19545000Y-10105000D01*
X19345000Y-11555000D02*
X19345000Y-10105000D01*
D11*
X17154400Y-12740000D02*
G75*
G02*
X16814400Y-12740000I-170000J0D01*
G01*
X16814400Y-12740000D02*
G75*
G02*
X17154400Y-12740000I170000J0D01*
G01*
X21154400Y-12740000D02*
G75*
G02*
X20814400Y-12740000I-170000J0D01*
G01*
X20814400Y-12740000D02*
G75*
G02*
X21154400Y-12740000I170000J0D01*
G01*
D12*
X16655777Y-14041484D02*
X16655777Y-13841484D01*
X16655777Y-13841484D02*
X16703396Y-13841484D01*
X16703396Y-13841484D02*
X16731967Y-13851008D01*
X16731967Y-13851008D02*
X16751015Y-13870055D01*
X16751015Y-13870055D02*
X16760539Y-13889103D01*
X16760539Y-13889103D02*
X16770062Y-13927198D01*
X16770062Y-13927198D02*
X16770062Y-13955769D01*
X16770062Y-13955769D02*
X16760539Y-13993865D01*
X16760539Y-13993865D02*
X16751015Y-14012912D01*
X16751015Y-14012912D02*
X16731967Y-14031960D01*
X16731967Y-14031960D02*
X16703396Y-14041484D01*
X16703396Y-14041484D02*
X16655777Y-14041484D01*
X16855777Y-14041484D02*
X16855777Y-13908150D01*
X16855777Y-13946246D02*
X16865301Y-13927198D01*
X16865301Y-13927198D02*
X16874824Y-13917674D01*
X16874824Y-13917674D02*
X16893872Y-13908150D01*
X16893872Y-13908150D02*
X16912920Y-13908150D01*
X16979586Y-14041484D02*
X16979586Y-13908150D01*
X16979586Y-13841484D02*
X16970063Y-13851008D01*
X16970063Y-13851008D02*
X16979586Y-13860531D01*
X16979586Y-13860531D02*
X16989110Y-13851008D01*
X16989110Y-13851008D02*
X16979586Y-13841484D01*
X16979586Y-13841484D02*
X16979586Y-13860531D01*
X17103396Y-14041484D02*
X17084348Y-14031960D01*
X17084348Y-14031960D02*
X17074824Y-14012912D01*
X17074824Y-14012912D02*
X17074824Y-13841484D01*
X17208158Y-14041484D02*
X17189110Y-14031960D01*
X17189110Y-14031960D02*
X17179586Y-14012912D01*
X17179586Y-14012912D02*
X17179586Y-13841484D01*
X17436729Y-14041484D02*
X17436729Y-13841484D01*
X17436729Y-13841484D02*
X17503396Y-13984341D01*
X17503396Y-13984341D02*
X17570063Y-13841484D01*
X17570063Y-13841484D02*
X17570063Y-14041484D01*
X17751015Y-14041484D02*
X17751015Y-13936722D01*
X17751015Y-13936722D02*
X17741491Y-13917674D01*
X17741491Y-13917674D02*
X17722444Y-13908150D01*
X17722444Y-13908150D02*
X17684348Y-13908150D01*
X17684348Y-13908150D02*
X17665301Y-13917674D01*
X17751015Y-14031960D02*
X17731967Y-14041484D01*
X17731967Y-14041484D02*
X17684348Y-14041484D01*
X17684348Y-14041484D02*
X17665301Y-14031960D01*
X17665301Y-14031960D02*
X17655777Y-14012912D01*
X17655777Y-14012912D02*
X17655777Y-13993865D01*
X17655777Y-13993865D02*
X17665301Y-13974817D01*
X17665301Y-13974817D02*
X17684348Y-13965293D01*
X17684348Y-13965293D02*
X17731967Y-13965293D01*
X17731967Y-13965293D02*
X17751015Y-13955769D01*
X17846253Y-13908150D02*
X17846253Y-14108150D01*
X17846253Y-13917674D02*
X17865301Y-13908150D01*
X17865301Y-13908150D02*
X17903396Y-13908150D01*
X17903396Y-13908150D02*
X17922444Y-13917674D01*
X17922444Y-13917674D02*
X17931967Y-13927198D01*
X17931967Y-13927198D02*
X17941491Y-13946246D01*
X17941491Y-13946246D02*
X17941491Y-14003388D01*
X17941491Y-14003388D02*
X17931967Y-14022436D01*
X17931967Y-14022436D02*
X17922444Y-14031960D01*
X17922444Y-14031960D02*
X17903396Y-14041484D01*
X17903396Y-14041484D02*
X17865301Y-14041484D01*
X17865301Y-14041484D02*
X17846253Y-14031960D01*
X18027205Y-14022436D02*
X18036729Y-14031960D01*
X18036729Y-14031960D02*
X18027205Y-14041484D01*
X18027205Y-14041484D02*
X18017682Y-14031960D01*
X18017682Y-14031960D02*
X18027205Y-14022436D01*
X18027205Y-14022436D02*
X18027205Y-14041484D01*
X18027205Y-13917674D02*
X18036729Y-13927198D01*
X18036729Y-13927198D02*
X18027205Y-13936722D01*
X18027205Y-13936722D02*
X18017682Y-13927198D01*
X18017682Y-13927198D02*
X18027205Y-13917674D01*
X18027205Y-13917674D02*
X18027205Y-13936722D01*
M02*
