%TF.GenerationSoftware,KiCad,Pcbnew,8.0.4*%
%TF.CreationDate,2024-08-07T12:52:17+02:00*%
%TF.ProjectId,bottom,626f7474-6f6d-42e6-9b69-6361645f7063,rev?*%
%TF.SameCoordinates,Original*%
%TF.FileFunction,Legend,Top*%
%TF.FilePolarity,Positive*%
%FSLAX46Y46*%
G04 Gerber Fmt 4.6, Leading zero omitted, Abs format (unit mm)*
G04 Created by KiCad (PCBNEW 8.0.4) date 2024-08-07 12:52:17*
%MOMM*%
%LPD*%
G01*
G04 APERTURE LIST*
%ADD10C,0.150000*%
%ADD11C,0.100000*%
G04 APERTURE END LIST*
D10*
X189053571Y-114372438D02*
X189053571Y-112372438D01*
X189053571Y-112372438D02*
X190196428Y-114372438D01*
X190196428Y-114372438D02*
X190196428Y-112372438D01*
X199944047Y-114372438D02*
X198991666Y-114372438D01*
X198991666Y-114372438D02*
X198991666Y-112372438D01*
X179209398Y-113229580D02*
X181114160Y-113229580D01*
X179590350Y-113801009D02*
X180733207Y-113801009D01*
X180161779Y-112372438D02*
X180161779Y-113229580D01*
X180352255Y-114372438D02*
X179971303Y-114372438D01*
D11*
X179438095Y-106507419D02*
X179438095Y-107316942D01*
X179438095Y-107316942D02*
X179485714Y-107412180D01*
X179485714Y-107412180D02*
X179533333Y-107459800D01*
X179533333Y-107459800D02*
X179628571Y-107507419D01*
X179628571Y-107507419D02*
X179819047Y-107507419D01*
X179819047Y-107507419D02*
X179914285Y-107459800D01*
X179914285Y-107459800D02*
X179961904Y-107412180D01*
X179961904Y-107412180D02*
X180009523Y-107316942D01*
X180009523Y-107316942D02*
X180009523Y-106507419D01*
X181009523Y-107507419D02*
X180438095Y-107507419D01*
X180723809Y-107507419D02*
X180723809Y-106507419D01*
X180723809Y-106507419D02*
X180628571Y-106650276D01*
X180628571Y-106650276D02*
X180533333Y-106745514D01*
X180533333Y-106745514D02*
X180438095Y-106793133D01*
M02*
