%TF.GenerationSoftware,KiCad,Pcbnew,8.0.4*%
%TF.CreationDate,2024-08-07T12:52:22+02:00*%
%TF.ProjectId,bottom,626f7474-6f6d-42e6-9b69-6361645f7063,rev?*%
%TF.SameCoordinates,Original*%
%TF.FileFunction,Drillmap*%
%TF.FilePolarity,Positive*%
%FSLAX45Y45*%
G04 Gerber Fmt 4.5, Leading zero omitted, Abs format (unit mm)*
G04 Created by KiCad (PCBNEW 8.0.4) date 2024-08-07 12:52:22*
%MOMM*%
%LPD*%
G01*
G04 APERTURE LIST*
%ADD10C,0.100000*%
%ADD11C,0.050000*%
%ADD12C,0.200000*%
%ADD13C,0.160000*%
%ADD14C,0.360000*%
G04 APERTURE END LIST*
D10*
X19345000Y-10105000D02*
X18595000Y-10105000D01*
X20295000Y-11555000D02*
X21600000Y-11555000D01*
X18595000Y-11555000D02*
X18395000Y-11555000D01*
X16400000Y-13725000D02*
X16400000Y-11555000D01*
X17645000Y-10105000D02*
X17645000Y-11555000D01*
X18395000Y-11555000D02*
X18395000Y-10105000D01*
X19545000Y-10105000D02*
X19545000Y-11555000D01*
X16400000Y-11555000D02*
X17645000Y-11555000D01*
X20375000Y-13725000D02*
X16400000Y-13725000D01*
X21600000Y-11555000D02*
X21600000Y-13725000D01*
X21600000Y-13725000D02*
X20375000Y-13725000D01*
X18395000Y-10105000D02*
X17645000Y-10105000D01*
X20295000Y-11555000D02*
X20295000Y-10105000D01*
X18595000Y-10105000D02*
X18595000Y-11555000D01*
X19545000Y-11555000D02*
X19345000Y-11555000D01*
X20295000Y-10105000D02*
X19545000Y-10105000D01*
X19345000Y-11555000D02*
X19345000Y-10105000D01*
D11*
X17154400Y-12740000D02*
G75*
G02*
X16814400Y-12740000I-170000J0D01*
G01*
X16814400Y-12740000D02*
G75*
G02*
X17154400Y-12740000I170000J0D01*
G01*
X21154400Y-12740000D02*
G75*
G02*
X20814400Y-12740000I-170000J0D01*
G01*
X20814400Y-12740000D02*
G75*
G02*
X21154400Y-12740000I170000J0D01*
G01*
D12*
D13*
X17990000Y-11695000D02*
X18150000Y-11855000D01*
X18150000Y-11695000D02*
X17990000Y-11855000D01*
X18904400Y-11695000D02*
X19064400Y-11855000D01*
X19064400Y-11695000D02*
X18904400Y-11855000D01*
X19818800Y-11695000D02*
X19978800Y-11855000D01*
X19978800Y-11695000D02*
X19818800Y-11855000D01*
D14*
X18200000Y-10755000D02*
G75*
G02*
X17840000Y-10755000I-180000J0D01*
G01*
X17840000Y-10755000D02*
G75*
G02*
X18200000Y-10755000I180000J0D01*
G01*
X19150000Y-10755000D02*
G75*
G02*
X18790000Y-10755000I-180000J0D01*
G01*
X18790000Y-10755000D02*
G75*
G02*
X19150000Y-10755000I180000J0D01*
G01*
X20100000Y-10755000D02*
G75*
G02*
X19740000Y-10755000I-180000J0D01*
G01*
X19740000Y-10755000D02*
G75*
G02*
X20100000Y-10755000I180000J0D01*
G01*
D12*
X16655777Y-14041484D02*
X16655777Y-13841484D01*
X16655777Y-13841484D02*
X16703396Y-13841484D01*
X16703396Y-13841484D02*
X16731967Y-13851008D01*
X16731967Y-13851008D02*
X16751015Y-13870055D01*
X16751015Y-13870055D02*
X16760539Y-13889103D01*
X16760539Y-13889103D02*
X16770062Y-13927198D01*
X16770062Y-13927198D02*
X16770062Y-13955769D01*
X16770062Y-13955769D02*
X16760539Y-13993865D01*
X16760539Y-13993865D02*
X16751015Y-14012912D01*
X16751015Y-14012912D02*
X16731967Y-14031960D01*
X16731967Y-14031960D02*
X16703396Y-14041484D01*
X16703396Y-14041484D02*
X16655777Y-14041484D01*
X16855777Y-14041484D02*
X16855777Y-13908150D01*
X16855777Y-13946246D02*
X16865301Y-13927198D01*
X16865301Y-13927198D02*
X16874824Y-13917674D01*
X16874824Y-13917674D02*
X16893872Y-13908150D01*
X16893872Y-13908150D02*
X16912920Y-13908150D01*
X16979586Y-14041484D02*
X16979586Y-13908150D01*
X16979586Y-13841484D02*
X16970063Y-13851008D01*
X16970063Y-13851008D02*
X16979586Y-13860531D01*
X16979586Y-13860531D02*
X16989110Y-13851008D01*
X16989110Y-13851008D02*
X16979586Y-13841484D01*
X16979586Y-13841484D02*
X16979586Y-13860531D01*
X17103396Y-14041484D02*
X17084348Y-14031960D01*
X17084348Y-14031960D02*
X17074824Y-14012912D01*
X17074824Y-14012912D02*
X17074824Y-13841484D01*
X17208158Y-14041484D02*
X17189110Y-14031960D01*
X17189110Y-14031960D02*
X17179586Y-14012912D01*
X17179586Y-14012912D02*
X17179586Y-13841484D01*
X17436729Y-14041484D02*
X17436729Y-13841484D01*
X17436729Y-13841484D02*
X17503396Y-13984341D01*
X17503396Y-13984341D02*
X17570063Y-13841484D01*
X17570063Y-13841484D02*
X17570063Y-14041484D01*
X17751015Y-14041484D02*
X17751015Y-13936722D01*
X17751015Y-13936722D02*
X17741491Y-13917674D01*
X17741491Y-13917674D02*
X17722444Y-13908150D01*
X17722444Y-13908150D02*
X17684348Y-13908150D01*
X17684348Y-13908150D02*
X17665301Y-13917674D01*
X17751015Y-14031960D02*
X17731967Y-14041484D01*
X17731967Y-14041484D02*
X17684348Y-14041484D01*
X17684348Y-14041484D02*
X17665301Y-14031960D01*
X17665301Y-14031960D02*
X17655777Y-14012912D01*
X17655777Y-14012912D02*
X17655777Y-13993865D01*
X17655777Y-13993865D02*
X17665301Y-13974817D01*
X17665301Y-13974817D02*
X17684348Y-13965293D01*
X17684348Y-13965293D02*
X17731967Y-13965293D01*
X17731967Y-13965293D02*
X17751015Y-13955769D01*
X17846253Y-13908150D02*
X17846253Y-14108150D01*
X17846253Y-13917674D02*
X17865301Y-13908150D01*
X17865301Y-13908150D02*
X17903396Y-13908150D01*
X17903396Y-13908150D02*
X17922444Y-13917674D01*
X17922444Y-13917674D02*
X17931967Y-13927198D01*
X17931967Y-13927198D02*
X17941491Y-13946246D01*
X17941491Y-13946246D02*
X17941491Y-14003388D01*
X17941491Y-14003388D02*
X17931967Y-14022436D01*
X17931967Y-14022436D02*
X17922444Y-14031960D01*
X17922444Y-14031960D02*
X17903396Y-14041484D01*
X17903396Y-14041484D02*
X17865301Y-14041484D01*
X17865301Y-14041484D02*
X17846253Y-14031960D01*
X18027205Y-14022436D02*
X18036729Y-14031960D01*
X18036729Y-14031960D02*
X18027205Y-14041484D01*
X18027205Y-14041484D02*
X18017682Y-14031960D01*
X18017682Y-14031960D02*
X18027205Y-14022436D01*
X18027205Y-14022436D02*
X18027205Y-14041484D01*
X18027205Y-13917674D02*
X18036729Y-13927198D01*
X18036729Y-13927198D02*
X18027205Y-13936722D01*
X18027205Y-13936722D02*
X18017682Y-13927198D01*
X18017682Y-13927198D02*
X18027205Y-13917674D01*
X18027205Y-13917674D02*
X18027205Y-13936722D01*
D13*
X16235000Y-14290000D02*
X16395000Y-14450000D01*
X16395000Y-14290000D02*
X16235000Y-14450000D01*
D12*
X16760539Y-14461484D02*
X16646253Y-14461484D01*
X16703396Y-14461484D02*
X16703396Y-14261484D01*
X16703396Y-14261484D02*
X16684348Y-14290055D01*
X16684348Y-14290055D02*
X16665301Y-14309103D01*
X16665301Y-14309103D02*
X16646253Y-14318627D01*
X16846253Y-14442436D02*
X16855777Y-14451960D01*
X16855777Y-14451960D02*
X16846253Y-14461484D01*
X16846253Y-14461484D02*
X16836729Y-14451960D01*
X16836729Y-14451960D02*
X16846253Y-14442436D01*
X16846253Y-14442436D02*
X16846253Y-14461484D01*
X17027205Y-14261484D02*
X16989110Y-14261484D01*
X16989110Y-14261484D02*
X16970063Y-14271008D01*
X16970063Y-14271008D02*
X16960539Y-14280531D01*
X16960539Y-14280531D02*
X16941491Y-14309103D01*
X16941491Y-14309103D02*
X16931967Y-14347198D01*
X16931967Y-14347198D02*
X16931967Y-14423388D01*
X16931967Y-14423388D02*
X16941491Y-14442436D01*
X16941491Y-14442436D02*
X16951015Y-14451960D01*
X16951015Y-14451960D02*
X16970063Y-14461484D01*
X16970063Y-14461484D02*
X17008158Y-14461484D01*
X17008158Y-14461484D02*
X17027205Y-14451960D01*
X17027205Y-14451960D02*
X17036729Y-14442436D01*
X17036729Y-14442436D02*
X17046253Y-14423388D01*
X17046253Y-14423388D02*
X17046253Y-14375769D01*
X17046253Y-14375769D02*
X17036729Y-14356722D01*
X17036729Y-14356722D02*
X17027205Y-14347198D01*
X17027205Y-14347198D02*
X17008158Y-14337674D01*
X17008158Y-14337674D02*
X16970063Y-14337674D01*
X16970063Y-14337674D02*
X16951015Y-14347198D01*
X16951015Y-14347198D02*
X16941491Y-14356722D01*
X16941491Y-14356722D02*
X16931967Y-14375769D01*
X17170063Y-14261484D02*
X17189110Y-14261484D01*
X17189110Y-14261484D02*
X17208158Y-14271008D01*
X17208158Y-14271008D02*
X17217682Y-14280531D01*
X17217682Y-14280531D02*
X17227205Y-14299579D01*
X17227205Y-14299579D02*
X17236729Y-14337674D01*
X17236729Y-14337674D02*
X17236729Y-14385293D01*
X17236729Y-14385293D02*
X17227205Y-14423388D01*
X17227205Y-14423388D02*
X17217682Y-14442436D01*
X17217682Y-14442436D02*
X17208158Y-14451960D01*
X17208158Y-14451960D02*
X17189110Y-14461484D01*
X17189110Y-14461484D02*
X17170063Y-14461484D01*
X17170063Y-14461484D02*
X17151015Y-14451960D01*
X17151015Y-14451960D02*
X17141491Y-14442436D01*
X17141491Y-14442436D02*
X17131967Y-14423388D01*
X17131967Y-14423388D02*
X17122444Y-14385293D01*
X17122444Y-14385293D02*
X17122444Y-14337674D01*
X17122444Y-14337674D02*
X17131967Y-14299579D01*
X17131967Y-14299579D02*
X17141491Y-14280531D01*
X17141491Y-14280531D02*
X17151015Y-14271008D01*
X17151015Y-14271008D02*
X17170063Y-14261484D01*
X17360539Y-14261484D02*
X17379586Y-14261484D01*
X17379586Y-14261484D02*
X17398634Y-14271008D01*
X17398634Y-14271008D02*
X17408158Y-14280531D01*
X17408158Y-14280531D02*
X17417682Y-14299579D01*
X17417682Y-14299579D02*
X17427205Y-14337674D01*
X17427205Y-14337674D02*
X17427205Y-14385293D01*
X17427205Y-14385293D02*
X17417682Y-14423388D01*
X17417682Y-14423388D02*
X17408158Y-14442436D01*
X17408158Y-14442436D02*
X17398634Y-14451960D01*
X17398634Y-14451960D02*
X17379586Y-14461484D01*
X17379586Y-14461484D02*
X17360539Y-14461484D01*
X17360539Y-14461484D02*
X17341491Y-14451960D01*
X17341491Y-14451960D02*
X17331967Y-14442436D01*
X17331967Y-14442436D02*
X17322444Y-14423388D01*
X17322444Y-14423388D02*
X17312920Y-14385293D01*
X17312920Y-14385293D02*
X17312920Y-14337674D01*
X17312920Y-14337674D02*
X17322444Y-14299579D01*
X17322444Y-14299579D02*
X17331967Y-14280531D01*
X17331967Y-14280531D02*
X17341491Y-14271008D01*
X17341491Y-14271008D02*
X17360539Y-14261484D01*
X17512920Y-14461484D02*
X17512920Y-14328150D01*
X17512920Y-14347198D02*
X17522444Y-14337674D01*
X17522444Y-14337674D02*
X17541491Y-14328150D01*
X17541491Y-14328150D02*
X17570063Y-14328150D01*
X17570063Y-14328150D02*
X17589110Y-14337674D01*
X17589110Y-14337674D02*
X17598634Y-14356722D01*
X17598634Y-14356722D02*
X17598634Y-14461484D01*
X17598634Y-14356722D02*
X17608158Y-14337674D01*
X17608158Y-14337674D02*
X17627205Y-14328150D01*
X17627205Y-14328150D02*
X17655777Y-14328150D01*
X17655777Y-14328150D02*
X17674825Y-14337674D01*
X17674825Y-14337674D02*
X17684348Y-14356722D01*
X17684348Y-14356722D02*
X17684348Y-14461484D01*
X17779586Y-14461484D02*
X17779586Y-14328150D01*
X17779586Y-14347198D02*
X17789110Y-14337674D01*
X17789110Y-14337674D02*
X17808158Y-14328150D01*
X17808158Y-14328150D02*
X17836729Y-14328150D01*
X17836729Y-14328150D02*
X17855777Y-14337674D01*
X17855777Y-14337674D02*
X17865301Y-14356722D01*
X17865301Y-14356722D02*
X17865301Y-14461484D01*
X17865301Y-14356722D02*
X17874825Y-14337674D01*
X17874825Y-14337674D02*
X17893872Y-14328150D01*
X17893872Y-14328150D02*
X17922444Y-14328150D01*
X17922444Y-14328150D02*
X17941491Y-14337674D01*
X17941491Y-14337674D02*
X17951015Y-14356722D01*
X17951015Y-14356722D02*
X17951015Y-14461484D01*
X18341491Y-14251960D02*
X18170063Y-14509103D01*
X18598634Y-14261484D02*
X18617682Y-14261484D01*
X18617682Y-14261484D02*
X18636729Y-14271008D01*
X18636729Y-14271008D02*
X18646253Y-14280531D01*
X18646253Y-14280531D02*
X18655777Y-14299579D01*
X18655777Y-14299579D02*
X18665301Y-14337674D01*
X18665301Y-14337674D02*
X18665301Y-14385293D01*
X18665301Y-14385293D02*
X18655777Y-14423388D01*
X18655777Y-14423388D02*
X18646253Y-14442436D01*
X18646253Y-14442436D02*
X18636729Y-14451960D01*
X18636729Y-14451960D02*
X18617682Y-14461484D01*
X18617682Y-14461484D02*
X18598634Y-14461484D01*
X18598634Y-14461484D02*
X18579587Y-14451960D01*
X18579587Y-14451960D02*
X18570063Y-14442436D01*
X18570063Y-14442436D02*
X18560539Y-14423388D01*
X18560539Y-14423388D02*
X18551015Y-14385293D01*
X18551015Y-14385293D02*
X18551015Y-14337674D01*
X18551015Y-14337674D02*
X18560539Y-14299579D01*
X18560539Y-14299579D02*
X18570063Y-14280531D01*
X18570063Y-14280531D02*
X18579587Y-14271008D01*
X18579587Y-14271008D02*
X18598634Y-14261484D01*
X18751015Y-14442436D02*
X18760539Y-14451960D01*
X18760539Y-14451960D02*
X18751015Y-14461484D01*
X18751015Y-14461484D02*
X18741491Y-14451960D01*
X18741491Y-14451960D02*
X18751015Y-14442436D01*
X18751015Y-14442436D02*
X18751015Y-14461484D01*
X18884348Y-14261484D02*
X18903396Y-14261484D01*
X18903396Y-14261484D02*
X18922444Y-14271008D01*
X18922444Y-14271008D02*
X18931968Y-14280531D01*
X18931968Y-14280531D02*
X18941491Y-14299579D01*
X18941491Y-14299579D02*
X18951015Y-14337674D01*
X18951015Y-14337674D02*
X18951015Y-14385293D01*
X18951015Y-14385293D02*
X18941491Y-14423388D01*
X18941491Y-14423388D02*
X18931968Y-14442436D01*
X18931968Y-14442436D02*
X18922444Y-14451960D01*
X18922444Y-14451960D02*
X18903396Y-14461484D01*
X18903396Y-14461484D02*
X18884348Y-14461484D01*
X18884348Y-14461484D02*
X18865301Y-14451960D01*
X18865301Y-14451960D02*
X18855777Y-14442436D01*
X18855777Y-14442436D02*
X18846253Y-14423388D01*
X18846253Y-14423388D02*
X18836729Y-14385293D01*
X18836729Y-14385293D02*
X18836729Y-14337674D01*
X18836729Y-14337674D02*
X18846253Y-14299579D01*
X18846253Y-14299579D02*
X18855777Y-14280531D01*
X18855777Y-14280531D02*
X18865301Y-14271008D01*
X18865301Y-14271008D02*
X18884348Y-14261484D01*
X19122444Y-14261484D02*
X19084348Y-14261484D01*
X19084348Y-14261484D02*
X19065301Y-14271008D01*
X19065301Y-14271008D02*
X19055777Y-14280531D01*
X19055777Y-14280531D02*
X19036729Y-14309103D01*
X19036729Y-14309103D02*
X19027206Y-14347198D01*
X19027206Y-14347198D02*
X19027206Y-14423388D01*
X19027206Y-14423388D02*
X19036729Y-14442436D01*
X19036729Y-14442436D02*
X19046253Y-14451960D01*
X19046253Y-14451960D02*
X19065301Y-14461484D01*
X19065301Y-14461484D02*
X19103396Y-14461484D01*
X19103396Y-14461484D02*
X19122444Y-14451960D01*
X19122444Y-14451960D02*
X19131968Y-14442436D01*
X19131968Y-14442436D02*
X19141491Y-14423388D01*
X19141491Y-14423388D02*
X19141491Y-14375769D01*
X19141491Y-14375769D02*
X19131968Y-14356722D01*
X19131968Y-14356722D02*
X19122444Y-14347198D01*
X19122444Y-14347198D02*
X19103396Y-14337674D01*
X19103396Y-14337674D02*
X19065301Y-14337674D01*
X19065301Y-14337674D02*
X19046253Y-14347198D01*
X19046253Y-14347198D02*
X19036729Y-14356722D01*
X19036729Y-14356722D02*
X19027206Y-14375769D01*
X19208158Y-14261484D02*
X19331968Y-14261484D01*
X19331968Y-14261484D02*
X19265301Y-14337674D01*
X19265301Y-14337674D02*
X19293872Y-14337674D01*
X19293872Y-14337674D02*
X19312920Y-14347198D01*
X19312920Y-14347198D02*
X19322444Y-14356722D01*
X19322444Y-14356722D02*
X19331968Y-14375769D01*
X19331968Y-14375769D02*
X19331968Y-14423388D01*
X19331968Y-14423388D02*
X19322444Y-14442436D01*
X19322444Y-14442436D02*
X19312920Y-14451960D01*
X19312920Y-14451960D02*
X19293872Y-14461484D01*
X19293872Y-14461484D02*
X19236729Y-14461484D01*
X19236729Y-14461484D02*
X19217682Y-14451960D01*
X19217682Y-14451960D02*
X19208158Y-14442436D01*
X19455777Y-14261484D02*
X19474825Y-14261484D01*
X19474825Y-14261484D02*
X19493872Y-14271008D01*
X19493872Y-14271008D02*
X19503396Y-14280531D01*
X19503396Y-14280531D02*
X19512920Y-14299579D01*
X19512920Y-14299579D02*
X19522444Y-14337674D01*
X19522444Y-14337674D02*
X19522444Y-14385293D01*
X19522444Y-14385293D02*
X19512920Y-14423388D01*
X19512920Y-14423388D02*
X19503396Y-14442436D01*
X19503396Y-14442436D02*
X19493872Y-14451960D01*
X19493872Y-14451960D02*
X19474825Y-14461484D01*
X19474825Y-14461484D02*
X19455777Y-14461484D01*
X19455777Y-14461484D02*
X19436729Y-14451960D01*
X19436729Y-14451960D02*
X19427206Y-14442436D01*
X19427206Y-14442436D02*
X19417682Y-14423388D01*
X19417682Y-14423388D02*
X19408158Y-14385293D01*
X19408158Y-14385293D02*
X19408158Y-14337674D01*
X19408158Y-14337674D02*
X19417682Y-14299579D01*
X19417682Y-14299579D02*
X19427206Y-14280531D01*
X19427206Y-14280531D02*
X19436729Y-14271008D01*
X19436729Y-14271008D02*
X19455777Y-14261484D01*
X19598634Y-14261484D02*
X19598634Y-14299579D01*
X19674825Y-14261484D02*
X19674825Y-14299579D01*
X19970063Y-14537674D02*
X19960539Y-14528150D01*
X19960539Y-14528150D02*
X19941491Y-14499579D01*
X19941491Y-14499579D02*
X19931968Y-14480531D01*
X19931968Y-14480531D02*
X19922444Y-14451960D01*
X19922444Y-14451960D02*
X19912920Y-14404341D01*
X19912920Y-14404341D02*
X19912920Y-14366246D01*
X19912920Y-14366246D02*
X19922444Y-14318627D01*
X19922444Y-14318627D02*
X19931968Y-14290055D01*
X19931968Y-14290055D02*
X19941491Y-14271008D01*
X19941491Y-14271008D02*
X19960539Y-14242436D01*
X19960539Y-14242436D02*
X19970063Y-14232912D01*
X20027206Y-14261484D02*
X20151015Y-14261484D01*
X20151015Y-14261484D02*
X20084349Y-14337674D01*
X20084349Y-14337674D02*
X20112920Y-14337674D01*
X20112920Y-14337674D02*
X20131968Y-14347198D01*
X20131968Y-14347198D02*
X20141491Y-14356722D01*
X20141491Y-14356722D02*
X20151015Y-14375769D01*
X20151015Y-14375769D02*
X20151015Y-14423388D01*
X20151015Y-14423388D02*
X20141491Y-14442436D01*
X20141491Y-14442436D02*
X20131968Y-14451960D01*
X20131968Y-14451960D02*
X20112920Y-14461484D01*
X20112920Y-14461484D02*
X20055777Y-14461484D01*
X20055777Y-14461484D02*
X20036730Y-14451960D01*
X20036730Y-14451960D02*
X20027206Y-14442436D01*
X20389111Y-14461484D02*
X20389111Y-14261484D01*
X20474825Y-14461484D02*
X20474825Y-14356722D01*
X20474825Y-14356722D02*
X20465301Y-14337674D01*
X20465301Y-14337674D02*
X20446253Y-14328150D01*
X20446253Y-14328150D02*
X20417682Y-14328150D01*
X20417682Y-14328150D02*
X20398634Y-14337674D01*
X20398634Y-14337674D02*
X20389111Y-14347198D01*
X20598634Y-14461484D02*
X20579587Y-14451960D01*
X20579587Y-14451960D02*
X20570063Y-14442436D01*
X20570063Y-14442436D02*
X20560539Y-14423388D01*
X20560539Y-14423388D02*
X20560539Y-14366246D01*
X20560539Y-14366246D02*
X20570063Y-14347198D01*
X20570063Y-14347198D02*
X20579587Y-14337674D01*
X20579587Y-14337674D02*
X20598634Y-14328150D01*
X20598634Y-14328150D02*
X20627206Y-14328150D01*
X20627206Y-14328150D02*
X20646253Y-14337674D01*
X20646253Y-14337674D02*
X20655777Y-14347198D01*
X20655777Y-14347198D02*
X20665301Y-14366246D01*
X20665301Y-14366246D02*
X20665301Y-14423388D01*
X20665301Y-14423388D02*
X20655777Y-14442436D01*
X20655777Y-14442436D02*
X20646253Y-14451960D01*
X20646253Y-14451960D02*
X20627206Y-14461484D01*
X20627206Y-14461484D02*
X20598634Y-14461484D01*
X20779587Y-14461484D02*
X20760539Y-14451960D01*
X20760539Y-14451960D02*
X20751015Y-14432912D01*
X20751015Y-14432912D02*
X20751015Y-14261484D01*
X20931968Y-14451960D02*
X20912920Y-14461484D01*
X20912920Y-14461484D02*
X20874825Y-14461484D01*
X20874825Y-14461484D02*
X20855777Y-14451960D01*
X20855777Y-14451960D02*
X20846253Y-14432912D01*
X20846253Y-14432912D02*
X20846253Y-14356722D01*
X20846253Y-14356722D02*
X20855777Y-14337674D01*
X20855777Y-14337674D02*
X20874825Y-14328150D01*
X20874825Y-14328150D02*
X20912920Y-14328150D01*
X20912920Y-14328150D02*
X20931968Y-14337674D01*
X20931968Y-14337674D02*
X20941492Y-14356722D01*
X20941492Y-14356722D02*
X20941492Y-14375769D01*
X20941492Y-14375769D02*
X20846253Y-14394817D01*
X21017682Y-14451960D02*
X21036730Y-14461484D01*
X21036730Y-14461484D02*
X21074825Y-14461484D01*
X21074825Y-14461484D02*
X21093873Y-14451960D01*
X21093873Y-14451960D02*
X21103396Y-14432912D01*
X21103396Y-14432912D02*
X21103396Y-14423388D01*
X21103396Y-14423388D02*
X21093873Y-14404341D01*
X21093873Y-14404341D02*
X21074825Y-14394817D01*
X21074825Y-14394817D02*
X21046253Y-14394817D01*
X21046253Y-14394817D02*
X21027206Y-14385293D01*
X21027206Y-14385293D02*
X21017682Y-14366246D01*
X21017682Y-14366246D02*
X21017682Y-14356722D01*
X21017682Y-14356722D02*
X21027206Y-14337674D01*
X21027206Y-14337674D02*
X21046253Y-14328150D01*
X21046253Y-14328150D02*
X21074825Y-14328150D01*
X21074825Y-14328150D02*
X21093873Y-14337674D01*
X21170063Y-14537674D02*
X21179587Y-14528150D01*
X21179587Y-14528150D02*
X21198634Y-14499579D01*
X21198634Y-14499579D02*
X21208158Y-14480531D01*
X21208158Y-14480531D02*
X21217682Y-14451960D01*
X21217682Y-14451960D02*
X21227206Y-14404341D01*
X21227206Y-14404341D02*
X21227206Y-14366246D01*
X21227206Y-14366246D02*
X21217682Y-14318627D01*
X21217682Y-14318627D02*
X21208158Y-14290055D01*
X21208158Y-14290055D02*
X21198634Y-14271008D01*
X21198634Y-14271008D02*
X21179587Y-14242436D01*
X21179587Y-14242436D02*
X21170063Y-14232912D01*
X16395000Y-14650000D02*
G75*
G02*
X16195000Y-14650000I-100000J0D01*
G01*
X16195000Y-14650000D02*
G75*
G02*
X16395000Y-14650000I100000J0D01*
G01*
X16636729Y-14541484D02*
X16760539Y-14541484D01*
X16760539Y-14541484D02*
X16693872Y-14617674D01*
X16693872Y-14617674D02*
X16722443Y-14617674D01*
X16722443Y-14617674D02*
X16741491Y-14627198D01*
X16741491Y-14627198D02*
X16751015Y-14636722D01*
X16751015Y-14636722D02*
X16760539Y-14655769D01*
X16760539Y-14655769D02*
X16760539Y-14703388D01*
X16760539Y-14703388D02*
X16751015Y-14722436D01*
X16751015Y-14722436D02*
X16741491Y-14731960D01*
X16741491Y-14731960D02*
X16722443Y-14741484D01*
X16722443Y-14741484D02*
X16665301Y-14741484D01*
X16665301Y-14741484D02*
X16646253Y-14731960D01*
X16646253Y-14731960D02*
X16636729Y-14722436D01*
X16846253Y-14722436D02*
X16855777Y-14731960D01*
X16855777Y-14731960D02*
X16846253Y-14741484D01*
X16846253Y-14741484D02*
X16836729Y-14731960D01*
X16836729Y-14731960D02*
X16846253Y-14722436D01*
X16846253Y-14722436D02*
X16846253Y-14741484D01*
X17027205Y-14541484D02*
X16989110Y-14541484D01*
X16989110Y-14541484D02*
X16970063Y-14551008D01*
X16970063Y-14551008D02*
X16960539Y-14560531D01*
X16960539Y-14560531D02*
X16941491Y-14589103D01*
X16941491Y-14589103D02*
X16931967Y-14627198D01*
X16931967Y-14627198D02*
X16931967Y-14703388D01*
X16931967Y-14703388D02*
X16941491Y-14722436D01*
X16941491Y-14722436D02*
X16951015Y-14731960D01*
X16951015Y-14731960D02*
X16970063Y-14741484D01*
X16970063Y-14741484D02*
X17008158Y-14741484D01*
X17008158Y-14741484D02*
X17027205Y-14731960D01*
X17027205Y-14731960D02*
X17036729Y-14722436D01*
X17036729Y-14722436D02*
X17046253Y-14703388D01*
X17046253Y-14703388D02*
X17046253Y-14655769D01*
X17046253Y-14655769D02*
X17036729Y-14636722D01*
X17036729Y-14636722D02*
X17027205Y-14627198D01*
X17027205Y-14627198D02*
X17008158Y-14617674D01*
X17008158Y-14617674D02*
X16970063Y-14617674D01*
X16970063Y-14617674D02*
X16951015Y-14627198D01*
X16951015Y-14627198D02*
X16941491Y-14636722D01*
X16941491Y-14636722D02*
X16931967Y-14655769D01*
X17170063Y-14541484D02*
X17189110Y-14541484D01*
X17189110Y-14541484D02*
X17208158Y-14551008D01*
X17208158Y-14551008D02*
X17217682Y-14560531D01*
X17217682Y-14560531D02*
X17227205Y-14579579D01*
X17227205Y-14579579D02*
X17236729Y-14617674D01*
X17236729Y-14617674D02*
X17236729Y-14665293D01*
X17236729Y-14665293D02*
X17227205Y-14703388D01*
X17227205Y-14703388D02*
X17217682Y-14722436D01*
X17217682Y-14722436D02*
X17208158Y-14731960D01*
X17208158Y-14731960D02*
X17189110Y-14741484D01*
X17189110Y-14741484D02*
X17170063Y-14741484D01*
X17170063Y-14741484D02*
X17151015Y-14731960D01*
X17151015Y-14731960D02*
X17141491Y-14722436D01*
X17141491Y-14722436D02*
X17131967Y-14703388D01*
X17131967Y-14703388D02*
X17122444Y-14665293D01*
X17122444Y-14665293D02*
X17122444Y-14617674D01*
X17122444Y-14617674D02*
X17131967Y-14579579D01*
X17131967Y-14579579D02*
X17141491Y-14560531D01*
X17141491Y-14560531D02*
X17151015Y-14551008D01*
X17151015Y-14551008D02*
X17170063Y-14541484D01*
X17360539Y-14541484D02*
X17379586Y-14541484D01*
X17379586Y-14541484D02*
X17398634Y-14551008D01*
X17398634Y-14551008D02*
X17408158Y-14560531D01*
X17408158Y-14560531D02*
X17417682Y-14579579D01*
X17417682Y-14579579D02*
X17427205Y-14617674D01*
X17427205Y-14617674D02*
X17427205Y-14665293D01*
X17427205Y-14665293D02*
X17417682Y-14703388D01*
X17417682Y-14703388D02*
X17408158Y-14722436D01*
X17408158Y-14722436D02*
X17398634Y-14731960D01*
X17398634Y-14731960D02*
X17379586Y-14741484D01*
X17379586Y-14741484D02*
X17360539Y-14741484D01*
X17360539Y-14741484D02*
X17341491Y-14731960D01*
X17341491Y-14731960D02*
X17331967Y-14722436D01*
X17331967Y-14722436D02*
X17322444Y-14703388D01*
X17322444Y-14703388D02*
X17312920Y-14665293D01*
X17312920Y-14665293D02*
X17312920Y-14617674D01*
X17312920Y-14617674D02*
X17322444Y-14579579D01*
X17322444Y-14579579D02*
X17331967Y-14560531D01*
X17331967Y-14560531D02*
X17341491Y-14551008D01*
X17341491Y-14551008D02*
X17360539Y-14541484D01*
X17512920Y-14741484D02*
X17512920Y-14608150D01*
X17512920Y-14627198D02*
X17522444Y-14617674D01*
X17522444Y-14617674D02*
X17541491Y-14608150D01*
X17541491Y-14608150D02*
X17570063Y-14608150D01*
X17570063Y-14608150D02*
X17589110Y-14617674D01*
X17589110Y-14617674D02*
X17598634Y-14636722D01*
X17598634Y-14636722D02*
X17598634Y-14741484D01*
X17598634Y-14636722D02*
X17608158Y-14617674D01*
X17608158Y-14617674D02*
X17627205Y-14608150D01*
X17627205Y-14608150D02*
X17655777Y-14608150D01*
X17655777Y-14608150D02*
X17674825Y-14617674D01*
X17674825Y-14617674D02*
X17684348Y-14636722D01*
X17684348Y-14636722D02*
X17684348Y-14741484D01*
X17779586Y-14741484D02*
X17779586Y-14608150D01*
X17779586Y-14627198D02*
X17789110Y-14617674D01*
X17789110Y-14617674D02*
X17808158Y-14608150D01*
X17808158Y-14608150D02*
X17836729Y-14608150D01*
X17836729Y-14608150D02*
X17855777Y-14617674D01*
X17855777Y-14617674D02*
X17865301Y-14636722D01*
X17865301Y-14636722D02*
X17865301Y-14741484D01*
X17865301Y-14636722D02*
X17874825Y-14617674D01*
X17874825Y-14617674D02*
X17893872Y-14608150D01*
X17893872Y-14608150D02*
X17922444Y-14608150D01*
X17922444Y-14608150D02*
X17941491Y-14617674D01*
X17941491Y-14617674D02*
X17951015Y-14636722D01*
X17951015Y-14636722D02*
X17951015Y-14741484D01*
X18341491Y-14531960D02*
X18170063Y-14789103D01*
X18598634Y-14541484D02*
X18617682Y-14541484D01*
X18617682Y-14541484D02*
X18636729Y-14551008D01*
X18636729Y-14551008D02*
X18646253Y-14560531D01*
X18646253Y-14560531D02*
X18655777Y-14579579D01*
X18655777Y-14579579D02*
X18665301Y-14617674D01*
X18665301Y-14617674D02*
X18665301Y-14665293D01*
X18665301Y-14665293D02*
X18655777Y-14703388D01*
X18655777Y-14703388D02*
X18646253Y-14722436D01*
X18646253Y-14722436D02*
X18636729Y-14731960D01*
X18636729Y-14731960D02*
X18617682Y-14741484D01*
X18617682Y-14741484D02*
X18598634Y-14741484D01*
X18598634Y-14741484D02*
X18579587Y-14731960D01*
X18579587Y-14731960D02*
X18570063Y-14722436D01*
X18570063Y-14722436D02*
X18560539Y-14703388D01*
X18560539Y-14703388D02*
X18551015Y-14665293D01*
X18551015Y-14665293D02*
X18551015Y-14617674D01*
X18551015Y-14617674D02*
X18560539Y-14579579D01*
X18560539Y-14579579D02*
X18570063Y-14560531D01*
X18570063Y-14560531D02*
X18579587Y-14551008D01*
X18579587Y-14551008D02*
X18598634Y-14541484D01*
X18751015Y-14722436D02*
X18760539Y-14731960D01*
X18760539Y-14731960D02*
X18751015Y-14741484D01*
X18751015Y-14741484D02*
X18741491Y-14731960D01*
X18741491Y-14731960D02*
X18751015Y-14722436D01*
X18751015Y-14722436D02*
X18751015Y-14741484D01*
X18951015Y-14741484D02*
X18836729Y-14741484D01*
X18893872Y-14741484D02*
X18893872Y-14541484D01*
X18893872Y-14541484D02*
X18874825Y-14570055D01*
X18874825Y-14570055D02*
X18855777Y-14589103D01*
X18855777Y-14589103D02*
X18836729Y-14598627D01*
X19122444Y-14608150D02*
X19122444Y-14741484D01*
X19074825Y-14531960D02*
X19027206Y-14674817D01*
X19027206Y-14674817D02*
X19151015Y-14674817D01*
X19331968Y-14741484D02*
X19217682Y-14741484D01*
X19274825Y-14741484D02*
X19274825Y-14541484D01*
X19274825Y-14541484D02*
X19255777Y-14570055D01*
X19255777Y-14570055D02*
X19236729Y-14589103D01*
X19236729Y-14589103D02*
X19217682Y-14598627D01*
X19398634Y-14541484D02*
X19531968Y-14541484D01*
X19531968Y-14541484D02*
X19446253Y-14741484D01*
X19598634Y-14541484D02*
X19598634Y-14579579D01*
X19674825Y-14541484D02*
X19674825Y-14579579D01*
X19970063Y-14817674D02*
X19960539Y-14808150D01*
X19960539Y-14808150D02*
X19941491Y-14779579D01*
X19941491Y-14779579D02*
X19931968Y-14760531D01*
X19931968Y-14760531D02*
X19922444Y-14731960D01*
X19922444Y-14731960D02*
X19912920Y-14684341D01*
X19912920Y-14684341D02*
X19912920Y-14646246D01*
X19912920Y-14646246D02*
X19922444Y-14598627D01*
X19922444Y-14598627D02*
X19931968Y-14570055D01*
X19931968Y-14570055D02*
X19941491Y-14551008D01*
X19941491Y-14551008D02*
X19960539Y-14522436D01*
X19960539Y-14522436D02*
X19970063Y-14512912D01*
X20027206Y-14541484D02*
X20151015Y-14541484D01*
X20151015Y-14541484D02*
X20084349Y-14617674D01*
X20084349Y-14617674D02*
X20112920Y-14617674D01*
X20112920Y-14617674D02*
X20131968Y-14627198D01*
X20131968Y-14627198D02*
X20141491Y-14636722D01*
X20141491Y-14636722D02*
X20151015Y-14655769D01*
X20151015Y-14655769D02*
X20151015Y-14703388D01*
X20151015Y-14703388D02*
X20141491Y-14722436D01*
X20141491Y-14722436D02*
X20131968Y-14731960D01*
X20131968Y-14731960D02*
X20112920Y-14741484D01*
X20112920Y-14741484D02*
X20055777Y-14741484D01*
X20055777Y-14741484D02*
X20036730Y-14731960D01*
X20036730Y-14731960D02*
X20027206Y-14722436D01*
X20389111Y-14741484D02*
X20389111Y-14541484D01*
X20474825Y-14741484D02*
X20474825Y-14636722D01*
X20474825Y-14636722D02*
X20465301Y-14617674D01*
X20465301Y-14617674D02*
X20446253Y-14608150D01*
X20446253Y-14608150D02*
X20417682Y-14608150D01*
X20417682Y-14608150D02*
X20398634Y-14617674D01*
X20398634Y-14617674D02*
X20389111Y-14627198D01*
X20598634Y-14741484D02*
X20579587Y-14731960D01*
X20579587Y-14731960D02*
X20570063Y-14722436D01*
X20570063Y-14722436D02*
X20560539Y-14703388D01*
X20560539Y-14703388D02*
X20560539Y-14646246D01*
X20560539Y-14646246D02*
X20570063Y-14627198D01*
X20570063Y-14627198D02*
X20579587Y-14617674D01*
X20579587Y-14617674D02*
X20598634Y-14608150D01*
X20598634Y-14608150D02*
X20627206Y-14608150D01*
X20627206Y-14608150D02*
X20646253Y-14617674D01*
X20646253Y-14617674D02*
X20655777Y-14627198D01*
X20655777Y-14627198D02*
X20665301Y-14646246D01*
X20665301Y-14646246D02*
X20665301Y-14703388D01*
X20665301Y-14703388D02*
X20655777Y-14722436D01*
X20655777Y-14722436D02*
X20646253Y-14731960D01*
X20646253Y-14731960D02*
X20627206Y-14741484D01*
X20627206Y-14741484D02*
X20598634Y-14741484D01*
X20779587Y-14741484D02*
X20760539Y-14731960D01*
X20760539Y-14731960D02*
X20751015Y-14712912D01*
X20751015Y-14712912D02*
X20751015Y-14541484D01*
X20931968Y-14731960D02*
X20912920Y-14741484D01*
X20912920Y-14741484D02*
X20874825Y-14741484D01*
X20874825Y-14741484D02*
X20855777Y-14731960D01*
X20855777Y-14731960D02*
X20846253Y-14712912D01*
X20846253Y-14712912D02*
X20846253Y-14636722D01*
X20846253Y-14636722D02*
X20855777Y-14617674D01*
X20855777Y-14617674D02*
X20874825Y-14608150D01*
X20874825Y-14608150D02*
X20912920Y-14608150D01*
X20912920Y-14608150D02*
X20931968Y-14617674D01*
X20931968Y-14617674D02*
X20941492Y-14636722D01*
X20941492Y-14636722D02*
X20941492Y-14655769D01*
X20941492Y-14655769D02*
X20846253Y-14674817D01*
X21017682Y-14731960D02*
X21036730Y-14741484D01*
X21036730Y-14741484D02*
X21074825Y-14741484D01*
X21074825Y-14741484D02*
X21093873Y-14731960D01*
X21093873Y-14731960D02*
X21103396Y-14712912D01*
X21103396Y-14712912D02*
X21103396Y-14703388D01*
X21103396Y-14703388D02*
X21093873Y-14684341D01*
X21093873Y-14684341D02*
X21074825Y-14674817D01*
X21074825Y-14674817D02*
X21046253Y-14674817D01*
X21046253Y-14674817D02*
X21027206Y-14665293D01*
X21027206Y-14665293D02*
X21017682Y-14646246D01*
X21017682Y-14646246D02*
X21017682Y-14636722D01*
X21017682Y-14636722D02*
X21027206Y-14617674D01*
X21027206Y-14617674D02*
X21046253Y-14608150D01*
X21046253Y-14608150D02*
X21074825Y-14608150D01*
X21074825Y-14608150D02*
X21093873Y-14617674D01*
X21170063Y-14817674D02*
X21179587Y-14808150D01*
X21179587Y-14808150D02*
X21198634Y-14779579D01*
X21198634Y-14779579D02*
X21208158Y-14760531D01*
X21208158Y-14760531D02*
X21217682Y-14731960D01*
X21217682Y-14731960D02*
X21227206Y-14684341D01*
X21227206Y-14684341D02*
X21227206Y-14646246D01*
X21227206Y-14646246D02*
X21217682Y-14598627D01*
X21217682Y-14598627D02*
X21208158Y-14570055D01*
X21208158Y-14570055D02*
X21198634Y-14551008D01*
X21198634Y-14551008D02*
X21179587Y-14522436D01*
X21179587Y-14522436D02*
X21170063Y-14512912D01*
M02*
